<?xml version="1.0" encoding="UTF-8"?>
<!DOCTYPE svg  PUBLIC '-//W3C//DTD SVG 1.1//EN'  'http://www.w3.org/Graphics/SVG/1.1/DTD/svg11.dtd'>
<svg xmlns="http://www.w3.org/2000/svg" xmlns:xlink="http://www.w3.org/1999/xlink" version="1.1">
<defs>
<font horiz-adv-x="500.0" id="ru1">
<font-face font-family="ru1" units-per-em="1000.0" ascent="800.0" descent="-200.0" cap-height="500.0" x-height="300.0"/>
<missing-glyph horiz-adv-x="352.0"/>
<glyph unicode=" " glyph-name="space"
horiz-adv-x="352.0"/>
<glyph unicode="!" glyph-name="!" d="M 155.97 82.24 C 122.24 82.24 116.45 54.3 121.72 47.98 C 126.99 41.65 144.38 42.71 150.18 47.98 C 155.97 53.25 165.46 62.74 163.88 68.53 C 162.3 74.33 155.97 82.24 155.97 82.24 Z M 168.62 735.78 C 168.62 735.78 151.76 533.39 147.54 423.77 C 143.33 314.14 136.38 175.51 136.38 175.51"
horiz-adv-x="269.0"/>
<glyph unicode="&quot;" glyph-name="&quot;" d="M 209.72 743.16 C 230.8 719.97 233.96 728.4 239.23 699.94 C 244.5 671.48 218.15 599.8 212.88 589.26 M 80.06 722.08 C 88.5 688.35 89.55 651.45 83.23 630.37 C 76.9 609.29 65.31 574.5 65.31 574.5"
horiz-adv-x="291.0"/>
<glyph unicode="#" glyph-name="#" d="M 160.16 109.64 C 205.48 104.37 360.44 94.89 402.6 94.89 C 444.77 94.89 747.29 92.78 747.29 92.78 M 154.89 375.28 C 224.46 367.9 361.49 360.52 437.39 357.36 C 513.28 354.2 733.59 358.41 733.59 358.41 M 602.88 517.58 C 603.94 432.2 599.72 276.19 596.56 227.7 C 593.4 179.21 571.26 -38.99 571.26 -38.99 M 261.35 516.53 C 261.35 516.53 252.92 292 249.76 227.7 C 246.59 163.4 225.51 -38.99 225.51 -38.99"
horiz-adv-x="989.0"/>
<glyph unicode="$" glyph-name="$" d="M 436.51 534.33 C 329.18 637.19 257.62 689.37 220.35 695.33 C 183.08 701.29 136.87 683.41 116 659.55 C 95.13 635.7 66.81 586.51 65.32 547.75 C 63.83 508.99 89.17 461.29 123.46 431.47 C 157.74 401.66 341.1 245.13 390.3 206.37 C 439.49 167.61 461.85 133.33 461.85 103.51 C 461.85 73.7 458.87 42.39 412.66 33.45 C 366.44 24.5 322.67 21.09 258.57 43.45 C 194.46 65.81 98.11 84.13 47.43 131.84 M 266.57 769.87 C 260.6 656.57 253.15 535.82 253.15 416.56 C 253.15 297.31 254.64 167.61 256.13 81.15 C 257.62 -5.31 257.62 -73.89 257.62 -73.89"
horiz-adv-x="655.0"/>
<glyph unicode="%" glyph-name="%" d="M 649.03 410.6 C 625.18 453.83 620.71 476.19 596.86 468.74 C 573.01 461.29 547.66 437.44 519.34 407.62 C 491.01 377.81 388.15 266 358.34 233.21 C 328.53 200.41 234.61 82.64 224.17 60.28 M 522.32 178.05 C 561.08 213.83 596.86 231.71 638.6 243.64 C 680.34 255.57 701.21 260.04 734 228.73 C 766.8 197.43 775.74 163.14 769.78 142.27 C 763.82 121.4 756.36 88.6 704.19 75.19 C 652.01 61.77 589.4 70.72 559.59 85.62 C 529.77 100.53 520.83 121.4 516.36 136.31 C 511.88 151.22 522.32 178.05 522.32 178.05 Z M 22.93 248.11 C 103.42 261.53 166.04 285.38 189.89 303.27 C 213.74 321.16 233.12 365.88 210.76 382.28 C 188.4 398.68 146.66 401.66 109.39 376.32 C 72.12 350.97 39.32 324.14 27.4 297.31 C 15.47 270.47 25.91 230.22 30.38 222.77 C 34.85 215.32 46.78 197.43 69.14 198.92 C 91.5 200.41 157.09 230.22 174.98 248.11 C 192.87 266 210.76 301.78 213.74 321.16 C 216.72 340.54 218.21 358.43 218.21 358.43"
horiz-adv-x="906.0"/>
<glyph unicode="&amp;" glyph-name="&amp;" d="M 760.19 283.89 C 776.58 353.95 821.31 434.45 827.27 452.34 C 833.23 470.23 870.5 586.51 870.5 602.91 C 870.5 619.3 871.99 658.06 858.57 671.48 C 845.16 684.9 836.21 674.46 827.27 647.63 C 818.32 620.79 782.55 425.51 770.62 353.95 C 758.69 282.4 736.33 115.44 736.33 115.44 C 736.33 115.44 708.01 17.05 710.99 -5.31 C 713.97 -27.67 722.92 11.09 749.75 28.98 C 776.58 46.86 870.5 148.23 870.5 148.23 C 870.5 148.23 688.63 110.97 627.51 99.04 C 566.39 87.11 327.87 39.41 271.23 27.48 C 214.58 15.56 68.49 -6.8 53.58 -12.77 C 38.67 -18.73 46.13 -32.14 102.77 -38.11 C 159.42 -44.07 441.17 -32.14 505.27 -26.18 C 569.37 -20.22 1182.06 55.81 1182.06 55.81 M 363.65 520.92 C 336.82 470.23 307 385.26 301.04 364.39 C 295.08 343.52 286.13 300.29 286.13 300.29 C 286.13 300.29 302.53 356.94 302.53 376.32 C 302.53 395.69 280.17 401.66 265.26 383.77 C 250.36 365.88 211.6 295.82 193.71 249.6 C 175.82 203.39 163.89 149.72 162.4 140.78 C 160.91 131.84 181.78 140.78 193.71 148.23 C 205.63 155.69 278.68 218.3 302.53 242.15 C 326.38 266 442.66 383.77 456.08 398.68 C 469.49 413.58 476.95 428.49 472.47 422.53 C 468 416.56 444.15 380.79 426.26 319.67 C 408.37 258.55 360.67 112.46 360.67 112.46 C 360.67 112.46 369.61 157.18 384.52 176.56 C 399.43 195.94 457.57 246.62 487.38 274.95 C 517.2 303.27 597.7 409.11 597.7 409.11 C 597.7 409.11 442.66 237.68 436.7 213.83 C 430.73 189.97 429.24 163.14 430.73 157.18 C 432.22 151.22 439.68 140.78 462.04 145.25 C 484.4 149.72 555.96 158.67 603.66 179.54"
horiz-adv-x="1243.0"/>
<glyph unicode="'" glyph-name="'" d="M 120.01 731.11 C 122.99 699.8 127.47 668.5 109.58 635.7 C 91.69 602.91 72.31 571.6 57.4 565.64"
horiz-adv-x="193.0"/>
<glyph unicode="(" glyph-name="(" d="M 268.43 567.13 C 220.73 561.17 173.03 559.68 156.63 541.79 C 140.23 523.9 99.98 452.34 88.06 422.53 C 76.13 392.71 47.81 276.44 46.31 234.7 C 44.82 192.96 41.84 99.04 55.26 55.81 C 68.67 12.58 83.58 -20.22 104.45 -35.13 C 125.32 -50.03 199.86 -51.52 199.86 -51.52"
horiz-adv-x="300.0"/>
<glyph unicode=")" glyph-name=")" d="M 129.14 553.71 C 129.14 553.71 153 500.05 158.96 474.7 C 164.92 449.36 182.81 373.33 187.28 333.08 C 191.76 292.83 199.21 209.35 190.26 164.63 C 181.32 119.91 150.01 49.85 117.22 15.56 C 84.42 -18.73 41.19 -51.52 41.19 -51.52"
horiz-adv-x="316.0"/>
<glyph unicode="*" glyph-name="*" d="M 316.32 218.3 C 316.32 218.3 141.91 295.82 128.49 306.25 C 115.08 316.69 73.34 364.39 73.34 364.39 C 73.34 364.39 241.79 412.09 247.75 413.58 C 253.71 415.07 347.63 453.83 365.52 456.81 C 383.41 459.8 568.26 465.76 568.26 465.76 C 568.26 465.76 320.8 322.65 299.93 310.72 C 279.06 298.8 216.45 254.08 185.14 239.17 C 153.83 224.26 76.32 189.97 76.32 189.97 C 76.32 189.97 128.49 279.42 156.82 307.74 C 185.14 336.07 359.56 552.22 359.56 552.22 C 359.56 552.22 356.57 425.51 358.07 412.09 C 359.56 398.68 355.08 339.05 352.1 322.65 C 349.12 306.25 316.32 218.3 316.32 218.3 Z"
horiz-adv-x="645.0"/>
<glyph unicode="+" glyph-name="+" d="M 124.86 263.02 C 197.91 289.85 288.84 292.83 321.64 292.83 C 354.43 292.83 442.39 280.91 442.39 280.91 M 279.9 452.34 C 279.9 452.34 272.5 339.04 270.95 315.2 C 267.19 257.22 298.28 97.82 300.77 113.95"
horiz-adv-x="525.0"/>
<glyph unicode="," glyph-name="," d="M 88.43 20.03 L 88.43 31.96 C 88.43 31.96 100.36 21.52 97.38 9.6 C 94.39 -2.33 98.87 -29.16 85.45 -63.45 C 72.03 -97.74 22.84 -136.5 22.84 -136.5"
horiz-adv-x="268.0"/>
<glyph unicode="-" glyph-name="-" d="M 163.81 283.89 C 217.47 266 365.06 257.06 365.06 257.06"
horiz-adv-x="450.0"/>
<glyph unicode="." glyph-name="." d="M 66.26 46.86 C 64.77 60.28 79.68 81.15 90.11 79.66 C 100.54 78.17 78.18 54.32 78.18 54.32 Z"
horiz-adv-x="268.0"/>
<glyph unicode="/" glyph-name="/" d="M 597.8 681.91 C 597.8 681.91 356.3 394.2 310.09 340.54 C 263.87 286.87 35.79 -12.77 35.79 -12.77"
horiz-adv-x="629.0"/>
<glyph unicode="0" glyph-name="0" d="M 272.17 695.33 C 212.54 681.91 157.38 669.99 135.02 646.14 C 112.66 622.29 87.32 582.04 70.92 531.35 C 54.52 480.67 51.54 409.11 50.05 361.41 C 48.56 313.7 51.54 240.66 63.46 200.41 C 75.39 160.16 124.58 109.47 143.96 97.55 C 163.34 85.62 255.77 70.72 300.49 72.21 C 345.21 73.7 416.77 99.04 442.11 131.84 C 467.45 164.63 507.7 267.49 509.19 304.76 C 510.68 342.03 500.25 410.6 486.83 459.8 C 473.42 508.99 467.45 576.07 424.22 616.32 C 380.99 656.57 331.8 693.84 309.44 696.82 C 287.08 699.8 272.17 695.33 272.17 695.33 Z"
horiz-adv-x="514.0"/>
<glyph unicode="1" glyph-name="1" d="M 41.94 352.46 C 100.08 356.94 168.66 377.81 196.98 397.19 C 225.3 416.56 277.48 473.21 304.31 522.41 C 331.15 571.6 396.74 716.2 396.74 716.2 C 396.74 716.2 283.44 476.19 250.65 370.35 C 217.85 264.51 144.8 54.32 134.37 14.07"
horiz-adv-x="444.0"/>
<glyph unicode="2" glyph-name="2" d="M 100.92 371.84 C 115.83 476.19 132.23 546.26 175.46 586.51 C 218.69 626.76 282.79 658.06 327.51 665.52 C 372.24 672.97 428.88 674.46 461.68 643.16 C 494.47 611.85 527.27 558.18 516.83 504.52 C 506.4 450.85 442.3 349.48 402.05 300.29 C 361.8 251.09 263.41 139.29 170.99 81.15 C 78.56 23.01 29.37 6.61 24.89 82.64 C 20.42 158.67 62.16 186.99 86.01 201.9 C 109.87 216.81 165.02 242.15 202.29 245.13 C 239.56 248.11 269.37 231.71 291.74 194.45 C 314.1 157.18 323.04 115.44 364.78 96.06 C 406.52 76.68 497.46 64.75 539.2 64.75"
horiz-adv-x="619.0"/>
<glyph unicode="3" glyph-name="3" d="M 74.93 501.54 C 115.18 588 144.99 626.76 192.7 646.14 C 240.4 665.52 283.63 661.04 297.05 634.21 C 310.46 607.38 329.84 564.15 298.54 529.86 C 267.23 495.57 222.51 456.81 194.19 444.89 C 165.86 432.96 103.25 415.07 103.25 415.07 C 103.25 415.07 161.39 428.49 180.77 415.07 C 200.15 401.66 244.87 368.86 273.19 321.16 C 301.52 273.45 322.39 221.28 316.43 158.67 C 310.46 96.06 262.76 52.83 228.47 36.43 C 194.19 20.03 131.58 11.09 101.76 28.98 C 71.95 46.86 40.64 79.66 33.19 105 C 25.73 130.34 25.73 148.23 25.73 148.23"
horiz-adv-x="408.0"/>
<glyph unicode="4" glyph-name="4" d="M 144.34 692.35 C 96.64 605.89 72.79 549.24 69.81 494.08 C 66.82 438.93 75.77 386.75 75.77 386.75 C 75.77 386.75 93.66 371.84 174.16 358.43 C 254.66 345.01 353.04 339.05 394.78 349.48 C 436.52 359.92 482.74 370.35 490.19 373.33 C 497.64 376.32 599.01 677.44 599.01 677.44 C 599.01 677.44 396.27 90.1 366.46 25.99"
horiz-adv-x="650.0"/>
<glyph unicode="5" glyph-name="5" d="M 555.13 714.71 C 555.13 714.71 458.23 696.82 409.04 690.86 C 359.85 684.9 277.86 689.37 254 632.72 C 230.15 576.07 152.63 380.79 137.73 347.99 C 122.82 315.2 81.08 246.62 81.08 246.62 C 81.08 246.62 145.18 339.05 186.92 355.45 C 228.66 371.84 265.93 370.35 294.25 336.07 C 322.58 301.78 331.52 258.55 316.61 204.88 C 301.71 151.22 274.87 100.53 227.17 66.24 C 179.47 31.96 143.69 20.03 109.4 34.94 C 75.12 49.85 34.87 99.04 34.87 99.04"
horiz-adv-x="592.0"/>
<glyph unicode="6" glyph-name="6" d="M 277.2 692.35 C 192.23 614.83 134.09 479.18 114.71 424.02 C 95.33 368.86 59.56 254.08 49.12 209.35 C 38.69 164.63 31.23 102.02 58.07 72.21 C 84.9 42.39 146.02 27.48 208.63 45.37 C 271.24 63.26 341.31 109.47 369.63 158.67 C 397.95 207.86 417.33 266 389.01 301.78 C 360.68 337.56 318.94 355.44 248.88 345.01 C 178.82 334.57 135.58 306.25 105.77 285.38 C 75.96 264.51 55.08 227.24 55.08 227.24"
horiz-adv-x="675.0"/>
<glyph unicode="7" glyph-name="7" d="M 45.49 339.05 C 76.79 403.15 128.97 494.08 178.17 568.62 C 227.36 643.16 248.23 667.01 257.17 678.93 C 266.12 690.86 289.97 698.31 295.93 668.5 C 301.9 638.68 322.77 513.46 328.73 488.12 C 334.69 462.78 360.03 419.55 395.81 413.58 C 431.59 407.62 464.39 394.2 513.58 495.57 C 562.77 596.94 601.53 690.86 601.53 690.86 C 601.53 690.86 531.47 547.75 506.12 492.59 C 480.78 437.44 456.93 425.51 453.95 349.48 C 450.97 273.45 456.93 188.48 434.57 102.02 C 412.21 15.56 403.26 6.61 377.92 34.94 C 352.58 63.26 267.61 210.84 267.61 210.84 C 267.61 210.84 304.88 230.22 333.2 237.68 C 361.52 245.13 410.72 225.75 456.93 227.24 C 503.14 228.73 641.78 242.15 641.78 242.15"
horiz-adv-x="658.0"/>
<glyph unicode="8" glyph-name="8" d="M 229.69 359.92 C 174.53 334.57 113.41 289.85 83.6 255.57 C 53.78 221.28 23.97 157.18 23.97 125.87 C 23.97 94.57 37.38 43.88 55.27 34.94 C 73.16 25.99 219.25 3.63 268.45 45.37 C 317.64 87.11 344.47 146.74 328.08 195.94 C 311.68 245.13 265.47 340.54 217.76 368.86 C 170.06 397.19 117.88 416.56 111.92 450.85 C 105.96 485.14 125.34 562.66 152.17 593.96 C 179 625.27 223.73 671.48 293.79 678.93 C 363.85 686.39 408.58 664.03 430.94 635.7 C 453.3 607.38 474.17 558.18 451.81 507.5 C 429.45 456.81 369.82 410.6 314.66 391.22 C 259.5 371.84 229.69 359.92 229.69 359.92 Z"
horiz-adv-x="517.0"/>
<glyph unicode="9" glyph-name="9" d="M 400.47 458.31 C 361.71 424.02 302.08 383.77 245.44 376.32 C 188.79 368.86 103.82 364.39 65.06 421.04 C 26.3 477.68 69.53 538.8 87.42 562.66 C 105.31 586.51 150.03 632.72 217.11 650.61 C 284.2 668.5 355.75 674.46 400.47 644.65 C 445.19 614.83 431.78 588 427.31 552.22 C 422.83 516.44 381.09 400.17 363.2 364.39 C 345.32 328.61 263.33 154.2 236.49 119.91 C 209.66 85.62 167.92 52.83 139.59 42.39 C 111.27 31.96 50.15 30.47 50.15 30.47"
horiz-adv-x="493.0"/>
<glyph unicode=":" glyph-name=":" d="M 55.46 46.86 C 59.93 61.77 74.84 75.19 85.28 75.19 C 95.71 75.19 86.77 63.26 77.82 55.81 C 68.88 48.35 55.46 46.86 55.46 46.86 Z M 61.43 401.66 C 67.39 409.11 83.79 427 89.75 427 C 95.71 427 91.24 418.06 83.79 409.11 C 76.33 400.17 61.42 401.66 61.42 401.66 Z"
horiz-adv-x="177.0"/>
<glyph unicode=";" glyph-name=";" d="M 106.99 40.9 C 102.51 49.85 101.02 76.68 105.5 66.24 C 109.97 55.81 108.48 18.54 102.51 -2.33 C 96.55 -23.2 81.64 -61.96 63.76 -78.36 C 45.87 -94.76 25 -97.74 25 -97.74 M 77.17 398.68 C 80.15 412.09 87.61 419.55 98.04 427 C 108.48 434.45 130.84 434.45 120.4 428.49 C 109.97 422.53 77.17 398.68 77.17 398.68 Z"
horiz-adv-x="205.0"/>
<glyph unicode="&lt;" glyph-name="&lt;" d="M 301.62 443.4 C 261.37 400.17 218.27 363.33 165.96 340.54 C 104.23 313.64 67.43 305.11 45.21 309.23 C 45.21 309.23 125.71 264.51 149.57 248.11 C 173.42 231.71 280.75 136.31 303.11 113.95 C 325.47 91.59 340.38 64.75 340.38 64.75"
horiz-adv-x="413.0"/>
<glyph unicode="=" glyph-name="=" d="M 145.93 163.14 C 226.43 160.16 408.3 169.1 408.3 169.1 M 123.57 356.94 L 354.64 347.99"
horiz-adv-x="509.0"/>
<glyph unicode="&gt;" glyph-name="&gt;" d="M 79.69 440.42 C 134.85 391.22 225.78 336.07 264.54 318.18 C 303.3 300.29 334.6 303.27 334.6 303.27 C 334.6 303.27 292.86 294.33 266.03 273.45 C 239.2 252.58 161.68 182.52 119.94 148.23 C 78.2 113.95 43.91 70.72 39.44 51.34"
horiz-adv-x="411.0"/>
<glyph unicode="?" glyph-name="?" d="M 108.85 41.37 C 98.42 47.34 101.4 66.72 110.34 59.26 C 119.29 51.81 108.85 41.37 108.85 41.37 Z M 110.34 453.83 C 120.78 507.5 165.5 564.15 195.32 596.94 C 225.13 629.74 275.81 652.1 305.63 649.12 C 335.44 646.14 389.11 647.63 381.66 589.49 C 374.2 531.35 338.43 486.63 299.67 449.36 C 260.91 412.09 207.24 367.37 181.9 345.01 C 156.56 322.65 132.7 291.34 123.76 249.6"
horiz-adv-x="448.0"/>
<glyph unicode="A" glyph-name="A" d="M 0.22 28.98 C 0.22 28.98 119.48 237.68 158.24 310.72 C 196.99 383.77 276 567.13 316.25 632.72 C 356.5 698.31 392.28 754.96 408.68 728.13 C 425.08 701.29 445.95 628.25 448.93 564.15 C 451.91 500.05 460.85 306.25 460.85 246.62 C 460.85 186.99 469.8 102.02 469.8 102.02 C 469.8 102.02 411.66 173.58 375.88 203.39 C 340.1 233.21 274.51 279.42 246.19 294.33"
horiz-adv-x="760.0"/>
<glyph unicode="B" glyph-name="B" d="M 221.69 662.54 C 230.63 565.64 230.63 535.82 202.31 462.78 C 173.98 389.73 124.79 292.83 106.9 227.24 C 89.01 161.65 39.82 11.09 39.82 11.09 C 39.82 11.09 135.22 310.72 157.58 359.92 C 179.95 409.11 239.57 556.69 284.3 617.81 C 329.02 678.93 373.74 731.11 428.9 723.66 C 484.05 716.2 507.91 704.28 528.78 661.04 C 549.65 617.81 530.27 583.53 515.36 552.22 C 500.45 520.92 466.17 431.47 457.22 415.07 C 448.28 398.68 418.46 376.32 390.14 371.84 C 361.81 367.37 320.07 367.37 321.56 379.3 C 323.06 391.22 355.85 427 372.25 431.47 C 388.65 435.94 448.28 443.4 472.13 427 C 495.98 410.6 582.44 350.97 601.82 306.25 C 621.2 261.53 621.2 192.96 573.5 130.34 C 525.79 67.73 452.75 30.47 364.8 30.47 C 276.84 30.47 218.7 39.41 203.8 60.28 C 188.89 81.15 188.89 118.42 203.8 139.29"
horiz-adv-x="674.0"/>
<glyph unicode="C" glyph-name="C" d="M 388 514.95 C 408.87 552.22 429.74 632.72 405.89 649.12 C 382.03 665.52 307.5 678.93 268.74 661.04 C 229.98 643.16 162.9 577.56 133.08 519.43 C 103.27 461.29 60.04 362.9 55.56 280.91 C 51.09 198.92 77.92 121.4 121.16 81.15 C 164.39 40.9 270.23 25.99 298.55 27.48 C 326.88 28.98 401.41 57.3 420.79 76.68 C 440.17 96.06 440.17 105 440.17 105"
horiz-adv-x="479.0"/>
<glyph unicode="D" glyph-name="D" d="M 359.02 588 C 326.23 468.74 265.11 325.63 235.29 274.95 C 205.48 224.26 160.75 134.82 135.41 107.98 C 110.07 81.15 105.6 76.68 105.6 76.68 C 105.6 76.68 198.02 207.86 226.35 219.79 C 254.67 231.71 303.86 234.7 332.19 200.41 C 360.51 166.12 372.44 103.51 400.76 76.68 C 429.09 49.85 470.83 25.99 540.89 31.96 C 610.95 37.92 694.44 61.77 725.74 93.08 C 757.05 124.38 791.33 216.81 797.3 270.47 C 803.26 324.14 773.44 440.42 737.67 485.14 C 701.89 529.86 622.88 613.34 563.25 646.14 C 503.62 678.93 397.78 680.42 333.68 677.44 C 269.58 674.46 217.4 652.1 175.66 626.76 C 133.92 601.42 116.03 580.55 116.03 580.55"
horiz-adv-x="737.0"/>
<glyph unicode="E" glyph-name="E" d="M 90.04 672.97 C 209.3 677.44 324.08 686.39 371.79 686.39 C 419.49 686.39 485.08 687.88 485.08 687.88 M 90.04 672.97 C 87.06 635.7 73.64 440.42 64.7 355.44 C 55.75 270.47 42.34 88.6 42.34 67.73 C 42.34 46.86 37.86 45.37 66.19 48.35 C 94.51 51.34 272.16 67.73 364.58 64.75 C 457.01 61.77 435.88 66.24 435.88 66.24"
horiz-adv-x="632.0"/>
<glyph unicode="F" glyph-name="F" d="M 89.39 689.37 C 174.36 689.37 408.4 698.31 472.5 686.39 M 80.44 479.18 C 192.25 480.67 412.88 476.19 463.56 473.21 M 89.39 702.79 C 86.41 661.04 83.42 500.05 78.95 432.96 C 74.48 365.88 62.55 64.75 68.52 9.6"
horiz-adv-x="530.0"/>
<glyph unicode="G" glyph-name="G" d="M 371.97 206.37 C 371.97 206.37 419.68 198.92 453.96 192.96 C 488.25 186.99 550.86 188.48 550.86 188.48 M 385.39 516.44 C 404.77 565.64 418.19 595.45 406.26 623.78 C 394.34 652.1 361.54 680.42 294.46 668.5 C 227.37 656.57 179.67 599.92 145.38 553.71 C 111.1 507.5 64.88 394.2 54.45 325.63 C 44.01 257.06 51.47 181.03 70.85 136.31 C 90.23 91.59 149.86 52.83 200.54 40.9 C 251.23 28.98 331.73 27.48 360.05 46.86 C 388.37 66.24 440.55 112.46 453.96 189.97"
horiz-adv-x="581.0"/>
<glyph unicode="H" glyph-name="H" d="M 55.29 376.32 C 119.39 382.28 171.57 388.24 235.67 394.2 C 299.77 400.17 381.76 406.13 381.76 406.13 M 392.19 -0.84 C 386.23 99.04 384.74 295.82 386.23 386.75 C 387.72 477.68 393.68 720.67 393.68 720.67 M 55.29 735.58 C 50.82 619.3 50.82 459.8 50.82 373.33 C 50.82 286.87 50.82 11.09 50.82 11.09"
horiz-adv-x="450.0"/>
<glyph unicode="I" glyph-name="I" d="M 63.58 714.71 C 114.27 702.79 230.54 705.77 238 705.77 C 245.45 705.77 145.57 704.28 145.57 704.28 C 145.57 704.28 142.59 483.65 141.1 410.6 C 139.61 337.56 136.63 33.45 136.63 33.45 C 136.63 33.45 82.96 33.45 60.6 39.41 C 38.24 45.37 109.79 30.47 109.79 30.47 C 109.79 30.47 199.24 33.45 229.05 42.39"
horiz-adv-x="280.0"/>
<glyph unicode="J" glyph-name="J" d="M 159.83 714.71 C 288.03 696.82 390.89 704.28 390.89 704.28 L 291.01 702.79 C 291.01 702.79 286.54 644.65 279.09 590.98 C 271.63 537.31 267.16 456.81 264.18 429.98 C 261.2 403.15 271.63 231.71 268.65 170.59 C 265.67 109.47 277.6 25.99 201.57 36.43 C 125.54 46.86 79.33 58.79 61.44 99.04 C 43.55 139.29 39.08 173.58 51 222.77"
horiz-adv-x="423.0"/>
<glyph unicode="K" glyph-name="K" d="M 417.07 693.84 C 417.07 693.84 142.78 471.72 129.36 459.8 C 115.95 447.87 83.15 422.53 123.4 376.32 C 163.65 330.1 390.24 31.96 390.24 31.96 M 120.42 729.62 C 120.42 729.62 115.95 629.74 109.98 538.8 C 104.02 447.87 87.62 18.54 87.62 18.54"
horiz-adv-x="674.0"/>
<glyph unicode="L" glyph-name="L" d="M 60.14 720.67 C 60.14 720.67 49.7 544.77 48.21 437.44 C 46.72 330.1 48.21 240.66 49.7 164.63 C 51.19 88.6 57.16 36.43 57.16 36.43 L 435.8 23.01"
horiz-adv-x="582.0"/>
<glyph unicode="M" glyph-name="M" d="M 59.49 28.98 C 59.49 28.98 63.96 306.25 62.47 379.3 C 60.98 452.34 58 664.03 58 664.03 L 377.01 489.61 L 611.53 687.88 C 611.53 687.88 611.06 661.04 611.06 596.94 C 611.06 532.84 608.07 349.48 602.11 268.98 C 596.15 188.48 587.2 24.5 587.2 24.5"
horiz-adv-x="691.0"/>
<glyph unicode="N" glyph-name="N" d="M 72.25 28.98 C 72.25 28.98 75.23 261.53 76.72 367.37 C 78.21 473.21 88.14 696.35 88.14 696.35 C 88.14 696.35 172.13 571.6 209.4 508.99 C 246.67 446.38 382.32 204.88 406.17 164.63 C 430.03 124.38 495.62 36.39 495.62 36.39 C 495.62 36.39 506.05 145.25 506.05 203.39 C 506.05 261.53 520.96 722.16 520.96 722.16"
horiz-adv-x="769.0"/>
<glyph unicode="O" glyph-name="O" d="M 140.17 429.98 C 102.91 350.97 77.56 292.83 70.11 243.64 C 62.66 194.45 75.99 120.66 98.43 88.6 C 119.31 58.79 186.39 27.48 243.03 31.96 C 299.68 36.43 387.63 55.81 426.39 79.66 C 465.15 103.51 553.11 198.92 585.9 271.96 C 618.7 345.01 669.38 504.52 642.55 571.6 C 615.72 638.68 588.88 713.22 478.57 711.73 C 368.26 710.24 305.64 669.99 259.43 613.34 C 213.22 556.69 153.59 470.23 143.16 410.6 C 132.72 350.97 132.72 310.72 149.12 254.08 C 165.52 197.43 205.77 161.65 254.96 139.29 C 304.15 116.93 407.01 110.97 448.75 122.89 C 490.5 134.82 509.87 155.69 509.87 155.69"
horiz-adv-x="711.0"/>
<glyph unicode="P" glyph-name="P" d="M 85.86 333.08 C 117.16 306.25 148.47 289.85 193.19 286.87 C 237.91 283.89 306.48 303.27 334.81 327.12 C 363.13 350.97 385.49 410.6 392.95 459.8 C 400.4 508.99 421.27 596.94 395.93 632.72 C 370.59 668.5 321.39 714.71 248.35 716.2 C 175.3 717.69 130.58 664.03 112.69 641.67 C 94.8 619.3 84.37 571.6 78.4 507.5 C 72.44 443.4 81.38 304.76 78.4 263.02 C 75.42 221.28 56.04 18.54 56.04 18.54"
horiz-adv-x="678.0"/>
<glyph unicode="Q" glyph-name="Q" d="M 417.64 245.13 C 417.64 245.13 477.27 175.07 507.08 152.71 C 536.9 130.34 694.91 24.5 694.91 24.5 M 61.35 359.92 C 80.73 271.96 82.22 252.58 131.42 195.94 C 180.61 139.29 241.73 90.1 295.4 84.13 C 349.06 78.17 414.66 90.1 460.87 110.97 C 507.08 131.84 557.77 222.77 565.22 248.11 C 572.67 273.45 559.26 389.73 544.35 428.49 C 529.44 467.25 493.66 562.66 463.85 592.47 C 434.04 622.29 349.06 668.5 286.45 656.57 C 223.84 644.65 103.09 574.58 82.22 520.92 C 61.35 467.25 55.39 443.4 55.39 422.53 C 55.39 401.66 61.35 359.92 61.35 359.92 Z"
horiz-adv-x="840.0"/>
<glyph unicode="R" glyph-name="R" d="M 65.17 722.16 L 21.94 25.99 L 57.72 532.84 C 57.72 532.84 147.16 637.19 169.53 658.06 C 191.89 678.93 261.95 749 300.71 707.26 C 339.47 665.52 342.45 629.74 336.49 573.09 C 330.52 516.44 272.39 377.81 260.46 346.5 C 248.53 315.2 197.85 295.82 176.98 298.8 C 156.11 301.78 135.24 316.69 171.02 319.67 C 206.79 322.65 270.89 282.4 285.8 258.55 C 300.71 234.7 352.89 115.44 381.21 31.96"
horiz-adv-x="673.0"/>
<glyph unicode="S" glyph-name="S" d="M 435.71 529.86 C 435.71 529.86 295.59 669.99 252.35 684.9 C 209.12 699.8 140.55 698.31 106.26 644.65 C 71.98 590.98 43.65 519.43 86.88 468.74 C 130.12 418.06 310.49 267.49 344.78 236.19 C 379.07 204.88 452.11 140.78 464.04 97.55 C 475.96 54.32 428.26 39.41 401.43 33.45 C 374.59 27.48 300.06 28.98 247.88 46.86 C 195.71 64.75 31.73 136.31 31.73 136.31"
horiz-adv-x="655.0"/>
<glyph unicode="T" glyph-name="T" d="M 280.03 692.35 C 280.03 604.4 256.18 400.17 250.21 353.95 C 244.25 307.74 186.11 12.58 186.11 12.58 M 13.19 690.86 C 13.19 690.86 251.7 693.84 305.37 693.84 C 359.04 693.84 606.5 692.35 606.5 692.35"
horiz-adv-x="602.0"/>
<glyph unicode="U" glyph-name="U" d="M 96.02 647.63 C 67.69 573.09 51.29 461.29 48.31 361.41 C 45.33 261.53 48.31 166.12 76.64 115.44 C 104.96 64.75 210.8 36.43 270.43 52.83 C 330.06 69.22 423.98 158.67 462.74 212.33 C 501.5 266 531.31 355.44 546.22 415.07 C 561.12 474.7 580.5 643.16 580.5 643.16"
horiz-adv-x="723.0"/>
<glyph unicode="V" glyph-name="V" d="M 19.34 693.84 C 19.34 693.84 108.78 438.93 134.12 374.82 C 159.47 310.72 288.69 27.92 288.69 27.92 C 288.69 27.92 397.98 273.45 432.27 345.01 C 466.56 416.56 582.83 696.82 582.83 696.82"
horiz-adv-x="621.0"/>
<glyph unicode="W" glyph-name="W" d="M 18.69 687.88 C 18.69 687.88 94.71 432.96 112.6 376.32 C 130.49 319.67 206.52 99.04 218.44 72.21 C 230.37 45.37 234.84 17.05 258.69 78.17 C 282.55 139.29 352.61 331.59 370.5 379.3 C 388.39 427 452.49 608.87 458.45 629.74 C 464.41 650.61 477.36 666.03 492.27 630.25 C 507.17 594.47 620.94 209.35 640.32 161.65 C 659.7 113.95 668.64 88.6 679.08 64.75 C 689.52 40.9 700.42 19.48 713.84 56.75 C 727.26 94.02 822.19 346.5 840.08 395.69 C 857.97 444.89 947.41 692.35 947.41 692.35"
horiz-adv-x="963.0"/>
<glyph unicode="X" glyph-name="X" d="M 68.72 525.39 C 100.03 577.56 132.82 608.87 177.54 611.85 C 222.27 614.83 281.89 582.04 307.24 540.3 C 332.58 498.56 383.26 415.07 387.74 361.41 C 392.21 307.74 371.34 248.11 329.6 198.92 C 287.86 149.72 238.66 96.06 201.4 66.24 C 164.13 36.43 144.75 27.48 144.75 27.48 C 144.75 27.48 249.1 91.59 319.16 184.01 C 389.23 276.44 659.05 616.32 667.99 629.74 C 676.94 643.16 715.7 658.06 715.7 658.06 C 715.7 658.06 679.92 644.65 667.99 628.25 C 656.07 611.85 493.58 406.13 474.2 373.33 C 454.82 340.54 445.87 291.34 456.31 239.17 C 466.75 186.99 501.03 106.49 529.36 82.64 C 557.68 58.79 591.97 31.96 630.73 28.98 C 669.48 25.99 697.81 48.35 697.81 48.35"
horiz-adv-x="751.0"/>
<glyph unicode="Y" glyph-name="Y" d="M 33.78 684.9 C 33.78 684.9 24.84 599.92 23.35 519.43 C 21.86 438.93 23.35 377.81 21.86 346.5 C 20.37 315.2 30.8 297.31 59.12 295.82 C 87.45 294.33 163.48 292.83 197.76 310.72 C 232.05 328.61 312.55 386.75 337.89 406.13 C 363.23 425.51 424.35 479.18 427.33 547.75 C 430.32 616.32 422.86 756.45 375.16 671.48 C 327.46 586.51 346.84 573.09 342.36 513.46 C 337.89 453.83 354.29 345.01 355.78 292.83 C 357.27 240.66 363.23 121.4 348.33 93.08 C 333.42 64.75 296.15 15.56 251.43 23.01 C 206.71 30.47 132.17 42.39 105.34 66.24 C 78.5 90.1 56.14 155.69 56.14 155.69"
horiz-adv-x="685.0"/>
<glyph unicode="Z" glyph-name="Z" d="M 144.94 389.73 L 550.41 334.57 M 189.66 687.88 C 189.66 687.88 531.03 683.41 556.38 683.41 C 581.72 683.41 653.27 689.37 598.12 608.87 C 542.96 528.37 471.41 440.42 428.17 398.68 C 384.94 356.94 232.89 227.24 194.13 194.45 C 155.37 161.65 30.15 42.39 30.15 42.39 C 30.15 42.39 58.47 51.34 146.43 54.32 C 234.38 57.3 653.27 70.72 653.27 70.72"
horiz-adv-x="840.0"/>
<glyph unicode="[" glyph-name="[" d="M 227.77 626.76 C 227.77 626.76 171.12 629.74 124.9 623.78 C 78.69 617.81 44.41 607.38 44.41 607.38 C 44.41 607.38 32.48 498.56 32.48 453.83 C 32.48 409.11 38.44 228.73 39.93 155.69 C 41.42 82.64 44.41 -17.24 45.9 -38.11 C 47.39 -58.98 39.93 -63.45 77.2 -72.39 C 114.47 -81.34 233.73 -88.79 233.73 -88.79"
horiz-adv-x="255.0"/>
<glyph unicode="\" glyph-name="\" d="M 36.3 608.87 C 36.3 608.87 140.65 394.2 183.88 301.78 C 227.11 209.35 326.99 -21.71 338.92 -57.49"
horiz-adv-x="372.0"/>
<glyph unicode="]" glyph-name="]" d="M 34.16 626.76 C 122.11 629.74 216.03 610.36 216.03 610.36 C 216.03 610.36 223.48 550.73 224.97 473.21 C 226.46 395.69 217.52 249.6 216.03 134.82 C 214.54 20.03 207.08 -67.92 207.08 -67.92 C 207.08 -67.92 116.15 -91.77 29.69 -87.3"
horiz-adv-x="285.0"/>
<glyph unicode="^" glyph-name="^" d="M 36.49 473.21 C 128.91 573.09 194.51 708.75 194.51 708.75 C 194.51 708.75 276.5 562.66 361.47 492.59"
horiz-adv-x="402.0"/>
<glyph unicode="_" glyph-name="_" d="M 37.33 -38.11 C 216.22 -54.51 302.68 -35.13 427.9 -29.16"
horiz-adv-x="444.0"/>
<glyph unicode="`" glyph-name="`" d="M 108.23 711.73 C 112.63 723.55 104.93 733.7 100.04 742.98 C 90.53 755.26 77.96 742.73 80.94 730.62 C 83.33 669.52 103.55 603.18 134.92 552.48 C 138.91 547.5 144.43 541.1 141.03 534.33"
horiz-adv-x="195.4"/>
<glyph unicode="a" glyph-name="a" d="M 443 219.79 C 429.58 121.4 384.86 99.04 328.21 67.73 C 271.56 36.43 161.25 8.1 107.58 30.47 C 53.91 52.83 41.99 99.04 47.95 155.69 C 53.91 212.33 71.8 301.78 91.18 327.12 C 110.56 352.46 159.76 385.26 220.88 401.66 C 282 418.06 343.12 438.93 384.86 418.06 C 426.6 397.19 453.43 352.46 450.45 322.65 C 447.47 292.83 437.03 151.21 435.54 139.29 C 434.05 127.36 448.96 96.06 463.87 79.66 C 478.77 63.26 519.02 8.1 538.4 63.26 C 557.78 118.42 565.23 118.42 565.23 118.42"
horiz-adv-x="591.0"/>
<glyph unicode="b" glyph-name="b" d="M 176.99 738.56 C 156.12 613.34 133.76 480.67 111.4 418.06 C 89.04 355.45 57.74 213.83 59.23 186.99 C 60.72 160.16 95 82.64 147.18 58.79 C 199.35 34.94 284.33 28.98 320.1 64.75 C 355.88 100.53 373.77 169.1 375.26 224.26 C 376.75 279.42 382.71 346.5 358.86 379.3 C 335.01 412.09 266.44 455.32 209.79 453.83 C 153.14 452.34 120.35 443.4 120.35 443.4"
horiz-adv-x="441.0"/>
<glyph unicode="c" glyph-name="c" d="M 264.3 379.3 C 280.69 406.13 292.62 431.47 279.2 453.83 C 265.79 476.19 212.12 489.61 179.32 473.21 C 146.53 456.81 89.88 379.3 64.54 321.16 C 39.2 263.02 33.23 145.25 52.61 102.02 C 71.99 58.79 110.75 30.47 167.4 25.99 C 224.05 21.52 276.22 42.39 298.58 81.15"
horiz-adv-x="367.0"/>
<glyph unicode="d" glyph-name="d" d="M 402.28 731.11 C 393.34 614.83 387.38 465.76 388.87 421.04 C 390.36 376.32 396.32 191.46 381.41 154.2 C 366.5 116.93 321.78 54.32 271.1 42.39 C 220.41 30.47 157.8 23.01 122.03 55.81 C 86.25 88.6 65.38 124.38 63.89 170.59 C 62.4 216.81 81.78 333.08 92.21 361.41 C 102.65 389.73 125.01 432.96 175.69 447.87 C 226.38 462.78 269.61 458.31 299.42 450.85 C 329.24 443.4 382.9 422.53 382.9 422.53"
horiz-adv-x="460.0"/>
<glyph unicode="e" glyph-name="e" d="M 45.35 258.55 C 192.93 261.53 271.94 263.02 334.55 301.78 C 397.16 340.54 437.41 373.33 444.86 403.15 C 452.32 432.96 444.86 447.87 388.21 468.74 C 331.57 489.61 260.01 485.14 185.48 456.81 C 110.94 428.49 61.74 394.2 48.33 350.97 C 34.91 307.74 36.4 267.49 60.25 227.24 C 84.11 186.99 148.21 121.4 181 97.55 C 213.8 73.7 303.24 40.9 350.95 33.45 C 398.65 25.99 440.39 31.96 440.39 31.96"
horiz-adv-x="573.0"/>
<glyph unicode="f" glyph-name="f" d="M -23.88 115.44 C -23.88 115.44 56.62 93.08 93.89 84.13 C 131.16 75.19 257.87 66.24 257.87 66.24 M 302.59 242.15 C 333.9 294.33 318.99 368.86 295.14 397.19 C 271.29 425.51 216.13 458.31 174.39 453.83 C 132.65 449.36 105.82 415.07 102.83 371.84 C 99.85 328.61 90.44 212.33 96.4 164.63 C 102.36 116.93 99.85 67.73 87.93 9.6 C 76 -48.54 29.79 -228.92 29.79 -228.92"
horiz-adv-x="467.0"/>
<glyph unicode="g" glyph-name="g" d="M 512.13 270.47 C 471.88 200.41 418.22 152.71 333.25 137.8 C 248.27 122.89 184.17 130.34 157.34 191.46 C 130.51 252.58 146.9 330.1 203.55 383.77 C 260.2 437.44 357.1 501.54 425.67 479.18 C 494.24 456.81 547.91 425.51 531.51 339.05 C 515.11 252.58 476.36 103.51 467.41 54.32 C 458.47 5.12 430.14 -102.21 403.31 -142.46 C 376.48 -182.71 319.83 -245.32 266.16 -225.94 C 212.5 -206.56 187.15 -190.16 200.57 -109.66 C 213.99 -29.16 295.98 18.54 295.98 18.54"
horiz-adv-x="670.0"/>
<glyph unicode="h" glyph-name="h" d="M 141.78 729.62 C 141.78 729.62 113.46 455.32 100.04 383.77 C 86.62 312.21 24.01 25.99 24.01 25.99 C 24.01 25.99 77.68 324.14 110.48 349.48 C 143.27 374.82 220.79 413.58 262.53 412.09 C 304.27 410.6 354.96 386.75 387.75 343.52 C 420.55 300.29 445.89 270.47 438.44 186.99 C 430.98 103.51 422.04 15.56 422.04 15.56"
horiz-adv-x="506.0"/>
<glyph unicode="i" glyph-name="i" d="M 93.43 458.31 C 109.82 306.25 127.71 164.63 105.35 18.54 M 91.94 571.6 C 102.37 595.45 84.99 613.27 86.48 596.87 C 87.97 580.47 91.94 571.6 91.94 571.6 Z"
horiz-adv-x="243.0"/>
<glyph unicode="j" glyph-name="j" d="M 265.7 486.63 C 241.85 292.83 241.85 115.44 241.85 51.34 C 241.85 -12.77 243.34 -120.1 238.87 -163.33 C 234.39 -206.56 222.47 -249.79 176.26 -233.39 C 130.04 -217 68.92 -197.62 52.53 -151.4 C 36.13 -105.19 48.05 -69.41 62.96 -42.58 C 77.87 -15.75 94.27 -3.82 94.27 -3.82 M 279.12 625.27 C 289.55 635.7 274.64 658.06 273.15 650.61 C 271.66 643.16 279.12 625.27 279.12 625.27 Z"
horiz-adv-x="347.0"/>
<glyph unicode="k" glyph-name="k" d="M 269.52 246.62 C 351.51 169.1 469.28 85.62 511.02 63.26 M 208.4 687.88 C 202.44 516.44 193.49 295.82 162.19 189.97 C 130.88 84.13 86.16 21.52 86.16 21.52 C 86.16 21.52 133.86 112.46 212.87 191.46 C 291.88 270.47 406.67 404.64 430.52 428.49 C 454.37 452.34 499.09 491.1 525.93 495.57"
horiz-adv-x="575.0"/>
<glyph unicode="l" glyph-name="l" d="M 45.22 398.13 C 97.4 487.57 133.21 552.22 143.65 592.47 C 154.08 632.72 164.52 681.91 160.05 696.82 C 155.57 711.73 140.67 732.6 121.29 704.28 C 101.91 675.95 60.17 608.87 51.22 543.28 C 42.28 477.68 42.28 336.07 36.32 304.76 C 30.35 273.45 21.41 204.88 31.84 151.22 C 42.28 97.55 52.71 61.77 95.94 27.48"
horiz-adv-x="280.0"/>
<glyph unicode="m" glyph-name="m" d="M 110.2 467.25 C 81.88 277.93 56.53 184.01 46.1 137.8 C 35.66 91.59 23.74 20.03 23.74 20.03 C 23.74 20.03 75.91 307.74 95.29 330.1 C 114.67 352.46 169.99 400.78 223.5 410.6 C 267.67 418.71 314.29 410.3 362.13 355.44 C 423.28 285.32 445.62 261.53 438.16 170.59 C 430.71 79.66 423.25 17.05 423.25 17.05 C 423.25 17.05 429.37 250.39 459.03 298.8 C 486.02 342.85 507.02 384.18 561.89 410.6 C 602.14 429.98 657.48 444.33 699.59 404.13 C 732.38 372.82 761.65 339.05 755.69 268.98 C 749.72 198.92 739.29 131.84 725.87 91.59 C 712.46 51.34 705 27.48 705 27.48"
horiz-adv-x="803.0"/>
<glyph unicode="n" glyph-name="n" d="M 111.04 471.72 C 106.57 403.15 78.24 276.44 60.36 200.41 C 42.47 124.38 24.58 24.5 24.58 24.5 C 24.58 24.5 79.74 330.1 119.98 361.41 C 160.23 392.71 237.75 421.04 275.02 412.09 C 312.29 403.15 362.97 386.75 397.26 331.59 C 431.55 276.44 441.98 258.55 437.51 189.97 C 433.04 121.4 422.6 12.58 422.6 12.58"
horiz-adv-x="504.0"/>
<glyph unicode="o" glyph-name="o" d="M 159.11 413.58 C 89.05 312.21 59.7 255.57 47.78 206.37 C 35.85 157.18 44.8 121.4 55.23 100.53 C 65.67 79.66 83.56 30.47 164.06 27.48 C 244.55 24.5 320.58 36.43 354.87 66.24 C 389.16 96.06 460.71 148.23 484.56 188.48 C 508.41 228.73 545.68 307.74 542.7 374.82 C 539.72 441.91 548.66 497.06 493.51 525.39 C 438.35 553.71 360.83 562.66 313.13 546.26 C 265.43 529.86 214.74 491.1 192.38 459.8 C 170.02 428.49 113.37 340.54 105.92 283.89 C 98.46 227.24 120.81 163.95 156.6 137.8 C 195.36 109.47 241.57 78.17 301.2 88.6 C 360.83 99.04 389.16 100.53 445.8 140.78"
horiz-adv-x="598.0"/>
<glyph unicode="p" glyph-name="p" d="M 61.41 77.22 C 124.02 45.92 170.86 28.98 209.62 34.94 C 248.38 40.9 312.48 64.75 327.38 102.02 C 342.29 139.29 378.07 267.49 370.62 312.21 C 363.16 356.94 324.4 425.51 246.89 431.47 C 169.37 437.44 127.63 407.62 100.79 380.79 C 73.96 353.95 60.54 301.78 60.54 245.13 C 60.54 188.48 57.56 48.35 54.58 -17.24 C 51.6 -82.83 38.18 -218.49 38.18 -218.49"
horiz-adv-x="410.0"/>
<glyph unicode="q" glyph-name="q" d="M 323.75 60.28 C 255.18 37.92 189.59 34.94 156.79 49.85 C 123.99 64.75 74.8 97.55 68.84 116.93 C 62.87 136.31 47.97 266 47.97 288.36 C 47.97 310.72 55.42 367.37 76.29 389.73 C 97.16 412.09 140.39 440.42 188.1 432.96 C 235.8 425.51 284.99 407.62 302.88 388.24 C 320.77 368.86 347.6 342.03 347.6 294.33 C 347.6 246.62 323.75 66.24 325.24 25.99 C 326.73 -14.26 320.77 -214.01 320.77 -214.01"
horiz-adv-x="424.0"/>
<glyph unicode="r" glyph-name="r" d="M 54.77 467.25 C 54.77 467.25 62.22 261.53 59.24 197.43 C 56.26 133.33 32.41 14.07 32.41 14.07 C 32.41 14.07 90.55 209.35 151.67 282.4 C 212.79 355.44 312.67 419.55 340.99 428.49 C 369.31 437.44 396.15 424.02 409.56 388.24"
horiz-adv-x="434.0"/>
<glyph unicode="s" glyph-name="s" d="M 300.09 362.9 C 300.09 362.9 197.23 455.32 167.41 468.74 C 137.6 482.16 95.86 486.63 80.95 465.76 C 66.04 444.89 39.21 386.75 39.21 365.88 C 39.21 345.01 64.55 315.2 83.93 294.33 C 103.31 273.45 207.66 181.03 240.46 155.69 C 273.26 130.34 313.5 90.1 313.5 79.66 C 313.5 69.22 315 48.35 288.16 39.41 C 261.33 30.47 219.59 23.01 182.32 33.45 C 145.05 43.88 64.55 67.73 21.32 102.02"
horiz-adv-x="362.0"/>
<glyph unicode="t" glyph-name="t" d="M 35.58 359.92 C 129.49 373.33 187.25 373.84 208.5 371.84 C 256.2 367.37 339.69 358.43 339.69 358.43 M 302.42 677.44 C 277.08 586.51 232.35 406.13 209.99 359.92 C 187.63 313.7 128.51 243.64 107.64 189.97 C 86.77 136.31 65.86 63.26 67.36 52.83 C 68.85 42.39 95.21 27.48 125.02 27.48 C 154.84 27.48 259.19 42.39 303.91 60.28 C 348.63 78.17 406.77 107.98 421.68 127.36"
horiz-adv-x="472.0"/>
<glyph unicode="u" glyph-name="u" d="M 72.19 486.63 C 49.83 415.07 31.95 306.25 28.96 240.66 C 25.98 175.07 31.95 106.49 64.74 81.15 C 97.54 55.81 158.66 37.92 213.81 61.77 C 268.97 85.62 321.15 137.8 352.45 192.96 C 383.76 248.11 431.46 471.72 431.46 471.72 C 431.46 471.72 394.19 207.86 391.21 160.16 C 388.23 112.46 407.61 9.6 462.77 31.96"
horiz-adv-x="623.0"/>
<glyph unicode="v" glyph-name="v" d="M 22.35 483.65 C 53.65 413.58 120.74 258.55 152.04 191.46 C 183.35 124.38 205.71 85.62 216.14 67.73 C 226.58 49.85 237.01 43.88 250.43 63.26 C 263.85 82.64 325.48 219.79 349.33 261.53 C 373.18 303.27 480 489.61 480 489.61"
horiz-adv-x="512.0"/>
<glyph unicode="w" glyph-name="w" d="M 21.7 485.14 C 47.04 424.02 190.15 79.66 205.06 61.77 C 219.97 43.88 222.95 30.47 246.8 76.68 C 270.65 122.89 415.25 410.6 427.18 434.45 C 439.1 458.31 454.01 455.32 468.92 424.02 C 483.82 392.71 609.05 90.1 626.93 69.22 C 644.82 48.35 643.33 25.99 668.68 72.21 C 694.02 118.42 832.66 415.07 877.38 485.14"
horiz-adv-x="904.0"/>
<glyph unicode="x" glyph-name="x" d="M 19.56 318.18 C 55.33 389.73 86.64 416.56 125.4 421.04 C 164.16 425.51 199.93 406.13 223.79 364.39 C 247.64 322.65 281.92 279.42 277.45 243.64 C 272.98 207.86 253.05 167.61 230.69 139.29 C 208.33 110.97 134.34 34.94 103.04 24.5 C 185.03 84.13 341.55 255.57 377.33 301.78 C 413.11 347.99 504.04 465.76 504.04 465.76 C 504.04 465.76 395.22 324.14 363.91 285.38 C 332.61 246.62 323.67 185.5 332.61 166.12 C 341.55 146.74 357.95 94.57 381.8 70.72 C 405.66 46.86 425.03 12.58 495.1 42.39"
horiz-adv-x="612.0"/>
<glyph unicode="y" glyph-name="y" d="M 132.2 458.31 C 93.44 415.07 63.63 356.94 60.65 304.76 C 57.66 252.58 53.19 167.61 62.14 142.27 C 71.08 116.93 85.99 96.06 136.67 96.06 C 187.36 96.06 255.93 115.44 312.58 158.67 C 369.23 201.9 416.93 271.96 439.29 312.21 C 461.65 352.46 500.41 461.29 500.41 461.29 C 500.41 461.29 421.4 285.38 413.95 178.05 C 406.49 70.72 403.51 -48.54 402.02 -87.3 C 400.53 -126.06 416.93 -255.75 334.94 -221.47 C 252.95 -187.18 190.34 -139.48 179.9 -127.55 C 169.47 -115.63 166.49 -84.32 187.36 -47.05 C 208.23 -9.78 229.1 5.12 229.1 5.12"
horiz-adv-x="557.0"/>
<glyph unicode="z" glyph-name="z" d="M 110.68 264.51 C 110.68 264.51 212.05 249.6 237.39 246.62 C 262.73 243.64 392.43 230.22 392.43 230.22 M 141.98 471.72 C 141.98 471.72 362.61 464.27 389.45 464.27 C 416.28 464.27 453.55 468.74 411.81 409.11 C 370.07 349.48 285.09 260.04 234.41 216.81 C 183.72 173.58 110.68 105 80.86 76.68 C 51.05 48.35 54.03 40.9 88.32 40.9 C 122.6 40.9 452.06 45.37 452.06 45.37"
horiz-adv-x="549.0"/>
<glyph unicode="{" glyph-name="{" d="M 326.18 631.23 C 235.25 628.25 177.11 611.85 171.15 568.62 C 165.18 525.39 172.64 422.53 160.71 403.15 C 148.79 383.77 138.35 345.01 113.01 333.08 C 87.67 321.16 57.85 319.67 57.85 319.67 C 57.85 319.67 139.84 312.21 157.73 285.38 C 175.62 258.55 186.05 227.24 189.04 178.05 C 192.02 128.85 192.02 75.19 193.51 42.39 C 195 9.6 217.36 2.14 250.16 -0.84 C 282.95 -3.82 333.64 -3.82 333.64 -3.82"
horiz-adv-x="376.5"/>
<glyph unicode="|" glyph-name="|" d="M 222.67 753.47 C 222.67 753.47 230.13 495.57 233.11 367.37 C 236.09 239.17 224.16 -51.52 224.16 -51.52"
horiz-adv-x="433.0"/>
<glyph unicode="}" glyph-name="}" d="M 55.06 623.78 C 123.63 623.78 208.6 632.72 217.55 525.39 C 226.49 418.06 222.02 376.32 262.27 350.97 C 302.52 325.63 318.92 321.16 318.92 321.16 C 318.92 321.16 266.74 315.2 236.93 297.31 C 207.11 279.42 195.19 230.22 195.19 188.48 C 195.19 146.74 198.17 93.08 195.19 61.77 C 192.21 30.47 177.3 6.61 144.5 2.14 C 111.71 -2.33 52.08 -3.82 52.08 -3.82"
horiz-adv-x="376.5"/>
<glyph unicode="~" glyph-name="~" d="M 63.35 182.52 C 90.19 249.6 118.51 345.01 172.18 309.23 C 225.84 273.45 288.45 222.77 325.72 216.81 C 362.99 210.84 398.77 222.77 419.64 246.62 C 440.51 270.47 458.4 334.57 458.4 385.26"
horiz-adv-x="536.5"/>
<glyph unicode="Д" glyph-name="Д" d="M 388.6 661.39 C 349.54 528.58 277.67 387.95 246.42 302.01 C 215.17 216.08 104.23 78.58 104.23 78.58 C 104.23 78.58 207.35 206.7 235.48 219.2 C 263.6 231.7 310.48 233.26 330.79 195.76 C 351.1 158.26 377.67 87.95 404.23 69.2 C 430.79 50.45 487.04 16.08 577.67 36.39 C 668.29 56.7 732.35 73.89 762.04 147.33 C 791.73 220.76 807.35 367.64 768.29 441.08 C 729.23 514.51 618.29 612.95 574.54 636.39 C 530.79 659.83 362.04 677.01 288.6 661.39 C 215.17 645.76 133.92 606.7 94.85 556.7 C 55.79 506.7 29.23 447.33 44.85 370.76 C 60.48 294.2 77.67 261.39 129.23 230.14 C 180.79 198.89 227.67 214.51 227.67 214.51"
horiz-adv-x="871.0"/>
<glyph unicode="Г" glyph-name="Г" d="M 28.25 9.09 C 34.5 91.9 86.06 570.02 90.75 598.15 C 95.44 626.27 100.13 665.34 154.81 668.46 C 209.5 671.59 607.94 641.9 607.94 641.9"
horiz-adv-x="557.0"/>
<glyph unicode="В" glyph-name="В" d="M 224.83 655.42 C 226.39 567.92 227.96 552.3 181.08 421.05 C 134.21 289.8 40.46 17.92 40.46 17.92 C 40.46 17.92 218.58 527.3 249.83 574.17 C 281.08 621.05 346.71 699.17 382.64 711.67 C 418.58 724.17 460.77 731.98 501.39 699.17 C 542.02 666.36 537.33 625.73 526.39 589.8 C 515.46 553.86 477.96 461.67 470.14 439.8 C 462.33 417.92 429.52 374.17 401.39 367.92 C 373.27 361.67 343.58 353.86 331.08 364.8 C 318.58 375.73 317.02 391.36 340.46 408.55 C 363.89 425.73 406.08 433.55 426.39 433.55 C 446.71 433.55 510.77 405.42 538.89 380.42 C 567.02 355.42 626.39 288.23 615.46 217.92 C 604.52 147.61 567.02 97.61 532.64 72.61 C 498.27 47.61 398.27 21.05 337.33 25.73 C 276.39 30.42 217.02 44.48 202.96 63.23 C 188.89 81.98 193.58 116.36 199.83 136.67"
horiz-adv-x="653.0"/>
<glyph unicode="Б" glyph-name="Б" d="M 235.63 244.2 C 263.76 302.01 298.13 328.58 320.01 333.26 C 341.88 337.95 384.07 348.89 416.88 327.01 C 449.69 305.14 449.69 241.08 455.94 222.33 C 462.19 203.58 474.69 120.76 455.94 91.08 C 437.19 61.39 340.32 16.08 290.32 19.2 C 240.32 22.33 209.07 61.39 240.32 91.08 C 271.57 120.76 318.44 131.7 365.32 131.7 C 412.19 131.7 746.57 119.2 746.57 119.2 M 249.69 550.45 C 215.32 367.64 196.57 281.7 168.44 211.39 C 140.32 141.08 80.94 67.64 71.57 91.08 C 62.19 114.51 76.26 197.33 98.13 270.76 C 120.01 344.2 259.07 564.51 277.82 587.95 C 296.57 611.39 346.57 653.58 407.51 686.39 C 468.44 719.2 537.19 723.89 563.76 720.76 C 590.32 717.64 637.19 670.76 649.69 648.89 C 662.19 627.01 682.51 586.39 682.51 586.39"
horiz-adv-x="752.0"/>
<glyph unicode="А" glyph-name="А" d="M 322.67 319.44 C 266.42 394.44 225.79 438.19 157.04 381.94 C 88.29 325.69 41.42 272.56 36.73 203.81 C 32.04 135.06 44.54 91.31 74.23 64.75 C 103.92 38.19 169.54 24.12 241.42 53.81 C 313.29 83.5 353.92 108.5 388.29 161.62 C 422.67 214.75 513.29 367.87 533.6 427.25 C 553.92 486.62 596.1 625.69 622.67 660.06 C 649.23 694.44 680.48 702.25 702.35 658.5 C 724.23 614.75 725.79 574.12 710.17 517.87 C 694.54 461.62 557.04 130.37 557.04 130.37 C 557.04 130.37 655.48 358.5 632.04 396 C 608.6 433.5 538.29 528.81 486.73 556.94 C 435.17 585.06 339.85 616.31 267.98 600.69 C 196.1 585.06 111.73 550.69 88.29 525.69 C 64.85 500.69 21.1 455.37 72.67 424.12 C 124.23 392.87 374.23 399.12 374.23 399.12"
horiz-adv-x="762.0"/>
<glyph unicode="Ё" glyph-name="Ё" d="M 395.88 808.63 C 392.6 814.98 384.28 814.16 376.5 811.61 C 368.72 809.06 356.59 798.5 355.63 790.74 C 354.68 782.98 357.9 777.58 364.58 775.83 C 371.26 774.09 380.02 782.02 385.45 787.76 C 390.87 793.49 399.17 802.27 395.88 808.63 Z M 155.88 801.17 C 149.64 803.6 132.01 795.98 124.57 789.25 C 117.13 782.52 108.8 772.64 112.64 765.4 C 116.49 758.15 127.62 760.84 135.01 762.41 C 142.39 763.99 150.14 768.34 154.38 774.34 C 158.63 780.34 159.44 790.58 158.86 795.21 C 158.27 799.84 162.11 798.74 155.88 801.17 Z M 354.14 628.25 C 360.11 675.95 351.16 723.66 322.84 722.16 C 294.51 720.67 203.58 696.82 136.5 634.21 C 69.41 571.6 57.49 480.67 54.51 456.81 C 51.52 432.96 56 352.46 81.34 327.12 C 106.68 301.78 132.02 286.87 161.84 280.91 C 191.65 274.95 252.77 277.93 270.66 288.36 C 288.55 298.8 316.87 330.1 306.44 350.97 C 296 371.84 269.17 377.81 243.83 371.84 C 218.49 365.88 184.2 346.5 136.5 286.87 C 88.79 227.24 72.39 198.92 64.94 166.12 C 57.49 133.33 60.47 67.73 72.39 52.83 C 84.32 37.92 126.06 28.98 151.4 28.98 C 176.75 28.98 345.2 28.98 345.2 28.98"
horiz-adv-x="442.0"/>
<glyph unicode="Е" glyph-name="Е" d="M 370.93 617.81 C 370.93 617.81 383.35 662.53 378.39 678.93 C 373.43 695.33 374.28 702.29 351.55 710.24 C 328.83 718.19 285.54 704.65 250.18 690.86 C 214.82 677.07 174.76 655.89 144.34 625.27 C 113.92 594.64 88.38 551.04 74.28 510.48 C 60.17 469.93 53.99 422.58 59.37 388.24 C 64.75 353.91 76.64 329.47 95.15 310.72 C 113.65 291.98 136.08 285 160.74 279.42 C 185.4 273.84 215.92 274.17 239.75 279.42 C 263.57 284.67 291.06 293.02 300.87 307.74 C 310.68 322.47 308.55 333.81 302.36 346.5 C 296.16 359.19 284.22 369.76 265.09 373.33 C 245.95 376.9 223.65 380.35 196.52 355.45 C 169.39 330.54 118.36 289.79 87.69 251.09 C 71.27 229.77 60.67 207.59 51.92 184.01 C 43.17 160.43 34.26 134.17 35.52 110.97 C 36.77 87.76 35.5 67.56 56.39 49.85 C 77.28 32.13 111.31 38.85 154.78 33.45 C 198.24 28.04 317.27 20.03 317.27 20.03"
horiz-adv-x="415.0"/>
<glyph unicode="Ж" glyph-name="Ж" d="M -5.38 407.62 C 14 498.56 64.68 580.55 100.46 599.92 C 136.24 619.3 183.94 637.19 219.72 599.92 C 255.5 562.66 310.65 517.93 313.63 418.06 C 316.61 318.18 295.74 274.95 271.89 228.73 C 248.04 182.52 188.41 12.58 188.41 12.58 C 188.41 12.58 327.05 377.81 376.24 432.96 C 425.44 488.12 470.16 531.35 488.05 520.92 C 505.94 510.48 523.83 495.57 519.35 438.93 C 514.88 382.28 504.45 243.64 507.43 212.33 C 510.41 181.03 507.43 128.85 549.17 128.85 C 590.91 128.85 683.33 189.97 716.13 221.28 C 748.93 252.58 836.88 374.82 863.71 441.91 C 890.55 508.99 914.4 605.89 914.4 605.89 C 914.4 605.89 824.95 349.48 821.97 313.7 C 818.99 277.93 829.43 233.21 875.64 192.96 C 921.85 152.71 1030.67 118.42 1057.51 118.42"
horiz-adv-x="1045.0"/>
<glyph unicode="З" glyph-name="З" d="M 89.37 522.41 C 137.08 607.38 184.78 650.61 225.03 661.04 C 265.28 671.48 305.53 680.42 327.89 649.12 C 350.25 617.81 360.69 579.05 324.91 535.82 C 289.13 492.59 251.86 476.19 204.16 458.31 C 156.46 440.42 117.7 434.45 117.7 434.45 C 117.7 434.45 178.82 446.38 211.61 415.07 C 244.41 383.77 287.64 333.08 302.55 280.91 C 317.45 228.73 320.44 152.71 296.58 109.47 C 272.73 66.24 220.56 23.01 172.85 23.01 C 125.15 23.01 71.48 36.43 44.65 64.75 C 17.82 93.08 11.85 122.89 8.87 166.12"
horiz-adv-x="486.0"/>
<glyph unicode="И" glyph-name="И" d="M -2.21 319.67 C -5.2 416.56 2.26 473.21 41.02 506.01 C 79.78 538.8 124.5 576.07 193.07 607.38 C 261.65 638.68 342.15 647.63 361.52 647.63 C 380.9 647.63 416.68 638.68 400.28 598.43 C 383.89 558.18 307.86 431.47 284.01 394.2 C 260.15 356.94 160.28 204.88 148.35 166.12 C 136.42 127.36 133.44 76.68 145.37 60.28 C 157.29 43.88 202.02 31.96 251.21 43.88 C 300.4 55.81 377.92 84.13 421.15 107.98 C 464.38 131.84 558.3 194.45 585.13 219.79 C 611.97 245.13 685.01 312.21 711.85 355.44 C 738.68 398.68 780.42 532.84 787.87 564.15 C 795.33 595.45 798.31 702.79 743.15 641.67 C 687.99 580.55 628.37 476.19 608.99 427 C 589.61 377.81 550.85 276.44 540.41 239.17 C 529.98 201.9 543.39 136.31 552.34 110.97 C 561.28 85.62 567.25 37.92 631.35 51.34 C 695.45 64.75 889.24 125.87 889.24 125.87"
horiz-adv-x="874.0"/>
<glyph unicode="Й" glyph-name="Й" d="M 502.49 573.09 C 486.1 619.3 489.08 671.48 511.44 704.28 C 533.8 737.07 633.68 743.03 654.55 731.11 C 675.42 719.18 682.87 704.28 675.42 667.01 C 667.96 629.74 651.57 601.42 651.57 601.42 M 28.44 307.74 C 22.48 403.15 47.82 476.19 77.64 498.56 C 107.45 520.92 196.89 583.53 274.41 602.91 C 351.93 622.29 460.75 652.1 405.6 552.22 C 350.44 452.34 193.91 219.79 180.49 164.63 C 167.08 109.47 144.72 24.5 231.18 34.94 C 317.64 45.37 396.65 81.15 451.81 110.97 C 506.96 140.78 657.53 271.96 703.74 321.16 C 749.95 370.35 791.69 497.06 797.66 556.69 C 803.62 616.32 794.68 664.03 736.54 610.36 C 678.4 556.69 611.32 401.66 593.43 337.56 C 575.54 273.45 550.2 219.79 560.63 157.18 C 571.07 94.57 581.5 42.39 617.28 45.37 C 653.06 48.35 833.43 97.55 878.16 118.42"
horiz-adv-x="871.0"/>
<glyph unicode="К" glyph-name="К" d="M 200.71 70.72 C 240.96 169.1 269.29 221.28 308.05 246.62 C 346.81 271.96 384.07 295.82 412.4 286.87 C 440.72 277.93 466.06 249.6 452.65 194.45 C 439.23 139.29 419.85 84.13 425.81 61.77 C 431.78 39.41 446.68 27.48 477.99 30.47 C 509.29 33.45 612.15 55.81 637.5 63.26 C 662.84 70.72 734.4 112.46 734.4 112.46 M 23.32 504.52 C 17.35 555.2 26.3 577.56 32.26 595.45 C 38.22 613.34 53.13 625.27 53.13 625.27 C 53.13 625.27 54.62 579.05 63.57 565.64 C 72.51 552.22 95.42 506.95 126.72 511.43 C 158.03 515.9 199.22 535.82 218.6 550.73 C 237.98 565.64 281.21 677.44 287.18 713.22 C 293.14 749 255.87 583.53 251.4 552.22 C 246.93 520.92 272.27 401.66 269.29 342.03 C 266.31 282.4 239.47 121.4 194.75 61.77 C 150.03 2.14 108.29 5.12 81.46 40.9 C 54.62 76.68 53.13 116.93 93.38 160.16 C 133.63 203.39 267.8 319.67 318.48 362.9 C 369.17 406.13 644.95 653.59 655.39 667.01 C 665.82 680.42 692.66 702.79 712.03 646.14"
horiz-adv-x="667.0"/>
<glyph unicode="Л" glyph-name="Л" d="M 95.71 374.82 C 45.03 307.74 19.68 237.68 28.63 155.69 C 37.57 73.7 55.46 15.56 88.26 27.48 C 121.05 39.41 232.86 116.93 274.6 158.67 C 316.34 200.41 423.67 313.7 456.47 371.84 C 489.26 429.98 613 683.41 613 683.41 C 613 683.41 419.2 313.7 414.73 264.51 C 410.26 215.32 419.2 142.27 447.52 112.46 C 475.85 82.64 520.57 66.24 572.75 75.19 C 624.92 84.13 699.46 110.97 715.86 121.4"
horiz-adv-x="687.0"/>
<glyph unicode="М" glyph-name="М" d="M 270.97 288.36 C 194.94 342.03 159.16 365.88 111.46 340.54 C 63.76 315.2 45.87 267.49 36.92 218.3 C 27.98 169.1 25 112.46 36.92 94.57 C 48.85 76.68 74.19 55.81 132.33 57.3 C 190.47 58.79 245.62 72.21 282.89 106.49 C 320.16 140.78 415.57 268.98 455.82 328.61 C 496.07 388.24 606.38 601.42 618.31 628.25 C 630.23 655.08 657.07 680.42 676.45 671.48 C 695.83 662.54 722.66 662.54 700.3 593.96 C 677.94 525.39 592.96 373.33 557.19 318.18 C 521.41 263.02 481.16 192.96 484.14 149.72 C 487.12 106.49 503.52 84.13 552.71 100.53 C 601.91 116.93 692.84 184.01 758.44 251.09 C 824.03 318.18 961.18 455.32 983.54 480.67 C 1005.9 506.01 1055.09 599.92 1059.56 644.65 C 1064.04 689.37 1059.56 692.35 1025.28 668.5 C 990.99 644.65 946.27 580.55 928.38 528.37 C 910.49 476.19 880.68 300.29 862.79 233.21 C 844.9 166.12 821.05 81.15 831.48 57.3 C 841.92 33.45 871.73 17.05 916.45 37.92 C 961.18 58.79 1061.05 116.93 1061.05 116.93"
horiz-adv-x="1033.0"/>
<glyph unicode="Н" glyph-name="Н" d="M 334.42 710.24 C 265.84 571.6 200.25 383.77 179.38 318.18 C 158.51 252.58 119.75 97.55 107.83 69.22 C 95.9 40.9 31.8 -17.24 13.91 31.96 C -3.98 81.15 12.42 115.44 24.35 143.76 C 36.27 172.09 67.58 242.15 92.92 263.02 C 118.26 283.89 160 298.8 225.59 286.87 C 291.19 274.95 389.57 295.82 444.73 321.16 C 499.89 346.5 578.9 413.58 622.13 477.68 C 665.36 541.79 719.03 629.74 714.55 671.48 C 710.08 713.22 689.21 746.02 650.45 698.31 C 611.69 650.61 538.65 520.92 513.3 452.34 C 487.96 383.77 479.02 307.74 483.49 257.06 C 487.96 206.37 508.83 136.31 532.68 99.04 C 556.54 61.77 578.9 30.47 625.11 49.85 C 671.32 69.22 811.45 131.84 811.45 131.84"
horiz-adv-x="789.0"/>
<glyph unicode="О" glyph-name="О" d="M 86.3 355.45 C 35.62 258.55 32.64 200.41 37.11 158.67 C 41.58 116.93 59.47 63.26 114.63 42.39 C 169.79 21.52 266.68 14.07 323.33 34.94 C 379.98 55.81 491.78 158.67 532.03 206.37 C 572.28 254.08 624.46 422.53 628.93 483.65 C 633.4 544.77 618.5 637.19 582.72 671.48 C 546.94 705.77 435.14 740.05 371.03 723.66 C 306.93 707.26 213.02 611.85 177.24 550.73 C 141.46 489.61 96.74 371.84 98.23 330.1 C 99.72 288.36 129.53 200.41 162.33 175.07 C 195.13 149.72 254.76 109.47 309.91 106.49 C 365.07 103.51 561.85 43.88 636.38 64.75 C 710.92 85.62 821.23 125.87 821.23 125.87"
horiz-adv-x="814.0"/>
<glyph unicode="П" glyph-name="П" d="M 139.32 497.06 C 133.36 571.6 145.28 589.49 163.17 617.81 C 181.06 646.14 228.76 692.35 288.39 705.77 C 348.02 719.18 437.47 726.64 473.24 717.69 C 509.02 708.75 534.36 695.33 534.36 640.17 C 534.36 585.02 537.34 531.35 532.87 500.05 C 528.4 468.74 526.91 435.94 559.71 428.49 C 592.5 421.04 677.47 421.04 702.82 431.47 M 500.08 392.71 C 500.08 392.71 467.28 295.82 440.45 231.71 C 413.61 167.61 365.91 60.28 365.91 60.28 M 418.09 510.48 C 403.18 434.45 365.91 321.16 321.19 242.15 C 276.47 163.14 198.95 54.32 139.32 42.39 C 79.69 30.47 29.01 51.34 24.53 105 C 20.06 158.67 33.48 243.64 60.31 266"
horiz-adv-x="757.0"/>
<glyph unicode="Р" glyph-name="Р" d="M 162.52 687.88 C 161.03 535.82 166.99 412.09 153.57 356.94 C 140.16 301.78 102.89 195.94 74.57 124.38 C 46.24 52.83 26.86 25.99 26.86 25.99 C 26.86 25.99 14.94 121.4 23.88 173.58 C 32.83 225.75 68.6 367.37 90.96 407.62 C 113.33 447.87 193.82 589.49 222.15 638.68 C 250.47 687.88 325.01 723.66 357.8 722.16 C 390.6 720.67 439.79 684.9 472.59 619.3 C 505.39 553.71 517.31 471.72 508.37 419.55 C 499.42 367.37 487.5 322.65 435.32 307.74 C 383.15 292.83 296.68 286.87 266.87 309.23 C 237.06 331.59 216.19 385.26 217.68 407.62 C 219.17 429.98 244.51 465.76 259.42 473.21"
horiz-adv-x="544.0"/>
<glyph unicode="С" glyph-name="С" d="M 348.21 511.97 C 382.5 543.28 394.42 622.29 376.53 643.16 C 358.65 664.03 300.51 695.33 254.29 669.99 C 208.08 644.65 153 607.42 106.79 520.95 C 60.57 434.49 33.67 367.37 29.19 315.2 C 24.72 263.02 23.23 185.5 41.12 149.72 C 59.01 113.95 102.24 66.24 145.47 51.34 C 188.7 36.43 283.56 30.47 320.83 37.92 C 358.1 45.37 410.82 105 410.82 105"
horiz-adv-x="448.0"/>
<glyph unicode="Т" glyph-name="Т" d="M 286.44 710.24 C 286.44 710.24 284.95 613.34 276 526.88 C 267.06 440.42 244.7 289.85 231.28 239.17 C 217.86 188.48 159.73 54.32 138.86 14.07 M 18.11 711.73 L 620.36 713.22"
horiz-adv-x="602.0"/>
<glyph unicode="У" glyph-name="У" d="M 57.71 687.88 C 33.85 526.88 26.4 438.93 27.89 412.09 C 29.38 385.26 24.91 367.37 78.58 349.48 C 132.24 331.59 179.95 322.65 233.61 342.03 C 287.28 361.41 393.12 424.02 406.54 429.98 C 419.95 435.94 439.33 453.83 443.8 492.59 C 448.28 531.35 455.73 620.79 446.79 637.19 C 437.84 653.59 412.5 662.54 390.14 632.72 C 367.78 602.91 367.78 583.53 361.81 532.84 C 355.85 482.16 333.49 157.18 332 128.85 C 330.51 100.53 324.55 64.75 299.2 45.37 C 273.86 25.99 220.2 25.99 190.38 46.86 C 160.57 67.73 123.3 121.4 111.37 145.25 C 99.45 169.1 102.43 191.46 102.43 191.46"
horiz-adv-x="479.0"/>
<glyph unicode="Ф" glyph-name="Ф" d="M 346.26 318.18 C 371.6 413.58 373.09 544.77 367.13 588 C 361.16 631.23 323.89 702.79 231.47 668.5 C 139.04 634.21 88.36 588 55.56 495.57 C 22.77 403.15 13.82 350.97 30.22 315.2 C 46.62 279.42 74.94 243.64 131.59 260.04 C 188.24 276.44 276.19 307.74 306.01 331.59 C 335.82 355.45 399.92 462.78 414.83 501.54 C 429.74 540.3 468.5 680.42 468.5 680.42 L 234.45 12.58 C 234.45 12.58 362.65 370.35 395.45 425.51 C 428.25 480.67 522.16 602.91 565.39 635.7 C 608.62 668.5 698.07 702.79 747.26 678.93 C 796.46 655.08 799.44 596.94 768.13 511.97 C 736.83 427 686.14 347.99 625.02 324.14 C 563.9 300.29 511.73 306.25 501.29 322.65 C 490.86 339.05 481.91 361.41 481.91 361.41"
horiz-adv-x="834.0"/>
<glyph unicode="Х" glyph-name="Х" d="M 8.7 379.3 C 37.02 462.78 86.22 576.07 126.47 605.89 C 166.72 635.7 209.95 671.48 244.23 664.03 C 278.52 656.57 309.83 629.74 302.37 528.37 C 294.92 427 282.99 343.52 236.78 268.98 C 190.57 194.45 80.25 25.99 80.25 25.99 C 80.25 25.99 250.2 312.21 282.99 347.99 C 315.79 383.77 531.95 672.97 531.95 672.97 C 531.95 672.97 364.98 449.36 345.6 392.71 C 326.23 336.07 327.72 234.7 338.15 186.99 C 348.59 139.29 388.84 78.17 433.56 63.26 C 478.28 48.35 549.83 30.47 615.43 39.41"
horiz-adv-x="647.0"/>
<glyph unicode="Ц" glyph-name="Ц" d="M 40.84 435.94 C 40.84 435.94 145.2 619.3 160.1 643.16 C 175.01 667.01 221.22 696.82 242.09 678.93 C 262.96 661.04 300.23 580.55 261.47 510.48 C 222.71 440.42 100.47 263.02 81.09 212.33 C 61.71 161.65 49.79 82.64 82.58 66.24 C 115.38 49.85 186.94 60.28 227.19 93.08 C 267.44 125.87 416.51 274.95 462.72 336.07 C 508.93 397.19 584.96 540.3 589.43 583.53 C 593.91 626.76 610.3 717.69 547.69 674.46 C 485.08 631.23 432.91 526.88 407.56 465.76 C 382.22 404.64 338.99 300.29 330.05 242.15 C 321.1 184.01 362.84 167.61 383.71 161.65 C 404.58 155.69 464.21 124.38 474.65 76.68 C 485.08 28.98 480.61 -38.11 462.72 -64.94 C 444.83 -91.77 380.73 -136.5 349.43 -111.15 C 318.12 -85.81 303.21 -15.75 327.06 24.5 C 350.92 64.75 428.43 121.4 452.29 134.82 C 476.14 148.23 543.22 148.23 565.58 142.27 C 587.94 136.31 640.12 116.93 640.12 116.93"
horiz-adv-x="641.0"/>
<glyph unicode="Ч" glyph-name="Ч" d="M 44.67 511.97 C 62.55 595.45 96.84 658.06 123.67 672.97 C 150.51 687.88 207.15 702.79 229.52 693.84 C 251.88 684.9 272.75 662.54 241.44 599.92 C 210.14 537.31 58.08 353.95 37.21 325.63 C 16.34 297.31 10.38 246.62 59.57 246.62 C 108.77 246.62 201.19 274.95 248.9 291.34 C 296.6 307.74 429.27 409.11 475.49 444.89 C 521.7 480.67 591.76 577.56 605.18 625.27 C 618.6 672.97 624.56 708.75 567.91 667.01 C 511.26 625.27 436.73 540.3 412.88 488.12 C 389.02 435.94 315.98 303.27 295.11 252.58 C 274.24 201.9 259.33 148.23 262.31 106.49 C 265.29 64.75 310.02 25.99 350.27 28.98 C 390.51 31.96 471.01 49.85 512.75 70.72 C 554.5 91.59 634.99 137.8 634.99 137.8"
horiz-adv-x="656.0"/>
<glyph unicode="Ш" glyph-name="Ш" d="M 41.03 428.49 C 96.19 543.28 136.44 625.27 170.73 662.54 C 205.01 699.8 264.64 701.29 269.11 622.29 C 273.59 543.28 254.21 491.1 178.18 374.82 C 102.15 258.55 78.3 195.94 64.88 154.2 C 51.47 112.46 70.85 48.35 133.46 55.81 C 196.07 63.26 285.51 142.27 342.16 197.43 C 398.81 252.58 488.25 371.84 528.5 441.91 C 568.75 511.97 603.04 619.3 594.09 637.19 C 585.15 655.08 571.73 698.31 529.99 647.63 C 488.25 596.94 422.66 510.48 392.84 437.44 C 363.03 364.39 321.29 228.73 325.76 203.39 C 330.23 178.05 345.14 163.14 382.41 151.21 C 419.68 139.29 504.65 124.38 544.9 140.78 C 585.15 157.18 723.79 322.65 764.04 374.82 C 804.29 427 854.97 532.84 860.93 585.02 C 866.9 637.19 878.82 711.73 810.25 655.08 C 741.68 598.43 711.86 534.33 683.54 476.19 C 655.21 418.06 609 291.34 606.02 249.6 C 603.04 207.86 659.69 143.76 698.44 115.44 C 737.2 87.11 786.4 58.79 838.57 81.15 C 890.75 103.51 914.6 143.76 914.6 143.76"
horiz-adv-x="907.0"/>
<glyph unicode="Щ" glyph-name="Щ" d="M 41.87 431.47 C 76.16 511.97 131.32 596.94 156.66 635.7 C 182 674.46 214.8 698.31 244.61 671.48 C 274.43 644.65 284.86 602.91 272.94 567.13 C 261.01 531.35 216.29 441.91 189.45 397.19 C 162.62 352.46 94.05 251.09 77.65 198.92 C 61.25 146.74 49.33 76.68 92.56 63.26 C 135.79 49.85 243.12 94.57 290.82 146.74 C 338.53 198.92 450.33 318.18 490.58 377.81 C 530.83 437.44 562.14 492.59 577.04 552.22 C 591.95 611.85 614.31 708.75 539.78 652.1 C 465.24 595.45 426.48 523.9 398.16 446.38 C 369.83 368.86 337.04 291.34 329.58 243.64 C 322.13 195.94 328.09 161.65 389.21 142.27 C 450.33 122.89 524.87 107.98 593.44 173.58 C 662.02 239.17 749.97 352.46 788.73 418.06 C 827.49 483.65 870.72 582.04 869.23 625.27 C 867.74 668.5 858.79 689.37 817.05 661.04 C 775.31 632.72 679.9 476.19 653.07 413.58 C 626.24 350.97 600.9 270.47 603.88 236.19 C 606.86 201.9 614.31 188.48 665 157.18 C 715.68 125.87 741.02 103.51 751.46 54.32 C 761.89 5.12 746.99 -51.52 732.08 -79.85 C 717.17 -108.17 667.98 -131.99 633.69 -120.06 C 599.41 -108.13 572.57 -76.87 584.5 -38.11 C 596.42 0.65 632.2 61.77 660.53 79.66 C 688.85 97.55 743.02 141.8 775.82 146.27 C 808.62 150.74 905 119.91 905 119.91"
horiz-adv-x="888.0"/>
<glyph unicode="Ъ" glyph-name="Ъ" d="M -3.5 628.25 C -48.22 659.55 -98.91 723.66 -58.66 732.6 C -18.41 741.54 53.15 744.53 99.36 741.54 C 145.57 738.56 158.99 746.02 153.03 683.41 C 147.06 620.79 147.06 529.86 123.21 468.74 C 99.36 407.62 62.22 345.03 57.62 277.93 C 53.57 218.81 57.11 151.47 91.91 103.51 C 117.65 68.05 163.18 44.64 206.69 39.41 C 254.81 33.62 309.07 47.78 346.82 78.17 C 379.2 104.23 398.87 147.37 404.96 188.48 C 411.49 232.54 403.32 281.96 379.62 319.67 C 353.92 360.56 310.33 394.95 263.34 406.13 C 218.2 416.87 166.3 405.62 126.19 382.28 C 97.82 365.77 63.58 306.25 63.58 306.25"
horiz-adv-x="443.0"/>
<glyph unicode="Ы" glyph-name="Ы" d="M 222.44 677.44 C 165.14 563.68 92.02 414.73 55.48 273.45 C 41.66 220.04 36.08 157.73 59.95 107.98 C 76.57 73.34 110.51 42.31 147.9 33.45 C 178.74 26.13 213.13 39.53 240.33 55.81 C 272.94 75.32 295.95 108.71 316.35 140.78 C 336.07 171.78 350.88 206.46 359.59 242.15 C 365.85 267.81 369.66 295.07 365.55 321.16 C 361.46 347.14 354.74 376.03 335.73 394.2 C 314.38 414.63 281.46 428.48 252.25 424.02 C 219.63 419.03 192.84 390.94 173.24 364.39 C 151.58 335.05 136.85 297.99 135.98 261.53 C 135.3 232.93 141.83 200.48 161.32 179.54 C 182.75 156.5 218.2 150.22 249.27 145.25 C 285.15 139.52 322.68 143.12 358.1 151.21 C 395.88 159.85 431.29 177.58 465.43 195.94 C 496.02 212.39 530.49 226.72 551.89 254.08 C 573.39 281.56 575.87 319.62 587.67 352.46 C 601.23 390.18 613.14 428.51 627.92 465.76 C 641.13 499.06 656.46 531.48 671.15 564.15 C 685.29 595.58 714.38 658.06 714.38 658.06 C 714.38 658.06 640.63 500.08 611.52 418.06 C 591.48 361.58 564.59 305.02 562.33 245.13 C 561.49 222.83 566.77 199.97 575.74 179.54 C 584.61 159.33 598.88 141.46 614.5 125.87 C 625.33 115.06 637.64 104.92 651.77 99.04 C 671.3 90.91 693.24 89.49 714.38 88.6 C 738.79 87.58 763.37 90.34 787.43 94.57 C 820.91 100.45 885.81 121.4 885.81 121.4"
horiz-adv-x="872.0"/>
<glyph unicode="Ь" glyph-name="Ь" d="M 162.16 726.64 C 153.21 562.66 141.27 554.28 120.42 470.23 C 108.8 423.41 87.62 379.42 74.21 333.08 C 64.26 298.7 47.87 264.51 48.86 228.73 C 49.96 189.29 60.99 148.08 83.15 115.44 C 98.84 92.32 123.79 75.83 148.74 63.26 C 181.36 46.83 218.18 31.93 254.58 34.94 C 290.48 37.91 326.65 55.06 352.97 79.66 C 376.47 101.63 391.24 133.34 398.71 164.63 C 407.95 203.31 407.73 245.98 395.73 283.89 C 383.65 322.04 362.36 361.49 329.12 383.77 C 296.28 405.78 252.34 408.8 212.84 407.15 C 181.31 405.83 148.71 397.45 121.91 380.79 C 101.9 368.35 74.21 328.61 74.21 328.61"
horiz-adv-x="452.0"/>
<glyph unicode="Э" glyph-name="Э" d="M 185.36 352.46 C 185.36 352.46 277.66 338.54 324 333.08 C 381.01 326.38 495.43 316.69 495.43 316.69 M 83.99 425.51 C 83.99 425.51 115.29 518.99 142.13 559.67 C 162.84 591.07 189.66 618.96 219.65 641.67 C 247.83 662.99 279.55 681.28 313.56 690.86 C 349.51 700.99 389.56 708.94 425.37 698.31 C 456.33 689.12 483.59 666.08 502.88 640.17 C 520.91 615.97 529.31 584.99 534.19 555.2 C 539.9 520.37 536.34 484.28 531.21 449.36 C 524.56 404.04 512.2 359.31 495.43 316.69 C 481.03 280.07 460.2 246.25 440.27 212.33 C 422.25 181.68 405.92 149.32 382.13 122.89 C 359.45 97.68 333.44 73.99 303.13 58.79 C 265.1 39.72 221.81 30.85 179.4 27.48 C 146.08 24.84 110.12 22.97 79.52 36.43 C 58.59 45.63 36.94 61.26 28.83 82.64 C 18.91 108.81 24.41 141.54 37.78 166.12 C 49.09 186.91 70.94 202.09 92.93 210.84 C 117.01 220.43 144.55 215.81 170.45 216.81 C 200.74 217.97 229.29 216.39 259.39 212.81 C 274.11 211.06 304.62 206.37 304.62 206.37"
horiz-adv-x="578.0"/>
<glyph unicode="Ю" glyph-name="Ю" d="M 119.12 638.68 C 119.12 638.68 95.71 428.66 80.36 324.14 C 64.91 218.9 26.69 9.6 26.69 9.6 L 59.49 200.41 C 59.49 200.41 137.38 199.27 175.76 204.88 C 211.3 210.07 246.38 219.38 280.11 231.71 C 324.15 247.82 406.83 292.83 406.83 292.83 C 406.83 292.83 423.09 385.01 439.62 428.49 C 458.03 476.91 479.9 525.53 512.67 565.64 C 538.35 597.07 571.58 622.61 606.58 643.16 C 633.72 659.09 663.08 676.66 694.54 677.44 C 729.1 678.31 764.38 664.14 792.93 644.65 C 818.57 627.14 836.47 599.65 852.55 573.09 C 874.01 537.64 888.65 498.08 900.26 458.31 C 910.72 422.47 917.48 385.26 919.64 347.99 C 921.63 313.7 922.8 278.24 913.67 245.13 C 902.8 205.71 883.23 167.7 857.03 136.31 C 837.28 112.65 811.07 94.34 783.98 79.66 C 747.91 60.12 708.5 43.66 667.7 39.41 C 624.36 34.9 578.25 39.08 538.01 55.81 C 498.45 72.25 459.11 98.34 436.64 134.82 C 408.48 180.53 405.34 292.83 405.34 292.83"
horiz-adv-x="1037.0"/>
<glyph unicode="Я" glyph-name="Я" d="M 29.02 255.57 C 27.53 169.1 30.51 127.36 43.93 99.04 C 57.34 70.72 91.63 39.41 133.37 34.94 C 175.11 30.47 248.16 49.85 279.46 72.21 C 310.77 94.57 355.49 160.16 368.91 200.41 C 382.32 240.66 409.16 336.07 422.57 380.79 C 435.99 425.51 480.71 467.25 501.58 494.08 C 522.45 520.92 538.85 565.64 526.92 602.91 C 515 640.17 497.11 672.97 453.88 662.54 C 410.65 652.1 379.34 631.23 365.93 608.87 C 352.51 586.51 346.55 550.73 367.42 526.88 C 388.29 503.03 438.97 462.78 458.35 443.4 C 477.73 424.02 486.67 409.11 492.64 364.39 C 498.6 319.67 503.07 251.09 504.56 212.33 C 506.05 173.58 495.62 116.93 504.56 93.08 C 513.51 69.22 525.43 37.92 555.25 33.45 C 585.06 28.98 623.82 28.98 637.24 42.39 C 650.65 55.81 670.03 84.13 670.03 84.13"
horiz-adv-x="728.0"/>
<glyph unicode="а" glyph-name="а" d="M 412.98 155.69 C 320.55 69.22 298.19 61.77 240.05 43.88 C 181.91 25.99 135.7 25.99 96.94 42.39 C 58.18 58.79 35.82 85.62 38.8 124.38 C 41.79 163.14 59.67 271.96 70.11 303.27 C 80.54 334.57 117.81 374.82 150.61 385.26 C 183.4 395.69 290.74 428.49 325.02 431.47 C 359.31 434.45 405.49 415.07 421.88 380.79 C 438.28 346.5 444.28 316.69 436.83 248.11 C 429.38 179.54 415.96 148.23 429.38 131.84 C 442.79 115.44 457.7 97.55 486.02 90.1 C 514.35 82.64 536.71 66.24 573.98 78.17 C 611.24 90.1 644.04 106.49 654.48 121.4"
horiz-adv-x="614.0"/>
<glyph unicode="б" glyph-name="б" d="M 164.86 34.94 C 202.13 48.35 254.31 139.29 272.2 173.58 C 290.09 207.86 306.48 239.17 296.05 291.34 C 285.61 343.52 237.91 359.92 197.66 356.94 C 157.41 353.95 111.2 318.18 91.82 297.31 C 72.44 276.44 24.74 209.35 24.74 172.09 C 24.74 134.82 33.68 67.73 51.57 49.85 C 69.46 31.96 154.43 30.47 187.23 33.45 C 220.02 36.43 302.01 67.73 372.08 121.4 C 442.14 175.07 430.21 228.73 419.78 280.91 C 409.34 333.08 354.19 403.15 318.41 440.42 C 282.63 477.68 188.72 541.79 138.03 583.53 C 87.35 625.27 -15.51 634.21 -15.51 634.21 C -15.51 634.21 88.84 650.61 139.52 659.55 C 190.21 668.5 246.86 658.06 439.16 625.27"
horiz-adv-x="468.0"/>
<glyph unicode="в" glyph-name="в" d="M 12.16 119.91 C 36.01 201.9 41.97 254.08 71.79 277.93 C 101.6 301.78 128.44 330.1 189.56 373.33 C 250.68 416.56 317.76 483.65 335.65 523.9 C 353.54 564.15 372.92 626.76 365.46 647.63 C 358.01 668.5 343.1 669.99 317.76 649.12 C 292.42 628.25 223.84 564.15 204.46 531.35 C 185.08 498.56 156.76 428.49 146.32 368.86 C 135.89 309.23 126.95 231.71 128.44 175.07 C 129.93 118.42 141.85 66.24 180.61 46.86 C 219.37 27.48 259.62 23.01 304.34 40.9 C 349.06 58.79 402.73 119.91 426.58 160.16 C 450.43 200.41 477.27 286.87 456.4 313.7 C 435.53 340.54 405.71 377.81 325.21 342.03 C 244.71 306.25 241.73 285.38 232.79 268.98 C 223.84 252.58 207.44 219.79 211.92 189.97"
horiz-adv-x="530.0"/>
<glyph unicode="г" glyph-name="г" d="M 5.54 124.38 C 68.16 191.46 136.73 289.85 171.02 328.61 C 205.3 367.37 275.37 438.93 299.22 449.36 C 323.07 459.8 369.28 477.68 381.21 438.93 C 393.13 400.17 378.23 355.44 352.89 322.65 C 327.54 289.85 294.75 255.57 288.78 206.37 C 282.82 157.18 288.78 90.1 300.71 78.17 C 312.64 66.24 342.45 24.5 388.66 24.5 C 434.88 24.5 490.03 37.92 524.32 60.28 C 558.61 82.64 615.25 124.38 615.25 124.38"
horiz-adv-x="608.0"/>
<glyph unicode="д" glyph-name="д" d="M 437.21 340.54 C 392.48 419.55 365.65 461.29 271.73 441.91 C 177.82 422.53 140.55 377.81 110.74 352.46 C 80.92 327.12 46.63 252.58 51.11 218.3 C 55.58 184.01 73.47 163.14 112.23 145.25 C 150.99 127.36 195.71 124.38 256.83 127.36 C 317.95 130.34 393.97 148.23 431.24 170.59 C 468.51 192.96 520.69 240.66 544.54 291.34 C 568.39 342.03 562.43 373.33 562.43 373.33 C 562.43 373.33 499.82 186.99 489.38 143.76 C 478.95 100.53 449.13 -67.92 419.32 -120.1 C 389.5 -172.27 346.27 -203.58 319.44 -215.5 C 292.6 -227.43 232.98 -218.49 212.11 -200.6 C 191.23 -182.71 186.76 -139.48 201.67 -94.76 C 216.58 -50.03 286.64 6.61 311.98 20.03 C 337.33 33.45 461.06 88.6 544.54 103.51 C 628.02 118.42 690.63 125.87 717.46 122.89"
horiz-adv-x="707.0"/>
<glyph unicode="е" glyph-name="е" d="M -0.23 124.38 C 77.29 161.65 178.66 188.48 253.19 240.66 C 324.34 290.47 373 328.14 390.89 371.37 C 408.78 414.6 445.5 474.7 369.47 473.21 C 293.44 471.72 208.47 435.94 159.28 388.24 C 110.08 340.54 57.91 283.89 50.46 243.64 C 43 203.39 54.93 140.78 95.18 115.44 C 135.43 90.1 172.69 57.3 211.45 46.86 C 250.21 36.43 309.84 34.94 369.47 49.85 C 429.1 64.75 590.17 131.87 590.17 131.87"
horiz-adv-x="570.0"/>
<glyph unicode="ж" glyph-name="ж" d="M 14.03 292.83 C 61.73 389.73 94.53 412.09 136.27 429.98 C 178.01 447.87 216.77 449.36 262.98 410.6 C 309.19 371.84 328.57 334.57 324.1 291.34 C 319.63 248.11 304.72 219.79 273.41 164.63 C 242.11 109.47 182.48 17.05 182.48 17.05 C 182.48 17.05 340.5 282.4 374.78 315.2 C 409.07 347.99 461.25 383.77 480.62 383.77 C 500 383.77 520.87 374.82 510.44 298.8 C 500 222.77 491.06 173.58 498.51 146.74 C 505.97 119.91 516.4 105 550.69 110.97 C 584.98 116.93 668.46 152.71 693.8 172.09 C 719.14 191.46 801.13 271.96 822 301.78 C 842.87 331.59 908.46 459.8 908.46 459.8 C 908.46 459.8 793.68 292.83 802.62 236.19 C 811.57 179.54 848.84 166.12 877.16 151.22 C 905.48 136.31 1023.25 127.36 1023.25 127.36"
horiz-adv-x="996.0"/>
<glyph unicode="з" glyph-name="з" d="M 101.33 213.83 C 166.92 331.59 199.53 373.9 253.38 404.64 C 323.55 444.7 380.09 449.36 414.38 407.62 C 448.67 365.88 479.97 306.25 406.93 240.66 C 333.88 175.07 217.17 107 151.58 101.04 C 85.99 95.08 241.2 118.27 258.44 105.95 C 279.3 91.04 259.35 103.51 308.54 72.21 C 357.73 40.9 411.4 6.61 421.84 -39.6 C 432.27 -85.81 438.71 -149.95 377.59 -179.76 C 316.47 -209.58 232.51 -224.45 168.41 -215.5 C 104.31 -206.56 53.62 -185.69 37.23 -140.97 C 20.83 -96.25 40.21 -36.62 50.64 -17.24 C 61.08 2.14 81.95 30.47 81.95 30.47"
horiz-adv-x="486.0"/>
<glyph unicode="и" glyph-name="и" d="M 69.37 456.81 C 36.58 362.9 26.14 246.62 26.14 201.9 C 26.14 157.18 26.14 91.59 64.9 72.21 C 103.66 52.83 146.89 39.41 199.07 57.3 C 251.24 75.19 327.27 170.59 345.16 198.92 C 363.05 227.24 398.82 440.42 398.82 440.42 C 398.82 440.42 366.03 227.24 366.03 160.16 C 366.03 93.08 385.41 45.37 403.3 34.94 C 421.18 24.5 470.38 33.45 518.08 54.32 C 565.78 75.19 634.36 124.38 634.36 124.38"
horiz-adv-x="607.0"/>
<glyph unicode="й" glyph-name="й" d="M 132.82 555.2 C 113.44 607.38 123.88 662.54 137.29 683.41 C 150.71 704.28 189.47 720.67 219.28 725.15 C 249.1 729.62 302.76 726.64 313.2 710.24 C 323.64 693.84 313.2 661.04 304.26 632.72 C 295.31 604.4 283.39 582.04 302.76 567.13 C 322.14 552.22 368.36 522.41 368.36 522.41 M 73.19 459.8 C 38.91 353.95 19.53 192.96 24 149.72 C 28.47 106.49 38.91 78.17 85.12 60.28 C 131.33 42.39 180.53 43.88 211.83 63.26 C 243.14 82.64 290.84 130.34 316.18 164.63 C 341.52 198.92 365.38 248.11 377.3 288.36 C 389.23 328.61 399.66 440.42 399.66 440.42 C 399.66 440.42 366.87 225.75 368.36 163.14 C 369.85 100.53 381.77 45.37 393.7 37.92 C 405.63 30.47 433.95 18.54 490.6 42.39 C 547.24 66.24 647.12 122.89 647.12 122.89"
horiz-adv-x="629.0"/>
<glyph unicode="к" glyph-name="к" d="M 117.26 507.5 C 117.26 507.5 108.32 345.01 94.9 273.45 C 81.49 201.9 72.54 158.67 57.63 112.46 C 42.73 66.24 5.46 11.09 5.46 11.09 C 5.46 11.09 129.19 188.48 187.33 245.13 C 245.47 301.78 361.74 432.96 376.65 447.87 C 391.56 462.78 434.79 486.63 434.79 486.63 C 434.79 486.63 388.58 459.8 302.11 364.39 C 215.65 268.98 181.36 239.17 181.36 239.17 C 181.36 239.17 281.24 143.76 306.59 125.87 C 331.93 107.98 424.35 46.86 424.35 46.86"
horiz-adv-x="466.0"/>
<glyph unicode="л" glyph-name="л" d="M 52.51 298.8 C 22.7 254.08 16.73 231.71 30.15 181.03 C 43.57 130.34 59.96 85.62 94.25 67.73 C 128.54 49.85 188.17 51.34 220.96 78.17 C 253.76 105 353.64 186.99 381.96 216.81 C 410.29 246.62 459.48 307.74 471.41 342.03 C 483.33 376.32 514.64 520.92 517.62 498.56 C 520.6 476.19 446.06 280.91 441.59 224.26 C 437.12 167.61 444.57 115.44 469.91 87.11 C 495.26 58.79 559.36 21.52 584.7 15.56 C 610.04 9.6 674.14 20.03 705.45 31.96 C 736.76 43.88 841.11 122.89 841.11 122.89"
horiz-adv-x="844.0"/>
<glyph unicode="м" glyph-name="м" d="M 98.07 361.41 C 54.84 234.7 35.46 173.58 38.44 119.91 C 41.42 66.24 62.29 46.86 89.13 36.43 C 115.96 25.99 162.17 37.92 186.02 61.77 C 209.88 85.62 324.66 185.5 352.99 212.33 C 381.31 239.17 493.12 438.93 493.12 438.93 C 493.12 438.93 408.14 280.91 408.14 231.71 C 408.14 182.52 412.77 115.88 457.34 106.49 C 513.99 94.57 539.33 85.62 592.99 122.89 C 646.66 160.16 749.52 234.7 785.3 279.42 C 821.08 324.14 867.29 407.62 871.76 450.85 C 876.23 494.08 873.25 528.37 856.85 456.81 C 840.46 385.26 809.15 292.83 812.13 236.19 C 815.11 179.54 835.98 143.76 879.21 136.31 C 922.45 128.85 1004.44 127.36 1004.44 127.36"
horiz-adv-x="993.0"/>
<glyph unicode="н" glyph-name="н" d="M 116.8 455.32 C 106.36 355.44 79.53 251.09 63.13 191.46 C 46.74 131.84 16.92 14.07 16.92 14.07 C 16.92 14.07 78.04 249.6 88.48 268.98 C 98.91 288.36 116.8 306.25 161.52 306.25 C 206.24 306.25 276.31 313.7 295.69 313.7 C 315.07 313.7 355.32 336.07 365.75 370.35 C 376.19 404.64 373.21 446.38 367.24 455.32 C 361.28 464.27 376.19 407.62 356.81 350.97 C 337.43 294.33 343.39 249.6 352.34 206.37 C 361.28 163.14 377.68 113.95 400.04 90.1 C 422.4 66.24 441.78 66.24 479.05 75.19 C 516.32 84.13 589.36 128.85 589.36 128.85"
horiz-adv-x="571.0"/>
<glyph unicode="о" glyph-name="о" d="M 50.56 227.24 C 28.2 169.1 8.82 124.38 29.69 82.64 C 50.56 40.9 55.03 27.48 114.66 20.03 C 174.29 12.58 250.31 31.96 281.62 66.24 C 312.93 100.53 381.5 178.05 391.93 234.7 C 402.37 291.34 420.26 367.37 394.92 410.6 C 369.57 453.83 318.89 491.1 257.77 473.21 C 196.65 455.32 159.38 427 123.6 361.41 C 87.82 295.82 58.01 243.64 69.94 194.45 C 81.86 145.25 103.59 117.19 142.98 88.6 C 180.21 61.58 204.1 46.86 254.79 66.24 C 305.47 85.62 335.29 128.85 335.29 128.85"
horiz-adv-x="576.0"/>
<glyph unicode="п" glyph-name="п" d="M 84.78 254.08 C 132.48 453.83 118.48 452.34 118.48 452.34 C 118.48 452.34 100.59 319.67 79.72 207.86 C 58.85 96.06 18.6 23.01 18.6 23.01 C 18.6 23.01 58.85 148.23 139.35 230.22 C 219.85 312.21 346.56 428.49 377.87 441.91 C 409.17 455.32 462.84 453.83 464.33 422.53 C 465.82 391.22 418.12 328.61 424.08 295.82 C 430.04 263.02 461.35 154.2 512.03 115.44 C 562.72 76.68 595.51 70.72 620.86 81.15 C 646.2 91.59 678.99 128.85 678.99 128.85"
horiz-adv-x="666.0"/>
<glyph unicode="р" glyph-name="р" d="M 65.65 249.6 L 90.99 449.36 C 90.99 449.36 64.16 131.84 43.29 75.19 C 22.42 18.54 -77.46 -225.94 -77.46 -225.94 C -77.46 -225.94 86.52 182.52 117.83 227.24 C 149.13 271.96 240.07 379.3 269.88 398.68 C 299.7 418.06 347.4 437.44 359.33 395.69 C 371.25 353.95 381.69 245.13 392.12 215.32 C 402.56 185.5 442.81 112.46 465.17 94.57 C 487.53 76.68 548.65 57.3 587.41 63.26 C 626.17 69.22 693.25 109.47 715.61 125.87"
horiz-adv-x="699.0"/>
<glyph unicode="с" glyph-name="с" d="M 319.92 424.02 C 296.06 470.23 257.31 491.1 208.11 462.78 C 158.92 434.45 94.82 361.41 60.53 279.42 C 26.24 197.43 35.19 102.02 44.13 76.68 C 53.08 51.34 112.7 17.05 193.2 30.47 C 273.7 43.88 421.29 103.51 452.59 125.87"
horiz-adv-x="438.0"/>
<glyph unicode="т" glyph-name="т" d="M 113.54 477.68 C 97.15 385.26 34.54 100.53 25.59 25.99 C 16.65 -48.54 71.8 325.63 125.47 359.92 C 179.14 394.2 244.73 446.38 313.3 398.68 C 381.88 350.97 426.6 289.85 434.05 264.51 C 441.5 239.17 428.09 116.93 428.09 116.93 C 428.09 116.93 435.54 282.4 480.26 331.59 C 524.99 380.79 560.76 422.53 614.43 427 C 668.1 431.47 708.35 419.55 735.18 367.37 C 762.01 315.2 756.05 231.71 745.61 179.54 C 735.18 127.36 730.71 105 730.71 105"
horiz-adv-x="829.0"/>
<glyph unicode="у" glyph-name="у" d="M 108.42 395.69 C 60.72 325.63 45.81 273.45 39.85 207.86 C 33.88 142.27 36.87 87.11 48.79 69.22 C 60.72 51.34 92.02 23.01 145.69 31.96 C 199.35 40.9 307.67 100.57 341.96 142.31 C 376.24 184.05 452.78 294.33 464.7 347.99 C 476.63 401.66 479.61 401.66 479.61 401.66 C 479.61 401.66 403.58 197.43 394.64 113.95 C 385.7 30.47 387.19 -21.71 388.68 -93.26 C 390.17 -164.82 387.19 -202.09 375.26 -214.01 C 363.34 -225.94 305.2 -243.83 236.62 -212.52 C 168.05 -181.22 106.93 -126.06 93.51 -105.19 C 80.1 -84.32 83.08 -79.85 83.08 -79.85"
horiz-adv-x="557.0"/>
<glyph unicode="ф" glyph-name="ф" d="M 355.23 297.31 C 364.17 401.66 364.17 479.18 328.4 485.14 C 292.62 491.1 242.79 469.62 206.16 447.87 C 175.04 429.39 149.58 401.36 128.64 371.84 C 107.67 342.29 90.61 308.75 82.43 273.45 C 75.59 243.92 76.52 212.51 80.94 182.52 C 84.51 158.27 85.42 129.23 103.3 112.46 C 119.74 97.04 146.41 94.5 168.89 96.06 C 196.69 97.99 222.09 113.76 246.41 127.36 C 269.05 140.02 292.14 153.88 309.02 173.58 C 332.02 200.41 341.32 236.45 358.21 267.49 C 381.39 310.1 407.04 365.13 429.77 394.2 C 452.5 423.28 463.92 432.26 484.92 446.38 C 504.85 459.79 526.79 479.9 550.52 476.19 C 571.72 472.88 588.76 452.22 598.22 432.96 C 614.92 398.96 610.72 357.38 607.16 319.67 C 603.09 276.58 588.48 234.81 572.88 194.45 C 561.02 163.77 551.19 129.96 528.15 106.49 C 509.62 87.62 484.38 66.28 458.09 69.22 C 424.83 72.95 400.15 106.66 382.06 134.82 C 366.68 158.76 360.4 188.43 358.21 216.81 C 354.93 259.27 374.61 343.52 374.61 343.52 C 374.61 343.52 343.02 210.23 317.96 146.74 C 297.48 94.86 265.34 48.3 241.93 -2.33 C 228.37 -31.65 216.91 -61.88 204.67 -91.77 C 186 -137.38 149.51 -228.92 149.51 -228.92"
horiz-adv-x="643.0"/>
<glyph unicode="х" glyph-name="х" d="M 19.16 316.69 C 46 371.84 59.41 398.68 99.66 415.07 C 139.91 431.47 184.64 415.07 202.52 392.71 C 220.41 370.35 251.72 336.07 263.64 292.83 C 275.57 249.6 281.53 213.83 260.66 181.03 C 239.79 148.23 141.4 43.88 122.03 33.45 C 102.65 23.01 93.7 18.54 93.7 18.54 C 93.7 18.54 177.18 82.64 242.77 160.16 C 308.37 237.68 354.58 267.49 378.43 297.31 C 402.28 327.12 494.71 465.76 494.71 465.76 C 494.71 465.76 345.63 252.58 335.2 221.28 C 324.76 189.97 339.67 133.33 354.58 105 C 369.49 76.68 393.34 46.86 432.1 36.43 C 470.86 25.99 551.36 33.45 573.72 43.88 C 596.08 54.32 654.22 124.38 654.22 124.38"
horiz-adv-x="643.0"/>
<glyph unicode="ц" glyph-name="ц" d="M 158.64 397.19 C 73.67 295.82 42.37 219.79 34.91 169.1 C 27.46 118.42 42.37 61.77 55.78 51.34 C 69.2 40.9 112.43 15.56 158.64 37.92 C 204.85 60.28 271.94 94.57 300.26 140.78 C 328.59 186.99 376.29 319.67 383.74 362.9 C 391.2 406.13 395.67 418.06 395.67 418.06 C 395.67 418.06 330.08 197.43 330.08 185.5 C 330.08 173.58 350.95 127.36 373.31 90.1 C 395.67 52.83 446.35 -2.33 434.43 -56 C 422.5 -109.66 397.16 -155.88 364.36 -163.33 C 331.57 -170.78 306.22 -154.38 298.77 -142.46 C 291.32 -130.53 285.35 -103.7 301.75 -76.87 C 318.15 -50.03 371.82 -26.18 401.63 -14.26 C 431.45 -2.33 489.58 18.54 514.93 39.41 C 540.27 60.28 583.5 111.87 589.46 120.82"
horiz-adv-x="564.0"/>
<glyph unicode="ч" glyph-name="ч" d="M 1.46 124.38 C 35.75 172.09 150.54 313.7 172.9 347.99 C 195.26 382.28 260.85 483.65 260.85 483.65 C 260.85 483.65 190.79 358.43 190.79 330.1 C 190.79 301.78 198.24 260.04 226.56 255.57 C 254.89 251.09 311.54 243.64 345.82 263.02 C 380.11 282.4 430.79 316.69 460.61 361.41 C 490.42 406.13 514.28 474.7 514.28 474.7 C 514.28 474.7 471.04 470.23 456.14 459.8 C 441.23 449.36 396.51 400.17 365.2 356.94 C 333.9 313.7 296.63 252.58 278.74 209.35 C 260.85 166.12 248.93 102.02 266.81 75.19 C 284.7 48.35 318.99 25.99 372.66 24.5 C 426.32 23.01 454.65 33.45 454.65 33.45"
horiz-adv-x="543.0"/>
<glyph unicode="ш" glyph-name="ш" d="M 52.99 441.91 C 39.57 313.7 33.61 140.78 33.61 109.47 C 33.61 78.17 42.55 46.86 64.91 36.43 C 87.28 25.99 133.49 24.5 178.21 54.32 C 222.93 84.13 269.14 188.48 281.07 224.26 C 293 260.04 316.85 446.38 316.85 446.38 C 316.85 446.38 290.01 258.55 300.45 188.48 C 310.88 118.42 337.72 93.08 358.59 78.17 C 379.46 63.26 407.78 57.3 442.07 78.17 C 476.36 99.04 531.51 137.8 580.71 181.03 C 629.9 224.26 682.08 322.65 688.04 343.52 C 694 364.39 710.4 458.31 710.4 458.31 C 710.4 458.31 671.64 274.95 656.73 246.62 C 641.83 218.3 637.35 203.39 649.28 179.54 C 661.21 155.69 668.66 109.47 696.98 88.6 C 725.31 67.73 750.65 67.73 774.5 81.15 C 798.35 94.57 825.19 127.36 825.19 127.36"
horiz-adv-x="808.0"/>
<glyph unicode="щ" glyph-name="щ" d="M 68.74 441.91 C 56.81 315.2 46.37 198.92 44.88 140.78 C 43.39 82.64 44.88 31.96 92.59 27.48 C 140.29 23.01 183.52 45.37 202.9 67.73 C 222.28 90.1 262.53 143.76 283.4 215.32 C 304.27 286.87 326.63 455.32 326.63 455.32 C 326.63 455.32 299.8 267.49 313.22 200.41 C 326.63 133.33 347.5 94.57 374.33 79.66 C 401.17 64.75 432.47 75.19 478.69 105 C 524.9 134.82 583.04 179.54 611.36 213.83 C 639.68 248.11 682.92 315.2 694.84 349.48 C 706.77 383.77 721.68 488.12 721.68 488.12 C 721.68 488.12 691.86 318.18 665.03 277.93 C 638.19 237.68 651.61 224.26 668.01 198.92 C 684.41 173.58 729.13 106.49 745.53 61.77 C 761.92 17.05 775.34 -21.71 752.98 -56 C 730.62 -90.28 693.35 -126.06 657.57 -114.14 C 621.8 -102.21 615.83 -73.89 627.76 -42.58 C 639.68 -11.27 670.99 11.09 694.84 21.52 C 718.69 31.96 779.81 45.37 823.04 67.73 C 866.28 90.1 890.13 115.44 899.07 125.87"
horiz-adv-x="884.0"/>
<glyph unicode="ъ" glyph-name="ъ" d="M 85.97 397.19 C 42.74 424.02 -3.47 476.19 44.23 483.65 C 91.94 491.1 200.76 482.16 211.19 479.18 C 221.63 476.19 206.72 377.81 196.29 336.07 C 185.85 294.33 145.6 189.97 142.62 164.63 C 139.64 139.29 147.09 70.72 188.83 54.32 C 230.57 37.92 287.22 25.99 327.47 54.32 C 367.72 82.64 384.12 127.36 373.68 167.61 C 363.25 207.86 346.85 255.57 303.62 266 C 260.39 276.44 221.63 263.02 194.8 249.6 C 167.96 236.19 150.07 201.9 150.07 201.9"
horiz-adv-x="432.0"/>
<glyph unicode="ы" glyph-name="ы" d="M 185.2 486.63 C 128.55 416.56 97.25 359.92 74.89 303.27 C 52.53 246.62 27.18 189.97 46.56 137.8 C 65.94 85.62 89.79 48.35 116.63 34.94 C 143.46 21.52 210.54 33.45 235.89 51.34 C 261.23 69.22 326.82 161.65 335.76 191.46 C 344.71 221.28 362.6 291.34 326.82 328.61 C 291.04 365.88 240.36 376.32 197.13 345.01 C 153.9 313.7 112.15 237.68 134.52 191.46 C 156.88 145.25 182.22 119.91 229.92 121.4 C 277.63 122.89 340.24 119.91 395.39 143.76 C 450.55 167.61 513.16 195.94 526.58 219.79 C 539.99 243.64 565.34 334.57 578.75 358.43 C 592.17 382.28 639.87 437.44 639.87 437.44 C 639.87 437.44 590.68 385.26 572.79 331.59 C 554.9 277.93 531.05 218.3 548.94 167.61 C 566.83 116.93 593.66 85.62 654.78 76.68 C 715.9 67.73 791.93 112.46 815.78 124.38"
horiz-adv-x="802.0"/>
<glyph unicode="ь" glyph-name="ь" d="M 114.48 503.03 C 105.54 401.66 77.22 316.69 57.84 257.06 C 38.46 197.43 20.57 134.82 33.99 105 C 47.4 75.19 80.2 42.39 115.98 34.94 C 151.75 27.48 203.93 33.45 233.74 64.75 C 263.56 96.06 275.48 142.27 269.52 179.54 C 263.56 216.81 247.16 255.57 202.44 271.96 C 157.72 288.36 121.94 276.44 95.11 260.04 C 68.27 243.64 39.95 212.33 39.95 212.33"
horiz-adv-x="325.0"/>
<glyph unicode="э" glyph-name="э" d="M 45.26 267.49 C 200.3 248.11 256.94 234.7 306.14 248.11 C 355.33 261.53 400.05 282.4 400.05 282.4 M 34.82 374.82 C 97.44 432.96 152.59 464.27 189.86 468.74 C 227.13 473.21 274.83 464.27 282.29 401.66 C 289.74 339.05 276.32 227.24 258.43 175.07 C 240.55 122.89 218.18 42.39 176.44 30.47 C 134.7 18.54 72.09 36.43 51.22 55.81 C 30.35 75.19 24.39 102.02 24.39 102.02"
horiz-adv-x="581.0"/>
<glyph unicode="ю" glyph-name="ю" d="M 169.83 479.18 C 120.64 368.86 -19.49 12.58 -19.49 12.58 C -19.49 12.58 1.38 84.13 74.42 116.93 C 147.47 149.72 189.21 170.59 204.12 178.05 C 219.02 185.5 235.42 210.84 256.29 276.44 C 277.16 342.03 321.88 418.06 351.7 435.94 C 381.51 453.83 438.16 480.67 488.85 482.16 C 539.53 483.65 596.18 464.27 617.05 429.98 C 637.92 395.69 652.83 316.69 645.37 245.13 C 637.92 173.58 611.09 96.06 569.35 61.77 C 527.61 27.48 450.09 3.63 393.44 11.09 C 336.79 18.54 287.6 37.92 260.76 78.17 C 233.93 118.42 226.48 169.1 238.4 225.75"
horiz-adv-x="696.0"/>
<glyph unicode="я" glyph-name="я" d="M 26.07 242.15 C 20.11 145.25 36.5 100.53 60.36 75.19 C 84.21 49.85 127.44 27.48 182.6 46.86 C 237.75 66.24 278 97.55 316.76 148.23 C 355.52 198.92 418.13 273.45 439 304.76 C 459.87 336.07 471.8 401.66 449.44 427 C 427.08 452.34 404.71 489.61 342.1 443.4 C 279.49 397.19 275.02 365.88 292.91 330.1 C 310.8 294.33 391.3 245.13 410.68 228.73 C 430.06 212.33 427.08 143.76 461.36 100.53 C 495.65 57.3 537.39 48.35 567.2 63.26 C 597.02 78.17 628.32 121.4 628.32 121.4"
horiz-adv-x="587.0"/>
<glyph unicode="ё" glyph-name="ё" d="M 404.9 635.7 C 428.75 644.65 443.66 662.54 430.24 659.55 C 416.83 656.57 404.9 635.7 404.9 635.7 Z M 141.04 634.21 C 170.86 641.67 200.67 677.44 172.35 668.5 C 144.02 659.55 141.04 634.21 141.04 634.21 Z M -39.34 122.89 C 149.99 186.99 248.38 225.75 290.12 277.93 C 331.86 330.1 367.63 385.26 376.58 409.11 C 385.52 432.96 373.6 467.25 313.97 470.23 C 254.34 473.21 184.27 424.02 135.08 374.82 C 85.89 325.63 50.11 274.95 38.18 233.21 C 26.26 191.46 32.15 137.44 70.98 107.98 C 114.21 75.19 175.33 42.39 214.09 33.45 C 252.85 24.5 339.31 31.96 397.45 54.32 C 455.59 76.68 555.47 136.31 555.47 136.31"
horiz-adv-x="538.0"/>
</font>
</defs>
</svg>
