<?xml version="1.0" encoding="UTF-8"?>
<!DOCTYPE svg  PUBLIC '-//W3C//DTD SVG 1.1//EN'  'http://www.w3.org/Graphics/SVG/1.1/DTD/svg11.dtd'>
<svg xmlns="http://www.w3.org/2000/svg" xmlns:xlink="http://www.w3.org/1999/xlink" version="1.1">
<defs>
<font horiz-adv-x="500.0" id="CircleC">
<font-face font-family="CircleC" units-per-em="1000.0" ascent="800.0" descent="-200.0" cap-height="500.0" x-height="300.0"/>
<missing-glyph horiz-adv-x="500.0"/>
<glyph unicode=" " glyph-name="space"
horiz-adv-x="221.0"/>
<glyph unicode="!" glyph-name="!" d="M 108.61 37.89 C 108.61 19.54 93.74 4.67 75.39 4.67 C 57.04 4.67 42.17 19.54 42.17 37.89 C 42.17 56.24 57.04 71.11 75.39 71.11 C 93.74 71.11 108.61 56.24 108.61 37.89 Z M 75.78 611.72 L 75.78 126.56"
horiz-adv-x="146"/>
<glyph unicode="&quot;" glyph-name="&quot;" d="M 113.28 492.19 L 113.28 300.78 M 57.81 490.62 L 57.81 300.78"
horiz-adv-x="180"/>
<glyph unicode="#" glyph-name="#" d="M 344.53 491.41 L 276.56 4.69 M 78.12 5.47 L 145.31 491.41 M 366.41 156.25 L 28.12 156.25 M 55.47 347.66 L 392.97 347.66"
horiz-adv-x="440"/>
<glyph unicode="$" glyph-name="$" d="M 38.28 146.09 C 38.28 146.09 47.34 94.75 60.16 72.66 C 71.71 52.74 89.03 35.97 107.81 22.66 C 124.36 10.93 143.54 2.31 163.28 -2.34 C 182.31 -6.83 202.55 -7.65 221.88 -4.69 C 243.21 -1.41 264.59 5.63 282.81 17.19 C 302.72 29.81 320.25 47.24 332.81 67.19 C 345.76 87.75 353.7 111.87 357.03 135.94 C 359.82 156.1 358.54 177.25 353.12 196.88 C 347.51 217.2 337.06 236.4 324.22 253.12 C 312.88 267.89 298.71 280.93 282.81 290.62 C 269.51 298.73 254.12 305.06 239.06 309.03 C 224.53 312.86 193.75 314.06 193.75 314.06 L 193.75 239.84 C 193.75 239.84 168.76 238.08 144.53 248.44 C 125.8 256.45 108.25 268.53 94.53 283.59 C 81.81 297.57 71.7 314.67 66.41 332.81 C 60.48 353.08 59.77 375.27 63.28 396.09 C 66.17 413.26 72.76 430.32 82.81 444.53 C 94.64 461.25 111.15 474.94 128.91 485.16 C 143.9 493.78 160.98 499.33 178.12 501.56 C 194.68 503.72 211.97 502.66 228.12 498.44 C 243.79 494.34 258.95 487.1 271.87 477.34 C 289.39 464.12 305.15 447.42 315.62 428.12 C 322.19 416.02 326.56 388.28 326.56 388.28 M 193.75 546.09 L 194.53 -61.72"
horiz-adv-x="401"/>
<glyph unicode="%" glyph-name="%" d="M 439.84 500.78 L 137.5 -3.12 M 546.96 117.91 C 546.95 84.97 533.87 53.37 510.58 30.08 C 487.28 6.79 455.69 -6.3 422.75 -6.3 C 389.81 -6.3 358.22 6.79 334.92 30.08 C 311.63 53.37 298.55 84.97 298.54 117.91 C 298.54 150.85 311.63 182.44 334.92 205.73 C 358.22 229.03 389.81 242.11 422.75 242.11 C 455.69 242.11 487.28 229.03 510.58 205.73 C 533.87 182.44 546.96 150.85 546.95 117.91 Z M 277.33 378.12 C 277.33 345.18 264.24 313.59 240.95 290.3 C 217.66 267.01 186.07 253.92 153.12 253.92 C 120.18 253.92 88.59 267.01 65.3 290.3 C 42.01 313.59 28.92 345.18 28.92 378.12 C 28.92 411.07 42.01 442.66 65.3 465.95 C 88.59 489.24 120.18 502.33 153.12 502.33 C 186.07 502.33 217.66 489.24 240.95 465.95 C 264.24 442.66 277.33 411.07 277.33 378.13 Z"
horiz-adv-x="591"/>
<glyph unicode="&amp;" glyph-name="&amp;" d="M 457.81 -0.78 L 109.38 376.56 C 109.38 376.56 94.84 400.57 92.19 414.06 C 89.72 426.59 89.2 440.41 93.75 452.34 C 98.43 464.62 108.43 474.68 118.75 482.81 C 126.25 488.72 135.3 492.88 144.53 495.31 C 156.39 498.44 169.11 499.42 181.25 497.66 C 194.7 495.7 208.62 491.71 219.53 483.59 C 229.98 475.82 238.63 464.62 242.97 452.34 C 247.75 438.83 247.37 423.42 244.53 409.38 C 242.08 397.27 236.28 385.69 228.91 375.78 C 219.55 363.2 205.66 354.72 193.75 344.53 C 156.07 312.3 116.06 283.7 79.69 250 C 73.07 243.87 65.74 237.56 60.16 230.47 C 51.18 219.06 42.54 207.05 36.72 193.75 C 30.56 179.69 26.18 164.52 25 149.22 C 23.83 134.08 25.77 118.58 29.69 103.91 C 34.31 86.56 41.58 69.61 51.56 54.69 C 59.75 42.44 70.41 31.72 82.03 22.66 C 92.88 14.19 105.08 7.16 117.97 2.34 C 131.41 -2.68 145.82 -5.68 160.16 -6.25 C 173 -6.76 185.93 -4.55 198.44 -1.56 C 211.1 1.46 223.54 5.85 235.16 11.72 C 253.6 21.03 269.97 34 286.72 46.09 C 300.11 55.76 312.94 66.18 325.78 76.56 C 348.5 94.92 370.47 114.19 392.97 132.81 C 412.93 149.33 453.12 182.03 453.12 182.03"
horiz-adv-x="495"/>
<glyph unicode="'" glyph-name="'" d="M 64.06 492.19 L 64.84 300.78"
horiz-adv-x="134"/>
<glyph unicode="(" glyph-name="(" d="M 217.97 717.19 C 217.97 717.19 178.21 674.45 160.16 651.56 C 144.19 631.31 128.91 610.39 115.63 588.28 C 103.75 568.51 93.41 547.78 84.38 526.56 C 73.25 500.42 64.05 473.42 56.25 446.09 C 49.37 421.97 43.6 397.46 39.84 372.66 C 35.5 343.98 33.42 314.93 32.81 285.94 C 32.25 259.1 33.03 232.15 35.94 205.47 C 39.44 173.38 45.14 141.44 53.13 110.16 C 58.42 89.41 65.28 69.02 73.44 49.22 C 85.51 19.93 99.49 -8.68 115.63 -35.94 C 129.54 -59.44 145.65 -81.63 162.5 -103.12 C 180.03 -125.49 218.75 -167.19 218.75 -167.19"
horiz-adv-x="225"/>
<glyph unicode="*" glyph-name="*" d="M 133.32 550.46 L 65.62 458.59 M 25 585.94 L 133.32 550.46 L 239.06 584.38 M 133.59 663.28 L 133.32 550.46 L 200 457.81"
horiz-adv-x="253"/>
<glyph unicode="+" glyph-name="+" d="M 28.19 248.91 L 366.28 248.91 M 196.13 414.64 L 197.24 77.66"
horiz-adv-x="403"/>
<glyph unicode="," glyph-name="," d="M 149.41 76.56 C 149.41 76.56 122.07 33.39 107.42 12.47 C 86.6 -17.27 42.24 -74.81 42.24 -74.81"
horiz-adv-x="172"/>
<glyph unicode="-" glyph-name="-" d="M 58.49 273.22 L 239.69 273.22"
horiz-adv-x="311"/>
<glyph unicode="/" glyph-name="/" d="M 353.95 718.48 L 9.24 -107.96"
horiz-adv-x="361"/>
<glyph unicode="1" glyph-name="1" d="M 30.69 490.88 L 193.11 490.88 L 193.11 5.84"
horiz-adv-x="261"/>
<glyph unicode="2" glyph-name="2" d="M 31.48 350.56 C 31.48 350.56 28.08 380.2 30.37 394.75 C 32.62 409.02 37.71 423.02 44.74 435.63 C 51.87 448.45 61.29 460.25 72.36 469.88 C 85.31 481.16 100.29 490.84 116.55 496.4 C 131.29 501.44 147.39 502.65 162.95 501.92 C 178.76 501.19 194.87 498.33 209.36 491.98 C 223.4 485.83 235.93 476.14 246.92 465.46 C 258.81 453.92 269.99 440.82 276.75 425.69 C 282.89 411.97 285.29 396.52 285.59 381.5 C 285.88 367.33 283.6 352.9 278.96 339.51 C 272.05 319.57 248.03 284.27 248.03 284.27 L 14.01 4.74 L 319.84 4.74"
horiz-adv-x="338"/>
<glyph unicode="3" glyph-name="3" d="M 100.76 490.88 L 293.01 490.88 L 191.36 322.94 C 191.36 322.94 215.85 322.01 227.82 319.62 C 239.93 317.21 252.09 314.01 263.18 308.57 C 276.48 302.05 288.6 293.05 299.64 283.16 C 308.39 275.33 316.04 266.22 322.84 256.65 C 330.19 246.29 336.83 235.26 341.62 223.5 C 347.07 210.1 350.96 195.89 352.67 181.52 C 354.8 163.59 354.76 145.14 351.56 127.38 C 348.59 110.87 343.09 94.56 334.99 79.87 C 326.14 63.8 314.31 49.13 300.74 36.78 C 286.76 24.06 270.72 13.01 253.23 5.84 C 234.45 -1.85 213.86 -5.68 193.57 -6.31 C 174.99 -6.88 155.86 -4.77 138.33 1.43 C 118.08 8.58 99.56 20.8 83.08 34.57 C 71.07 44.61 60.68 56.8 52.15 69.93 C 43.08 83.88 31.16 115.23 31.16 115.23"
horiz-adv-x="408"/>
<glyph unicode="4" glyph-name="4" d="M 356.77 2.53 L 357.87 496.4 L 26.42 141.74 L 497.08 141.74"
horiz-adv-x="533"/>
<glyph unicode="5" glyph-name="5" d="M 353.13 490.88 L 100.12 490.88 L 101.23 325.15 C 101.23 325.15 135.02 342.25 153.15 347.24 C 168.92 351.59 185.41 353.74 201.77 353.87 C 220.31 354.02 239.2 352.41 257.01 347.24 C 274.25 342.24 290.62 333.91 305.62 324.04 C 318.71 315.43 330.72 304.94 340.98 293.11 C 353.36 278.83 364.81 263.11 371.91 245.6 C 379.82 226.12 382.98 204.72 384.07 183.73 C 385.12 163.41 384.25 142.48 378.54 122.96 C 372.26 101.46 361.36 80.98 347.61 63.3 C 333.99 45.8 316.77 30.73 297.89 19.1 C 281.7 9.14 263.53 1.67 244.86 -1.89 C 217.36 -7.13 188.26 -7.74 160.89 -1.89 C 138 3.01 115.53 12.79 96.81 26.84 C 78.62 40.48 64.59 59.45 52.61 78.77 C 43.74 93.07 38.01 109.19 32.73 125.17 C 30.23 132.72 27.2 148.37 27.2 148.37"
horiz-adv-x="423"/>
<glyph unicode="6" glyph-name="6" d="M 350.6 646.66 L 85.44 214.66 M 447.28 199.19 C 447.28 144.69 425.62 92.42 387.09 53.88 C 348.55 15.34 296.28 -6.31 241.77 -6.31 C 128.28 -6.31 36.27 85.7 36.27 199.19 C 36.27 312.69 128.28 404.7 241.77 404.7 C 296.28 404.7 348.55 383.05 387.09 344.51 C 425.62 305.97 447.28 253.7 447.28 199.19 Z"
horiz-adv-x="481"/>
<glyph unicode="7" glyph-name="7" d="M 16.62 490.88 L 318.24 490.88 L 18.82 -152.15"
horiz-adv-x="342"/>
<glyph unicode="8" glyph-name="8" d="M 378.69 164.39 C 378.69 119.12 360.7 75.7 328.69 43.69 C 296.68 11.68 253.26 -6.3 207.99 -6.3 C 113.72 -6.3 37.3 70.12 37.3 164.39 C 37.3 258.66 113.72 335.08 207.99 335.08 C 253.26 335.08 296.68 317.1 328.69 285.09 C 360.7 253.08 378.69 209.66 378.69 164.39 Z M 322.33 387.57 C 322.33 324.42 271.39 273.22 208.54 273.22 C 145.69 273.22 94.74 324.42 94.74 387.57 C 94.74 450.72 145.69 501.92 208.54 501.92 C 271.39 501.92 322.33 450.72 322.33 387.57 Z"
horiz-adv-x="435"/>
<glyph unicode="9" glyph-name="9" d="M 395.84 282.06 L 131.99 -147.73 M 446.51 295.87 C 446.51 241.22 424.84 188.81 386.26 150.17 C 347.69 111.53 295.37 89.82 240.81 89.82 C 127.21 89.82 35.12 182.07 35.12 295.87 C 35.12 409.66 127.21 501.91 240.81 501.92 C 295.37 501.92 347.69 480.21 386.26 441.57 C 424.84 402.92 446.51 350.52 446.51 295.87 Z"
horiz-adv-x="483"/>
<glyph unicode="0" glyph-name="0" d="M 545.89 247.81 C 545.89 107.46 432.11 -6.32 291.76 -6.32 C 224.36 -6.32 159.72 20.45 112.06 68.11 C 64.41 115.77 37.63 180.41 37.63 247.81 C 37.63 315.21 64.41 379.85 112.06 427.5 C 159.72 475.16 224.36 501.94 291.76 501.94 C 432.11 501.94 545.89 388.16 545.89 247.81 Z"
horiz-adv-x="605"/>
<glyph unicode=":" glyph-name=":" d="M 133.92 38.99 C 133.92 20.04 118.81 4.69 100.17 4.69 C 91.22 4.69 82.64 8.3 76.31 14.73 C 69.98 21.17 66.42 29.89 66.42 38.99 C 66.42 48.09 69.98 56.81 76.31 63.25 C 82.64 69.68 91.22 73.29 100.17 73.29 C 118.81 73.29 133.92 57.94 133.92 38.99 Z M 133.87 280.4 C 133.87 261.18 118.54 245.6 99.62 245.6 C 80.71 245.6 65.37 261.18 65.37 280.4 C 65.37 299.62 80.71 315.2 99.62 315.2 C 118.54 315.2 133.87 299.62 133.87 280.4 Z"
horiz-adv-x="195"/>
<glyph unicode="&lt;" glyph-name="&lt;" d="M 450.33 515.39 L 26.06 333.99 L 452.54 150.58"
horiz-adv-x="469"/>
<glyph unicode="=" glyph-name="=" d="M 26.85 203.61 L 361.62 203.61 M 26.85 292 L 362.72 292"
horiz-adv-x="400"/>
<glyph unicode="&gt;" glyph-name="&gt;" d="M 32.05 518.5 L 460.73 332.88 L 33.15 150.58"
horiz-adv-x="490"/>
<glyph unicode="?" glyph-name="?" d="M 106.9 38.44 C 106.9 20.42 92.29 5.81 74.27 5.81 C 65.61 5.81 57.31 9.24 51.19 15.36 C 45.07 21.48 41.63 29.78 41.63 38.44 C 41.63 47.09 45.07 55.39 51.19 61.51 C 57.31 67.63 65.61 71.07 74.27 71.07 C 92.29 71.07 106.9 56.46 106.9 38.44 Z M 59.35 614.62 C 59.35 614.62 88.02 595.64 100.23 583.68 C 112.97 571.21 124.99 557.43 133.38 541.7 C 143.56 522.58 150.11 501.26 153.26 479.83 C 156.05 460.88 155.16 441.29 152.16 422.37 C 149.38 404.89 143.08 388.07 136.69 371.55 C 131.11 357.11 123.58 343.49 116.8 329.57 C 107.79 311.06 97.36 293.22 89.18 274.32 C 83.26 260.64 78 246.63 73.71 232.34 C 68.61 215.31 62.5 198.16 61.56 180.41 C 60.62 162.62 68.19 127.38 68.19 127.38"
horiz-adv-x="191"/>
<glyph unicode="@" glyph-name="@" d="M 494.34 331.78 L 495.45 158.31 L 655.05 157.57 C 686.26 208.83 704.24 269.03 704.24 333.43 C 704.24 520.45 552.64 672.05 365.62 672.05 C 178.61 672.05 27.01 520.45 27.01 333.43 C 27.01 146.42 178.61 -5.18 365.62 -5.18 M 549.57 332.88 C 549.57 230.99 467.21 148.39 365.62 148.39 C 264.04 148.39 181.68 230.99 181.68 332.88 C 181.68 434.78 264.04 517.38 365.62 517.38 C 467.21 517.38 549.57 434.78 549.57 332.88 Z"
horiz-adv-x="738"/>
<glyph unicode="[" glyph-name="[" d="M 171.91 715.16 L 39.33 715.16 L 39.33 -165.62 L 170.81 -165.62"
horiz-adv-x="177"/>
<glyph unicode="\" glyph-name="\" d="M -6.29 718.48 L 339.53 -111.27"
horiz-adv-x="345"/>
<glyph unicode="]" glyph-name="]" d="M 43.11 715.71 L 175.14 715.71 L 175.14 -164.3 L 42.56 -164.3"
horiz-adv-x="242"/>
<glyph unicode="^" glyph-name="^" d="M 57.15 402.49 L 246.08 667.65 L 432.8 401.38"
horiz-adv-x="470"/>
<glyph unicode="{" glyph-name="{" d="M 213.59 721.79 C 213.59 721.79 174.96 711.83 157.24 703.01 C 144.44 696.63 132.53 688.25 121.88 678.7 C 111.38 669.29 102.03 658.43 94.26 646.66 C 82.73 629.2 72.86 610.29 66.64 590.31 C 61.44 573.6 58.69 555.88 58.91 538.38 C 59.2 514.83 66.35 491.86 71.06 468.78 C 74.61 451.36 79.81 434.3 83.21 416.85 C 85.49 405.14 88.87 393.42 88.74 381.5 C 88.58 366.9 86.1 352.08 81 338.41 C 76.21 325.56 68.3 313.96 60.01 303.05 C 52.6 293.3 34.6 276.53 34.6 276.53 C 34.6 276.53 53.67 258.5 61.12 247.81 C 71.77 232.54 82.52 216.26 86.53 198.09 C 90.66 179.37 86.99 159.62 84.32 140.64 C 81.1 117.73 72 95.98 67.75 73.24 C 63.52 50.61 58.45 27.76 58.91 4.74 C 59.26 -12.81 62.01 -30.6 67.75 -47.19 C 74.06 -65.41 83.25 -83.02 95.37 -98.01 C 108.18 -113.85 124.93 -126.32 141.77 -137.79 C 153.48 -145.76 166.34 -152.04 179.34 -157.67 C 190.77 -162.63 214.69 -169.83 214.69 -169.83"
horiz-adv-x="220"/>
<glyph unicode="|" glyph-name="|" d="M 65.22 662.13 L 65.22 -160.99"
horiz-adv-x="136"/>
<glyph unicode="}" glyph-name="}" d="M 30.65 720.69 C 30.65 720.69 78.81 707.53 100.25 695.27 C 118.88 684.63 135.73 670.45 149.97 654.39 C 160.41 642.62 169.36 629.15 175.38 614.62 C 183.89 594.06 188.76 571.66 189.74 549.43 C 190.62 529.4 185.74 509.48 182.01 489.77 C 178.06 468.88 170.59 448.77 166.54 427.9 C 163.49 412.2 159.94 396.38 159.91 380.39 C 159.91 366.64 160.92 352.5 165.44 339.51 C 169.95 326.57 178.13 315.06 186.43 304.16 C 194.48 293.59 214.05 275.43 214.05 275.43 C 214.05 275.43 195.5 258.55 187.53 248.91 C 179.59 239.31 171.2 229.54 166.54 217.98 C 161.65 205.85 160.26 192.38 159.91 179.31 C 159.48 163.37 162.76 147.51 165.44 131.8 C 169.38 108.72 176.65 86.31 180.91 63.3 C 184.64 43.17 189.95 23 189.74 2.53 C 189.58 -13.15 187.24 -29.09 182.01 -43.87 C 174.53 -65.02 163.21 -85.2 148.86 -102.43 C 135.64 -118.3 119.14 -131.71 101.36 -142.21 C 80.27 -154.65 32.86 -168.72 32.86 -168.72"
horiz-adv-x="255"/>
<glyph unicode="~" glyph-name="~" d="M 56.84 613.51 C 56.84 613.51 84.6 657.17 104.35 673.18 C 115.87 682.51 129.74 689.49 144.13 693.06 C 159.5 696.88 175.99 696.68 191.63 694.17 C 209 691.38 225.19 683.45 241.35 676.49 C 259.96 668.48 277.27 657.73 295.49 648.87 C 315.2 639.28 334.16 627.56 355.15 621.25 C 371.56 616.31 388.91 611.95 405.98 613.51 C 425 615.26 444.49 621.31 460.11 632.3 C 482.18 647.81 510.94 695.27 510.94 695.27"
horiz-adv-x="518"/>
<glyph unicode="§" glyph-name="§" d="M 189.56 88.72 C 259.74 88.72 316.63 31.83 316.63 -38.35 C 316.63 -108.53 259.74 -165.42 189.56 -165.42 C 124.46 -165.42 70.8 -116.46 63.38 -53.36 M 348.12 168.26 C 348.12 127.67 332 88.75 303.3 60.05 C 274.6 31.36 235.68 15.23 195.09 15.24 C 110.58 15.24 42.07 83.75 42.07 168.26 C 42.07 252.77 110.58 321.28 195.09 321.28 C 235.68 321.28 274.6 305.16 303.3 276.46 C 332 247.77 348.12 208.84 348.12 168.26 Z M 190.38 248.36 C 120.67 248.36 64.15 305.37 64.15 375.69 C 64.15 446.02 120.67 503.03 190.38 503.03 C 255.21 503.03 308.63 453.71 315.79 390.24"
horiz-adv-x="391"/>
<glyph unicode="«" glyph-name="«" d="M 213.67 404.7 L 119.76 250.02 L 214.78 93.13 M 142.96 404.7 L 46.84 247.81 L 142.96 90.92"
horiz-adv-x="256"/>
<glyph unicode="°" glyph-name="°" d="M 167.87 473.96 C 167.87 439.98 140.17 412.43 106 412.43 C 71.83 412.43 44.13 439.98 44.13 473.96 C 44.13 507.94 71.83 535.49 106 535.49 C 140.17 535.49 167.87 507.94 167.87 473.96 Z"
horiz-adv-x="231"/>
<glyph unicode="±" glyph-name="±" d="M 195.18 435.63 L 195.18 96.44 M 27.24 51.14 L 366.43 51.14 M 22.82 265.49 L 363.12 265.49"
horiz-adv-x="403"/>
<glyph unicode="²" glyph-name="²" d="M 52.33 405.8 C 52.33 405.8 49.72 424.33 51.23 433.42 C 53.24 445.5 57.44 457.67 64.49 467.67 C 70.66 476.42 79.49 483.37 88.79 488.67 C 95.88 492.7 103.94 495.09 111.99 496.4 C 123.26 498.23 135.09 498.85 146.24 496.4 C 156.54 494.14 166.7 489.69 174.97 483.14 C 183.4 476.47 190.24 467.44 194.86 457.73 C 200.54 445.79 204.61 432.25 203.7 419.06 C 202.7 404.52 195.47 390.83 188.23 378.18 C 178.6 361.36 151.77 332.88 151.77 332.88 L 43.49 204.72 L 224.69 203.61"
horiz-adv-x="258"/>
<glyph unicode="³" glyph-name="³" d="M 134.34 391.43 C 187.73 391.43 231.01 347.91 231.01 294.21 C 231.01 240.52 187.73 196.99 134.34 196.99 C 90.06 196.99 52.74 226.94 41.29 267.79 M 66.09 450.42 C 75.96 478.49 102.54 498.59 133.78 498.59 C 173.43 498.59 205.58 466.2 205.58 426.24 C 205.58 386.28 173.43 353.89 133.78 353.89"
horiz-adv-x="277"/>
<glyph unicode="»" glyph-name="»" d="M 121.26 404.7 L 218.49 250.02 L 121.26 92.02 M 51.66 404.7 L 144.47 250.02 L 49.45 92.02"
horiz-adv-x="280"/>
<glyph unicode="¼" glyph-name="¼" d="M 464.55 3.64 L 465.66 297.53 L 301.03 85.39 L 508.75 86.5 M 401.58 503.03 L 96.64 -6.31 M 28.14 490.88 L 125.36 489.77 L 126.47 202.51"
horiz-adv-x="536"/>
<glyph unicode="½" glyph-name="½" d="M 338.28 206.93 C 338.28 206.93 336.39 226.27 338.28 235.65 C 340.72 247.79 346.33 259.99 353.74 269.9 C 361.42 280.18 370.69 288.04 382.47 293.11 C 393.05 297.65 405.21 300.01 416.72 299.74 C 427.19 299.48 437.12 297.66 446.56 293.11 C 457.61 287.78 468.1 278.74 475.28 268.8 C 483.01 258.1 489.64 245.5 490.75 232.34 C 491.96 218.01 486.86 203.4 480.81 190.36 C 472.72 172.91 446.55 143.95 446.55 143.95 L 328.34 5.84 L 511.74 6.95 M 412.3 503.03 L 109.57 -5.2 M 37.76 490.88 L 136.09 490.88 L 136.09 202.51"
horiz-adv-x="543"/>
<glyph unicode="¾" glyph-name="¾" d="M 472.75 5.84 L 471.65 295.32 L 310.34 85.39 L 513.63 86.5 M 430.77 503.03 L 124.72 -5.2 M 117.56 391.39 C 171.53 391.39 215.29 347.88 215.29 294.21 C 215.29 240.54 171.53 197.04 117.56 197.04 C 73.38 197.03 36.05 226.18 23.95 266.19 M 52.43 452.4 C 62.95 478.85 88.62 497.53 118.63 497.53 C 158 497.53 189.91 465.36 189.91 425.69 C 189.91 386.02 158 353.85 118.63 353.85"
horiz-adv-x="545"/>
<glyph unicode="A" glyph-name="A" d="M 467.5 247.81 L 467.5 9.16 M 544.84 248.36 C 544.84 180.82 518.07 116.05 470.42 68.29 C 422.76 20.54 358.13 -6.29 290.74 -6.29 C 150.41 -6.29 36.65 107.72 36.65 248.36 C 36.65 389 150.41 503.01 290.74 503.01 C 358.13 503.01 422.76 476.18 470.42 428.43 C 518.07 380.67 544.84 315.9 544.84 248.36 Z"
horiz-adv-x="605"/>
<glyph unicode="B" glyph-name="B" d="M 114.74 659.92 L 114.74 247.81 M 545.6 248.36 C 545.6 107.73 431.84 -6.28 291.51 -6.28 C 151.18 -6.28 37.42 107.73 37.42 248.36 C 37.42 389 151.18 503 291.51 503 C 431.84 503 545.6 389 545.6 248.36 Z"
horiz-adv-x="582"/>
<glyph unicode="C" glyph-name="C" d="M 450.61 75.16 C 404.59 25.06 338.81 -6.3 265.77 -6.3 C 126.65 -6.3 13.88 107.47 13.88 247.81 C 13.88 388.14 126.65 501.91 265.77 501.91 C 337.12 501.92 401.54 471.99 447.37 423.91"
horiz-adv-x="457"/>
<glyph unicode="D" glyph-name="D" d="M 466.55 661.02 L 466.55 246.7 M 544.99 247.81 C 544.99 180.41 518.22 115.78 470.56 68.13 C 422.91 20.47 358.27 -6.3 290.88 -6.3 C 223.49 -6.3 158.85 20.47 111.2 68.13 C 63.54 115.78 36.77 180.41 36.77 247.81 C 36.77 315.2 63.54 379.84 111.2 427.49 C 158.85 475.14 223.49 501.92 290.88 501.92 C 358.27 501.92 422.91 475.14 470.56 427.49 C 518.22 379.84 544.99 315.2 544.99 247.81 Z"
horiz-adv-x="583"/>
<glyph unicode="E" glyph-name="E" d="M 445.62 58.58 C 401.56 19.15 343.63 -5.12 279.91 -5.92 C 139.89 -7.68 24.97 104.57 23.22 244.8 C 21.47 385.02 133.56 500.12 273.57 501.89 C 413.59 503.65 528.52 391.4 530.27 251.16 C 431.97 251.12 112.67 251.12 112.67 251.12"
horiz-adv-x="561"/>
<glyph unicode="F" glyph-name="F" d="M 280.29 661.02 C 280.29 661.02 231.93 655.98 208.47 649.97 C 191.77 645.7 175.45 639.66 159.86 632.3 C 142.84 624.26 126.04 615.21 111.25 603.57 C 96.3 591.82 82.67 578.06 71.47 562.69 C 59.44 546.18 50.07 527.63 42.75 508.55 C 35.68 490.12 31.78 470.55 28.38 451.1 C 25.25 433.23 22.41 415.1 22.86 396.96 C 23.91 354.29 23.96 252.23 23.96 252.23 L 23.96 4.74 M 23.96 251.12 L 278.08 251.12"
horiz-adv-x="303"/>
<glyph unicode="G" glyph-name="G" d="M 466.69 250.02 L 466.69 8.05 C 466.69 8.05 465.74 -8.95 464.48 -17.36 C 461.87 -34.86 459.8 -52.77 453.43 -69.29 C 446.84 -86.38 437.72 -102.88 425.81 -116.79 C 414.4 -130.12 400.2 -141.31 384.93 -149.94 C 368.9 -158.99 351.06 -165.18 333 -168.72 C 314.92 -172.27 296.03 -173.35 277.76 -170.93 C 259.4 -168.5 241.29 -162.65 224.73 -154.36 C 210.1 -147.04 196.8 -136.91 184.95 -125.63 C 172.99 -114.25 162.59 -101.07 154.01 -86.96 C 146.47 -74.57 140.38 -61.12 136.34 -47.19 C 132.82 -35.03 130.81 -9.62 130.81 -9.62 M 545.1 248.36 C 545.1 108.33 431.59 -5.18 291.56 -5.18 C 151.53 -5.18 38.02 108.33 38.02 248.36 C 38.02 388.39 151.53 501.9 291.56 501.9 C 431.59 501.9 545.1 388.39 545.1 248.36 Z"
horiz-adv-x="584"/>
<glyph unicode="H" glyph-name="H" d="M 48.73 662.13 L 49.84 2.53 L 48.73 309.68 C 48.73 309.68 52.36 371.65 63.1 400.28 C 70.89 421.04 83.12 440.61 98.45 456.63 C 111.45 470.21 127.8 480.76 144.86 488.67 C 157.67 494.6 171.8 497.5 185.74 499.71 C 199.94 501.97 214.5 503.17 228.82 501.92 C 241.99 500.78 255.23 498.04 267.49 493.09 C 282.66 486.95 296.6 477.77 309.48 467.67 C 322.19 457.71 334.59 446.73 343.73 433.42 C 354 418.47 361.05 401.2 365.83 383.7 C 370.91 365.11 372.46 326.25 372.46 326.25 L 372.46 3.64"
horiz-adv-x="436"/>
<glyph unicode="I" glyph-name="I" d="M 89.31 580.37 C 89.31 571.57 85.82 563.13 79.59 556.91 C 73.37 550.69 64.94 547.2 56.14 547.2 C 47.34 547.2 38.91 550.69 32.69 556.91 C 26.46 563.13 22.97 571.57 22.97 580.37 C 22.97 589.17 26.46 597.6 32.69 603.82 C 38.91 610.04 47.34 613.54 56.14 613.54 C 64.94 613.54 73.37 610.04 79.59 603.82 C 85.82 597.6 89.31 589.17 89.31 580.37 Z M 56.14 493.09 L 56.14 5.84"
horiz-adv-x="126"/>
<glyph unicode="J" glyph-name="J" d="M 270.17 489.77 L 271.27 97.55 C 271.27 97.55 270.16 73.21 269.06 61.09 C 267.95 48.9 266.9 36.66 264.64 24.63 C 261.9 10.05 258.99 -4.65 253.6 -18.46 C 247.66 -33.66 239.62 -48.1 230.39 -61.55 C 218.86 -78.35 205.48 -94.03 190.61 -107.96 C 178.52 -119.29 165.25 -129.59 150.84 -137.79 C 133.19 -147.83 113.99 -155.27 94.5 -160.99 C 74.74 -166.78 33.73 -172.04 33.73 -172.04 M 303.31 580.37 C 303.31 562.06 288.72 547.23 270.72 547.22 C 252.72 547.23 238.13 562.06 238.13 580.37 C 238.13 598.67 252.72 613.51 270.72 613.51 C 288.72 613.51 303.31 598.67 303.31 580.37 Z"
horiz-adv-x="338"/>
<glyph unicode="K" glyph-name="K" d="M 343.87 490.88 C 343.87 490.88 331.99 461.85 325.09 447.79 C 317.32 431.95 309.34 416.13 299.68 401.38 C 291.77 389.3 282.61 378.05 273.16 367.13 C 262.76 355.12 252.11 343.19 240.02 332.88 C 226.34 321.21 211.48 310.78 195.82 301.95 C 177.58 291.66 158.16 283.37 138.37 276.53 C 115.74 268.72 92.42 262.48 68.76 258.86 C 55.64 256.84 28.99 256.65 28.99 256.65 C 28.99 256.65 55.57 259.11 68.76 257.75 C 83.07 256.28 96.85 251.5 110.75 247.81 C 123.36 244.46 135.96 240.97 148.31 236.76 C 161.78 232.17 175.25 227.42 188.09 221.29 C 201.49 214.9 214.37 207.38 226.76 199.19 C 239.48 190.79 251.73 181.59 263.22 171.57 C 275 161.31 286.02 150.14 296.36 138.43 C 304.7 128.98 312.38 118.94 319.57 108.6 C 327.97 96.51 335.9 84.05 342.77 71.03 C 349.54 58.2 355.36 44.84 360.45 31.26 C 363.96 21.87 369.28 2.53 369.28 2.53 M 27.88 659.92 L 27.88 3.64"
horiz-adv-x="375"/>
<glyph unicode="L" glyph-name="L" d="M 51.87 661.02 L 51.87 6.95"
horiz-adv-x="119"/>
<glyph unicode="M" glyph-name="M" d="M 293.17 -7.83 L 293.17 311.47 C 293.17 311.47 296.28 356.49 303.11 377.77 C 308.8 395.49 317.58 412.43 328.53 427.48 C 338.03 440.54 349.56 452.46 362.78 461.73 C 378.43 472.71 396.3 480.87 414.7 486.04 C 430.75 490.56 447.78 492.65 464.42 491.57 C 484.48 490.26 504.8 485.76 522.98 477.2 C 539.17 469.58 553.26 457.67 566.07 445.16 C 576.77 434.71 586.76 423.06 593.69 409.81 C 603.51 391.02 608.81 369.92 612.47 349.04 C 616.48 326.16 615.79 279.43 615.79 279.43 L 615.79 142.43 L 616.89 -5.62 M 49.34 -7.41 L 49.34 311.89 C 49.34 311.89 52.45 356.91 59.28 378.18 C 64.97 395.9 73.75 412.85 84.7 427.9 C 94.2 440.95 105.73 452.88 118.95 462.15 C 134.6 473.12 152.47 481.28 170.87 486.46 C 186.92 490.97 203.95 493.06 220.59 491.98 C 240.65 490.68 260.97 486.18 279.15 477.62 C 295.34 469.99 309.43 458.08 322.24 445.58 C 332.94 435.13 342.93 423.48 349.86 410.22 C 359.68 391.43 364.98 370.34 368.64 349.45 C 372.65 326.58 371.96 279.85 371.96 279.85 L 371.96 142.85 L 373.06 -5.2"
horiz-adv-x="684"/>
<glyph unicode="N" glyph-name="N" d="M 50.13 490.88 C 50.03 328.35 49.94 165.83 49.85 3.3 C 49.95 110.39 49.65 217.5 50 324.58 C 52.48 362.33 58.4 401.47 81.21 432.88 C 121.26 495.54 208.68 520.34 276.23 489.89 C 306.9 475.08 333.21 450.33 350.37 420.94 C 377.83 367.63 371.77 306.72 372.47 248.82 C 372.21 167.71 372.95 86.61 373.57 5.51"
horiz-adv-x="443"/>
<glyph unicode="O" glyph-name="O" d="M 545.88 248.36 C 545.88 108.33 432.97 -6.29 292.33 -6.29 C 151.69 -6.29 37.68 108.33 37.68 248.36 C 37.68 388.39 151.69 501.9 292.33 501.9 C 432.97 501.9 545.88 388.39 545.88 248.36 Z"
horiz-adv-x="604"/>
<glyph unicode="P" glyph-name="P" d="M 113.56 247.81 L 113.56 -166.51 M 543.34 248.36 C 543.34 108.33 430.43 -6.29 289.79 -6.29 C 149.15 -6.29 35.14 108.33 35.14 248.36 C 35.14 388.39 149.15 501.9 289.79 501.9 C 430.43 501.9 543.34 388.39 543.34 248.36 Z"
horiz-adv-x="580"/>
<glyph unicode="Q" glyph-name="Q" d="M 467.9 245.6 L 467.9 -167.62 M 544.85 249.1 C 544.85 109.07 431.94 -5.55 291.3 -5.55 C 150.66 -5.55 36.65 109.07 36.65 249.1 C 36.65 389.13 150.66 502.65 291.3 502.65 C 431.94 502.65 544.85 389.13 544.85 249.1 Z"
horiz-adv-x="595"/>
<glyph unicode="R" glyph-name="R" d="M 32.27 490.88 L 33.38 3.63 L 33.38 261.07 C 33.38 261.07 38.23 314.8 45.53 340.62 C 50.42 357.93 57.18 374.96 66.52 390.33 C 78.2 409.56 92.78 427.34 109.61 442.26 C 124.36 455.34 141.52 465.84 159.33 474.3 C 175.42 481.95 210.15 490.88 210.15 490.88"
horiz-adv-x="245"/>
<glyph unicode="S" glyph-name="S" d="M 186.59 313.63 C 190.15 313.86 193.75 313.97 197.38 313.97 C 286.41 313.97 350.58 237.21 350.58 155.19 C 350.58 78.7 290.83 -4.66 197.38 -4.66 C 98.85 -4.66 35.49 67.28 31.11 146.18 M 319.38 384.96 C 311.43 452.39 251.01 503.22 193.2 502.19 C 115.72 500.81 55.1 444.7 55.1 369.95 C 55.1 297.69 111.75 240.71 185.54 237.01 C 188.07 236.88 190.63 236.82 193.2 236.82"
horiz-adv-x="391"/>
<glyph unicode="T" glyph-name="T" d="M 10.64 490.88 L 302.32 490.88 M 90.19 581.47 L 90.19 4.74"
horiz-adv-x="325"/>
<glyph unicode="U" glyph-name="U" d="M 51.19 491.98 C 51.19 491.98 52.02 263.12 52.3 170.47 C 52.3 156.4 54.04 142.3 56.72 128.48 C 59.78 112.69 63.05 96.6 69.98 82.08 C 77.16 67.05 87.21 53.25 98.71 41.2 C 108.68 30.76 120.41 21.83 132.96 14.68 C 147.76 6.26 163.81 -0.54 180.46 -4.1 C 196.68 -7.57 213.72 -8.35 230.18 -6.31 C 245.44 -4.41 260.16 1.09 274.38 6.95 C 285.96 11.72 297.46 17.17 307.52 24.63 C 319.24 33.31 329.87 43.77 338.46 55.56 C 348.45 69.28 355.6 85.02 361.66 100.86 C 366.83 114.38 370.75 128.51 372.71 142.85 C 376.25 168.76 373.81 221.29 373.81 221.29 L 373.81 491.98 L 373.81 3.63"
horiz-adv-x="444"/>
<glyph unicode="V" glyph-name="V" d="M 13.31 495.3 L 207.77 -0.78 L 400.01 494.19"
horiz-adv-x="427"/>
<glyph unicode="W" glyph-name="W" d="M 49.51 491.57 L 50.61 343.52 L 50.61 206.52 C 50.61 206.52 49.92 159.8 53.93 136.92 C 57.59 116.03 62.89 94.94 72.71 76.15 C 79.64 62.89 89.63 51.24 100.33 40.79 C 113.14 28.29 127.23 16.38 143.42 8.75 C 161.6 0.19 181.92 -4.31 201.98 -5.61 C 218.62 -6.69 235.65 -4.6 251.7 -0.09 C 270.1 5.09 287.97 13.25 303.62 24.22 C 316.84 33.49 328.37 45.42 337.87 58.47 C 348.82 73.52 357.6 90.47 363.29 108.19 C 370.12 129.46 373.23 174.48 373.23 174.48 L 373.23 493.78 M 293.34 491.99 L 294.44 343.94 L 294.44 206.94 C 294.44 206.94 293.75 160.21 297.76 137.33 C 301.42 116.45 306.72 95.36 316.54 76.57 C 323.47 63.31 333.46 51.66 344.16 41.21 C 356.97 28.7 371.06 16.79 387.25 9.17 C 405.43 0.61 425.75 -3.89 445.81 -5.19 C 462.45 -6.28 479.48 -4.19 495.53 0.33 C 513.93 5.51 531.8 13.66 547.45 24.64 C 560.67 33.91 572.2 45.83 581.7 58.89 C 592.65 73.94 601.43 90.88 607.12 108.61 C 613.95 129.88 617.06 174.9 617.06 174.9 L 617.06 494.2"
horiz-adv-x="684"/>
<glyph unicode="X" glyph-name="X" d="M 438.1 490.93 C 304.18 490.93 195.61 382.36 195.61 248.44 C 195.61 114.51 304.18 5.94 438.1 5.94 M 17.64 490.86 C 151.57 490.86 260.14 382.29 260.14 248.36 C 260.14 114.43 151.57 5.86 17.64 5.87"
horiz-adv-x="474"/>
<glyph unicode="Y" glyph-name="Y" d="M 51.92 492.52 C 51.92 492.52 52.75 263.65 53.03 171 C 53.03 156.93 54.77 142.83 57.45 129.02 C 60.51 113.23 63.78 97.13 70.71 82.61 C 77.89 67.59 87.94 53.78 99.44 41.74 C 109.41 31.29 121.14 22.36 133.69 15.22 C 148.49 6.79 164.54 -0.01 181.19 -3.56 C 197.41 -7.03 214.45 -7.82 230.91 -5.77 C 246.17 -3.88 260.89 1.63 275.11 7.48 C 286.69 12.25 298.19 17.71 308.25 25.16 C 319.97 33.84 330.6 44.31 339.19 56.1 C 349.18 69.81 356.33 85.55 362.39 101.4 C 367.56 114.91 371.48 129.04 373.44 143.38 C 376.98 169.29 374.54 221.83 374.54 221.83 L 374.54 492.52 L 374.54 -165.83"
horiz-adv-x="436"/>
<glyph unicode="Z" glyph-name="Z" d="M 17.55 490.88 L 307.03 490.88 L 10.93 5.84 L 321.39 5.84"
horiz-adv-x="338"/>
<glyph unicode="a" glyph-name="a" d="M 467.5 247.81 L 467.5 9.16 M 544.84 248.36 C 544.84 180.82 518.07 116.05 470.42 68.29 C 422.76 20.54 358.13 -6.29 290.74 -6.29 C 150.41 -6.29 36.65 107.72 36.65 248.36 C 36.65 389 150.41 503.01 290.74 503.01 C 358.13 503.01 422.76 476.18 470.42 428.43 C 518.07 380.67 544.84 315.9 544.84 248.36 Z"
horiz-adv-x="605"/>
<glyph unicode="b" glyph-name="b" d="M 114.74 659.92 L 114.74 247.81 M 545.6 248.36 C 545.6 107.73 431.84 -6.28 291.51 -6.28 C 151.18 -6.28 37.42 107.73 37.42 248.36 C 37.42 389 151.18 503 291.51 503 C 431.84 503 545.6 389 545.6 248.36 Z"
horiz-adv-x="582"/>
<glyph unicode="c" glyph-name="c" d="M 450.61 75.16 C 404.59 25.06 338.81 -6.3 265.77 -6.3 C 126.65 -6.3 13.88 107.47 13.88 247.81 C 13.88 388.14 126.65 501.91 265.77 501.91 C 337.12 501.92 401.54 471.99 447.37 423.91"
horiz-adv-x="457"/>
<glyph unicode="d" glyph-name="d" d="M 466.55 661.02 L 466.55 246.7 M 544.99 247.81 C 544.99 180.41 518.22 115.78 470.56 68.13 C 422.91 20.47 358.27 -6.3 290.88 -6.3 C 223.49 -6.3 158.85 20.47 111.2 68.13 C 63.54 115.78 36.77 180.41 36.77 247.81 C 36.77 315.2 63.54 379.84 111.2 427.49 C 158.85 475.14 223.49 501.92 290.88 501.92 C 358.27 501.92 422.91 475.14 470.56 427.49 C 518.22 379.84 544.99 315.2 544.99 247.81 Z"
horiz-adv-x="583"/>
<glyph unicode="e" glyph-name="e" d="M 445.62 58.58 C 401.56 19.15 343.63 -5.12 279.91 -5.92 C 139.89 -7.68 24.97 104.57 23.22 244.8 C 21.47 385.02 133.56 500.12 273.57 501.89 C 413.59 503.65 528.52 391.4 530.27 251.16 C 431.97 251.12 112.67 251.12 112.67 251.12"
horiz-adv-x="561"/>
<glyph unicode="f" glyph-name="f" d="M 280.29 661.02 C 280.29 661.02 231.93 655.98 208.47 649.97 C 191.77 645.7 175.45 639.66 159.86 632.3 C 142.84 624.26 126.04 615.21 111.25 603.57 C 96.3 591.82 82.67 578.06 71.47 562.69 C 59.44 546.18 50.07 527.63 42.75 508.55 C 35.68 490.12 31.78 470.55 28.38 451.1 C 25.25 433.23 22.41 415.1 22.86 396.96 C 23.91 354.29 23.96 252.23 23.96 252.23 L 23.96 4.74 M 23.96 251.12 L 278.08 251.12"
horiz-adv-x="303"/>
<glyph unicode="g" glyph-name="g" d="M 466.69 250.02 L 466.69 8.05 C 466.69 8.05 465.74 -8.95 464.48 -17.36 C 461.87 -34.86 459.8 -52.77 453.43 -69.29 C 446.84 -86.38 437.72 -102.88 425.81 -116.79 C 414.4 -130.12 400.2 -141.31 384.93 -149.94 C 368.9 -158.99 351.06 -165.18 333 -168.72 C 314.92 -172.27 296.03 -173.35 277.76 -170.93 C 259.4 -168.5 241.29 -162.65 224.73 -154.36 C 210.1 -147.04 196.8 -136.91 184.95 -125.63 C 172.99 -114.25 162.59 -101.07 154.01 -86.96 C 146.47 -74.57 140.38 -61.12 136.34 -47.19 C 132.82 -35.03 130.81 -9.62 130.81 -9.62 M 545.1 248.36 C 545.1 108.33 431.59 -5.18 291.56 -5.18 C 151.53 -5.18 38.02 108.33 38.02 248.36 C 38.02 388.39 151.53 501.9 291.56 501.9 C 431.59 501.9 545.1 388.39 545.1 248.36 Z"
horiz-adv-x="584"/>
<glyph unicode="h" glyph-name="h" d="M 48.73 662.13 L 49.84 2.53 L 48.73 309.68 C 48.73 309.68 52.36 371.65 63.1 400.28 C 70.89 421.04 83.12 440.61 98.45 456.63 C 111.45 470.21 127.8 480.76 144.86 488.67 C 157.67 494.6 171.8 497.5 185.74 499.71 C 199.94 501.97 214.5 503.17 228.82 501.92 C 241.99 500.78 255.23 498.04 267.49 493.09 C 282.66 486.95 296.6 477.77 309.48 467.67 C 322.19 457.71 334.59 446.73 343.73 433.42 C 354 418.47 361.05 401.2 365.83 383.7 C 370.91 365.11 372.46 326.25 372.46 326.25 L 372.46 3.64"
horiz-adv-x="436"/>
<glyph unicode="i" glyph-name="i" d="M 89.31 580.37 C 89.31 571.57 85.82 563.13 79.59 556.91 C 73.37 550.69 64.94 547.2 56.14 547.2 C 47.34 547.2 38.91 550.69 32.69 556.91 C 26.46 563.13 22.97 571.57 22.97 580.37 C 22.97 589.17 26.46 597.6 32.69 603.82 C 38.91 610.04 47.34 613.54 56.14 613.54 C 64.94 613.54 73.37 610.04 79.59 603.82 C 85.82 597.6 89.31 589.17 89.31 580.37 Z M 56.14 493.09 L 56.14 5.84"
horiz-adv-x="126"/>
<glyph unicode="j" glyph-name="j" d="M 270.17 489.77 L 271.27 97.55 C 271.27 97.55 270.16 73.21 269.06 61.09 C 267.95 48.9 266.9 36.66 264.64 24.63 C 261.9 10.05 258.99 -4.65 253.6 -18.46 C 247.66 -33.66 239.62 -48.1 230.39 -61.55 C 218.86 -78.35 205.48 -94.03 190.61 -107.96 C 178.52 -119.29 165.25 -129.59 150.84 -137.79 C 133.19 -147.83 113.99 -155.27 94.5 -160.99 C 74.74 -166.78 33.73 -172.04 33.73 -172.04 M 303.31 580.37 C 303.31 562.06 288.72 547.23 270.72 547.22 C 252.72 547.23 238.13 562.06 238.13 580.37 C 238.13 598.67 252.72 613.51 270.72 613.51 C 288.72 613.51 303.31 598.67 303.31 580.37 Z"
horiz-adv-x="338"/>
<glyph unicode="k" glyph-name="k" d="M 343.87 490.88 C 343.87 490.88 331.99 461.85 325.09 447.79 C 317.32 431.95 309.34 416.13 299.68 401.38 C 291.77 389.3 282.61 378.05 273.16 367.13 C 262.76 355.12 252.11 343.19 240.02 332.88 C 226.34 321.21 211.48 310.78 195.82 301.95 C 177.58 291.66 158.16 283.37 138.37 276.53 C 115.74 268.72 92.42 262.48 68.76 258.86 C 55.64 256.84 28.99 256.65 28.99 256.65 C 28.99 256.65 55.57 259.11 68.76 257.75 C 83.07 256.28 96.85 251.5 110.75 247.81 C 123.36 244.46 135.96 240.97 148.31 236.76 C 161.78 232.17 175.25 227.42 188.09 221.29 C 201.49 214.9 214.37 207.38 226.76 199.19 C 239.48 190.79 251.73 181.59 263.22 171.57 C 275 161.31 286.02 150.14 296.36 138.43 C 304.7 128.98 312.38 118.94 319.57 108.6 C 327.97 96.51 335.9 84.05 342.77 71.03 C 349.54 58.2 355.36 44.84 360.45 31.26 C 363.96 21.87 369.28 2.53 369.28 2.53 M 27.88 659.92 L 27.88 3.64"
horiz-adv-x="375"/>
<glyph unicode="l" glyph-name="l" d="M 51.87 661.02 L 51.87 6.95"
horiz-adv-x="119"/>
<glyph unicode="M" glyph-name="M" d="M 293.17 -7.83 L 293.17 311.47 C 293.17 311.47 296.28 356.49 303.11 377.77 C 308.8 395.49 317.58 412.43 328.53 427.48 C 338.03 440.54 349.56 452.46 362.78 461.73 C 378.43 472.71 396.3 480.87 414.7 486.04 C 430.75 490.56 447.78 492.65 464.42 491.57 C 484.48 490.26 504.8 485.76 522.98 477.2 C 539.17 469.58 553.26 457.67 566.07 445.16 C 576.77 434.71 586.76 423.06 593.69 409.81 C 603.51 391.02 608.81 369.92 612.47 349.04 C 616.48 326.16 615.79 279.43 615.79 279.43 L 615.79 142.43 L 616.89 -5.62 M 49.34 -7.41 L 49.34 311.89 C 49.34 311.89 52.45 356.91 59.28 378.18 C 64.97 395.9 73.75 412.85 84.7 427.9 C 94.2 440.95 105.73 452.88 118.95 462.15 C 134.6 473.12 152.47 481.28 170.87 486.46 C 186.92 490.97 203.95 493.06 220.59 491.98 C 240.65 490.68 260.97 486.18 279.15 477.62 C 295.34 469.99 309.43 458.08 322.24 445.58 C 332.94 435.13 342.93 423.48 349.86 410.22 C 359.68 391.43 364.98 370.34 368.64 349.45 C 372.65 326.58 371.96 279.85 371.96 279.85 L 371.96 142.85 L 373.06 -5.2"
horiz-adv-x="684"/>
<glyph unicode="n" glyph-name="n" d="M 50.13 490.88 C 50.03 328.35 49.94 165.83 49.85 3.3 C 49.95 110.39 49.65 217.5 50 324.58 C 52.48 362.33 58.4 401.47 81.21 432.88 C 121.26 495.54 208.68 520.34 276.23 489.89 C 306.9 475.08 333.21 450.33 350.37 420.94 C 377.83 367.63 371.77 306.72 372.47 248.82 C 372.21 167.71 372.95 86.61 373.57 5.51"
horiz-adv-x="443"/>
<glyph unicode="o" glyph-name="o" d="M 545.88 248.36 C 545.88 108.33 432.97 -6.29 292.33 -6.29 C 151.69 -6.29 37.68 108.33 37.68 248.36 C 37.68 388.39 151.69 501.9 292.33 501.9 C 432.97 501.9 545.88 388.39 545.88 248.36 Z"
horiz-adv-x="604"/>
<glyph unicode="p" glyph-name="p" d="M 113.56 247.81 L 113.56 -166.51 M 543.34 248.36 C 543.34 108.33 430.43 -6.29 289.79 -6.29 C 149.15 -6.29 35.14 108.33 35.14 248.36 C 35.14 388.39 149.15 501.9 289.79 501.9 C 430.43 501.9 543.34 388.39 543.34 248.36 Z"
horiz-adv-x="580"/>
<glyph unicode="q" glyph-name="q" d="M 467.9 245.6 L 467.9 -167.62 M 544.85 249.1 C 544.85 109.07 431.94 -5.55 291.3 -5.55 C 150.66 -5.55 36.65 109.07 36.65 249.1 C 36.65 389.13 150.66 502.65 291.3 502.65 C 431.94 502.65 544.85 389.13 544.85 249.1 Z"
horiz-adv-x="595"/>
<glyph unicode="r" glyph-name="r" d="M 32.27 490.88 L 33.38 3.63 L 33.38 261.07 C 33.38 261.07 38.23 314.8 45.53 340.62 C 50.42 357.93 57.18 374.96 66.52 390.33 C 78.2 409.56 92.78 427.34 109.61 442.26 C 124.36 455.34 141.52 465.84 159.33 474.3 C 175.42 481.95 210.15 490.88 210.15 490.88"
horiz-adv-x="245"/>
<glyph unicode="s" glyph-name="s" d="M 186.59 313.63 C 190.15 313.86 193.75 313.97 197.38 313.97 C 286.41 313.97 350.58 237.21 350.58 155.19 C 350.58 78.7 290.83 -4.66 197.38 -4.66 C 98.85 -4.66 35.49 67.28 31.11 146.18 M 319.38 384.96 C 311.43 452.39 251.01 503.22 193.2 502.19 C 115.72 500.81 55.1 444.7 55.1 369.95 C 55.1 297.69 111.75 240.71 185.54 237.01 C 188.07 236.88 190.63 236.82 193.2 236.82"
horiz-adv-x="391"/>
<glyph unicode="t" glyph-name="t" d="M 10.64 490.88 L 302.32 490.88 M 90.19 581.47 L 90.19 4.74"
horiz-adv-x="325"/>
<glyph unicode="u" glyph-name="u" d="M 51.19 491.98 C 51.19 491.98 52.02 263.12 52.3 170.47 C 52.3 156.4 54.04 142.3 56.72 128.48 C 59.78 112.69 63.05 96.6 69.98 82.08 C 77.16 67.05 87.21 53.25 98.71 41.2 C 108.68 30.76 120.41 21.83 132.96 14.68 C 147.76 6.26 163.81 -0.54 180.46 -4.1 C 196.68 -7.57 213.72 -8.35 230.18 -6.31 C 245.44 -4.41 260.16 1.09 274.38 6.95 C 285.96 11.72 297.46 17.17 307.52 24.63 C 319.24 33.31 329.87 43.77 338.46 55.56 C 348.45 69.28 355.6 85.02 361.66 100.86 C 366.83 114.38 370.75 128.51 372.71 142.85 C 376.25 168.76 373.81 221.29 373.81 221.29 L 373.81 491.98 L 373.81 3.63"
horiz-adv-x="444"/>
<glyph unicode="v" glyph-name="v" d="M 13.31 495.3 L 207.77 -0.78 L 400.01 494.19"
horiz-adv-x="427"/>
<glyph unicode="w" glyph-name="w" d="M 49.51 491.57 L 50.61 343.52 L 50.61 206.52 C 50.61 206.52 49.92 159.8 53.93 136.92 C 57.59 116.03 62.89 94.94 72.71 76.15 C 79.64 62.89 89.63 51.24 100.33 40.79 C 113.14 28.29 127.23 16.38 143.42 8.75 C 161.6 0.19 181.92 -4.31 201.98 -5.61 C 218.62 -6.69 235.65 -4.6 251.7 -0.09 C 270.1 5.09 287.97 13.25 303.62 24.22 C 316.84 33.49 328.37 45.42 337.87 58.47 C 348.82 73.52 357.6 90.47 363.29 108.19 C 370.12 129.46 373.23 174.48 373.23 174.48 L 373.23 493.78 M 293.34 491.99 L 294.44 343.94 L 294.44 206.94 C 294.44 206.94 293.75 160.21 297.76 137.33 C 301.42 116.45 306.72 95.36 316.54 76.57 C 323.47 63.31 333.46 51.66 344.16 41.21 C 356.97 28.7 371.06 16.79 387.25 9.17 C 405.43 0.61 425.75 -3.89 445.81 -5.19 C 462.45 -6.28 479.48 -4.19 495.53 0.33 C 513.93 5.51 531.8 13.66 547.45 24.64 C 560.67 33.91 572.2 45.83 581.7 58.89 C 592.65 73.94 601.43 90.88 607.12 108.61 C 613.95 129.88 617.06 174.9 617.06 174.9 L 617.06 494.2"
horiz-adv-x="684"/>
<glyph unicode="x" glyph-name="x" d="M 438.1 490.93 C 304.18 490.93 195.61 382.36 195.61 248.44 C 195.61 114.51 304.18 5.94 438.1 5.94 M 17.64 490.86 C 151.57 490.86 260.14 382.29 260.14 248.36 C 260.14 114.43 151.57 5.86 17.64 5.87"
horiz-adv-x="474"/>
<glyph unicode="y" glyph-name="y" d="M 51.92 492.52 C 51.92 492.52 52.75 263.65 53.03 171 C 53.03 156.93 54.77 142.83 57.45 129.02 C 60.51 113.23 63.78 97.13 70.71 82.61 C 77.89 67.59 87.94 53.78 99.44 41.74 C 109.41 31.29 121.14 22.36 133.69 15.22 C 148.49 6.79 164.54 -0.01 181.19 -3.56 C 197.41 -7.03 214.45 -7.82 230.91 -5.77 C 246.17 -3.88 260.89 1.63 275.11 7.48 C 286.69 12.25 298.19 17.71 308.25 25.16 C 319.97 33.84 330.6 44.31 339.19 56.1 C 349.18 69.81 356.33 85.55 362.39 101.4 C 367.56 114.91 371.48 129.04 373.44 143.38 C 376.98 169.29 374.54 221.83 374.54 221.83 L 374.54 492.52 L 374.54 -165.83"
horiz-adv-x="436"/>
<glyph unicode="z" glyph-name="z" d="M 17.55 490.88 L 307.03 490.88 L 10.93 5.84 L 321.39 5.84"
horiz-adv-x="338"/>
<glyph unicode="А" glyph-name="А" d="M 466.58 247.81 L 467.69 4.74 M 545.01 247.81 C 545.01 107.47 431.25 -6.29 290.91 -6.3 C 223.52 -6.3 158.88 20.47 111.23 68.13 C 63.57 115.78 36.8 180.41 36.8 247.81 C 36.8 315.2 63.57 379.84 111.23 427.49 C 158.88 475.14 223.52 501.92 290.91 501.91 C 431.25 501.91 545.01 388.14 545.01 247.81 Z"
horiz-adv-x="605"/>
<glyph unicode="Б" glyph-name="Б" d="M 243.86 421.75 C 362.41 427.4 463.08 336.13 468.71 217.89 C 474.34 99.65 382.81 -0.78 264.27 -6.43 C 145.73 -12.08 45.06 79.19 39.42 197.43 C 39.25 200.98 39.17 204.52 39.17 208.03 M 342.52 661.02 C 342.52 661.02 288.76 653.6 262.97 645.56 C 244.55 639.81 226.87 631.61 209.94 622.35 C 193.63 613.44 177.22 604 163.54 591.42 C 148.3 577.4 135.77 560.41 124.87 542.8 C 115.24 527.25 107.51 510.42 101.66 493.09 C 96.12 476.66 92.92 459.44 90.61 442.26 C 87.86 421.79 87.3 380.39 87.3 380.39 L 87.3 8.05"
horiz-adv-x="498"/>
<glyph unicode="В" glyph-name="В" d="M 242.86 421.17 C 361.18 424.2 459.55 330.99 462.57 212.97 C 465.6 94.95 372.13 -3.18 253.81 -6.21 C 135.49 -9.24 37.12 83.97 34.09 201.99 M 242.19 362.71 C 327.31 362.71 396.32 432.21 396.32 517.94 C 396.32 603.68 327.31 673.18 242.19 673.18 C 157.07 673.18 88.06 603.68 88.06 517.94 L 88.06 191.46"
horiz-adv-x="502"/>
<glyph unicode="Г" glyph-name="Г" d="M 19.26 5.84 L 21.47 273.22 C 21.67 297.35 28.74 321.24 36.94 343.93 C 44.56 365 54.65 385.52 67.88 403.59 C 80.18 420.4 95.71 434.88 112.07 447.79 C 127 459.56 143.25 470.03 160.68 477.62 C 179.61 485.86 200.15 489.96 220.35 494.19 C 238.19 497.93 274.48 501.92 274.48 501.92"
horiz-adv-x="297"/>
<glyph unicode="Д" glyph-name="Д" d="M 467.51 250.02 L 466.41 5.84 C 466.41 5.84 463.68 -40.74 456.47 -62.66 C 450.86 -79.72 442.28 -96.15 431.05 -110.16 C 417.98 -126.47 401.68 -140.68 383.54 -151.04 C 366.65 -160.69 347.52 -166.83 328.3 -169.83 C 307.92 -173.01 286.64 -172.84 266.43 -168.72 C 246.19 -164.6 226.52 -156.42 208.98 -145.52 C 193.47 -135.88 179.59 -123.25 168.09 -109.06 C 156.88 -95.22 147.76 -79.37 141.58 -62.66 C 135.47 -46.13 131.64 -10.73 131.64 -10.73 M 544.87 247.81 C 544.87 180.41 518.16 115.78 470.6 68.12 C 423.05 20.47 358.56 -6.3 291.31 -6.3 C 151.28 -6.3 37.76 107.47 37.76 247.81 C 37.76 388.15 151.28 501.91 291.31 501.92 C 358.56 501.92 423.05 475.15 470.6 427.49 C 518.16 379.84 544.87 315.2 544.87 247.81 Z"
horiz-adv-x="584"/>
<glyph unicode="Е" glyph-name="Е" d="M 446.62 58.41 C 402.58 18.97 344.66 -5.37 280.91 -6.32 C 140.58 -8.39 25.13 103.69 23.06 244.03 C 20.99 384.36 133.07 499.8 273.41 501.87 C 413.74 503.94 529.18 391.86 531.25 251.53 L 109.22 251.53"
horiz-adv-x="561"/>
<glyph unicode="Ё" glyph-name="Ё" d="M 366 640.03 L 366 590.31 M 188.11 643.35 L 188.11 588.1 M 111.88 250.02 L 530.62 250.02 C 530.62 250.02 530.37 290.18 526.2 309.68 C 522.35 327.68 515.71 345.18 507.42 361.61 C 497.85 380.57 486.4 398.95 472.07 414.64 C 452.29 436.3 428.86 455.03 403.57 469.88 C 382.34 482.35 359.05 491.96 335.06 497.5 C 309.88 503.33 283.43 505.7 257.72 503.03 C 225.72 499.71 193.75 490.79 164.92 476.51 C 137.33 462.85 111.93 443.75 90.89 421.27 C 69.6 398.52 51.76 371.7 40.07 342.83 C 30.07 318.12 25.92 291 24.6 264.38 C 23.26 237.41 25.47 209.85 32.33 183.73 C 38.78 159.17 49.8 135.64 63.27 114.12 C 76.31 93.3 92.65 74.35 110.78 57.77 C 127.37 42.61 146.03 29.37 166.02 19.1 C 184.77 9.47 205.02 2.29 225.68 -1.89 C 249.55 -6.71 274.34 -8.46 298.6 -6.31 C 323.51 -4.09 347.99 2.9 371.52 11.37 C 385.78 16.5 399.47 23.36 412.4 31.26 C 424.97 38.93 447.76 57.77 447.76 57.77"
horiz-adv-x="561"/>
<glyph unicode="Ж" glyph-name="Ж" d="M 291.2 495.3 L 291.2 4.74 M 40.4 493.09 C 40.4 493.09 42.47 454.36 47.03 435.63 C 51.69 416.49 58.94 397.87 68.02 380.39 C 74.99 366.97 84.09 354.71 93.43 342.83 C 103.58 329.91 114.16 317.12 126.58 306.37 C 138.01 296.47 150.91 288.26 164.14 280.95 C 181.75 271.23 200.27 262.91 219.39 256.65 C 232.3 252.42 245.66 249.29 259.16 247.81 C 280.76 245.44 302.85 244.63 324.35 247.81 C 344.52 250.79 364.09 257.63 382.9 265.49 C 400.69 272.91 418.05 281.88 433.73 293.11 C 449.62 304.49 463.96 318.16 476.82 332.88 C 488.65 346.42 498.99 361.38 507.75 377.08 C 516.35 392.49 523.73 408.76 528.74 425.69 C 534.99 446.82 539.79 490.88 539.79 490.88 M 40.4 -0.78 C 40.4 -0.78 45.77 51.61 53.65 76.56 C 60.65 98.7 70.65 120.17 83.48 139.53 C 93.57 154.75 106.28 168.3 119.95 180.41 C 139.76 197.95 161.51 213.79 185.13 225.71 C 203.53 235 223.39 242 243.69 245.6 C 259.29 248.36 275.36 247.02 291.2 246.7 C 306.33 246.4 321.64 246.67 336.5 243.81 C 355.09 240.23 373.24 233.96 390.48 226.13 C 410.43 217.07 429.79 206.14 446.99 192.57 C 461.1 181.44 473.44 168.02 484.55 153.9 C 496.93 138.16 507.96 121.14 516.59 103.07 C 523.97 87.62 529.29 71.14 533.16 54.46 C 537.1 37.46 539.79 2.53 539.79 2.53"
horiz-adv-x="570"/>
<glyph unicode="З" glyph-name="З" d="M 188.66 324.03 C 279.26 324.03 352.71 250.08 352.71 158.87 C 352.71 67.65 279.26 -6.29 188.66 -6.29 C 112.57 -6.29 48.57 45.86 30.02 116.59 M 76.56 426.79 C 94.62 470.86 138.26 501.94 189.22 501.94 C 256.35 501.94 310.77 448.02 310.77 381.5 C 310.77 314.98 256.35 261.05 189.22 261.05"
horiz-adv-x="409"/>
<glyph unicode="И" glyph-name="И" d="M 50.81 494.19 L 51.91 188.15 C 51.91 188.15 51.91 164.53 53.02 152.79 C 54.56 136.82 55.69 120.51 60.75 105.28 C 66.78 87.15 75.72 69.68 87.27 54.46 C 97.04 41.59 109.46 30.68 122.62 21.31 C 136.18 11.67 150.84 2.75 166.82 -1.89 C 184.21 -6.93 202.88 -7.44 220.95 -6.31 C 237.1 -5.3 253.18 -1.68 268.46 3.63 C 281.68 8.24 294.79 14.07 306.03 22.42 C 320.67 33.29 333.51 47 343.59 62.19 C 354.71 78.96 362.83 97.97 367.9 117.43 C 373.77 139.99 374.53 187.04 374.53 187.04 L 374.53 490.88 L 374.53 3.63"
horiz-adv-x="444"/>
<glyph unicode="Й" glyph-name="Й" d="M 184.17 572.64 L 281.4 669.86 M 49.99 495.56 L 51.09 189.52 C 51.09 189.52 51.09 165.9 52.2 154.16 C 53.74 138.19 54.87 121.88 59.93 106.66 C 65.96 88.52 74.9 71.05 86.45 55.83 C 96.22 42.97 108.64 32.05 121.8 22.69 C 135.36 13.04 150.02 4.12 166 -0.51 C 183.39 -5.56 202.06 -6.06 220.13 -4.93 C 236.28 -3.92 252.36 -0.31 267.64 5.01 C 280.86 9.61 293.97 15.44 305.21 23.79 C 319.85 34.66 332.69 48.37 342.77 63.57 C 353.89 80.33 362.01 99.34 367.08 118.81 C 372.95 141.36 373.71 188.42 373.71 188.42 L 373.71 492.25 L 373.71 5.01"
horiz-adv-x="440"/>
<glyph unicode="К" glyph-name="К" d="M 344.06 493.09 C 344.06 493.09 335.99 469.2 330.8 457.73 C 323.4 441.37 314.93 425.44 305.39 410.22 C 297.41 397.49 288.54 385.27 278.87 373.76 C 268.65 361.6 257.52 350.15 245.72 339.51 C 235.98 330.73 225.63 322.58 214.79 315.2 C 200.33 305.36 185.38 296.02 169.49 288.69 C 153.2 281.18 135.91 275.95 118.67 271.01 C 102.69 266.43 86.51 262.26 70.05 259.96 C 56.54 258.07 29.17 257.75 29.17 257.75 C 29.17 257.75 59.49 258.58 74.47 256.65 C 88.74 254.8 102.52 250.25 116.46 246.7 C 132.74 242.56 149.46 239.64 165.07 233.44 C 182.53 226.51 198.83 216.83 214.79 206.93 C 228.25 198.58 240.98 189.06 253.46 179.31 C 266.43 169.17 279.81 159.31 291.02 147.27 C 301.61 135.89 310.06 122.66 318.65 109.7 C 328.6 94.7 338.17 79.37 346.27 63.3 C 351.84 52.24 356.6 40.75 360.63 29.05 C 363.36 21.11 367.26 4.74 367.26 4.74 M 28.07 495.3 L 28.07 4.74"
horiz-adv-x="374"/>
<glyph unicode="Л" glyph-name="Л" d="M 10.07 5.84 L 201.21 495.3 L 393.45 1.43"
horiz-adv-x="403"/>
<glyph unicode="М" glyph-name="М" d="M 245.01 5.3 L 436.15 494.75 L 628.39 0.88 M 10.99 6.77 L 202.13 496.22 L 394.37 2.35"
horiz-adv-x="637"/>
<glyph unicode="Н" glyph-name="Н" d="M 361.88 491.98 L 361.88 1.43 M 44.78 489.77 L 44.78 5.84 L 43.68 108.6 C 43.68 108.6 50.35 146.08 56.94 163.84 C 61.98 177.43 68.4 190.72 76.83 202.51 C 84.86 213.74 94.89 223.58 105.55 232.34 C 115.02 240.12 125.45 246.89 136.49 252.23 C 149.8 258.67 163.91 264.01 178.47 266.59 C 196.24 269.73 232.61 267.7 232.61 267.7 L 393.92 268.8"
horiz-adv-x="439"/>
<glyph unicode="О" glyph-name="О" d="M 546.1 247.26 C 546.1 180.01 519.33 115.52 471.68 67.97 C 424.02 20.42 359.39 -6.29 292 -6.29 C 224.61 -6.29 159.98 20.42 112.32 67.97 C 64.67 115.52 37.9 180.01 37.9 247.26 C 37.9 314.5 64.67 378.99 112.32 426.54 C 159.98 474.09 224.61 500.8 292 500.8 C 359.39 500.8 424.02 474.09 471.68 426.54 C 519.33 378.99 546.1 314.5 546.1 247.26 Z"
horiz-adv-x="604"/>
<glyph unicode="П" glyph-name="П" d="M 49.67 491.98 L 49.67 6.95 L 49.67 332.88 C 49.67 332.88 58.58 383.44 68.45 406.91 C 75.3 423.21 84.27 439.03 96.07 452.21 C 106.93 464.33 120.42 474.29 134.74 482.04 C 150.52 490.57 167.88 496.73 185.57 499.71 C 202.63 502.6 220.39 502.37 237.49 499.71 C 254.3 497.11 270.94 491.94 286.11 484.25 C 301.15 476.62 315.17 466.45 326.98 454.42 C 338.66 442.53 348.82 428.7 355.71 413.54 C 364.03 395.24 367.07 374.85 370.08 354.98 C 372.84 336.74 373.39 299.74 373.39 299.74 L 373.39 4.74"
horiz-adv-x="443"/>
<glyph unicode="Р" glyph-name="Р" d="M 113.43 247.81 L 113.43 -165.41 M 543.17 247.81 C 543.17 107.48 429.66 -6.29 289.63 -6.29 C 222.38 -6.29 157.89 20.48 110.34 68.13 C 62.79 115.78 36.08 180.42 36.08 247.81 C 36.08 315.2 62.79 379.83 110.34 427.48 C 157.89 475.14 222.38 501.91 289.63 501.9 C 429.66 501.9 543.17 388.14 543.17 247.81 Z"
horiz-adv-x="580"/>
<glyph unicode="С" glyph-name="С" d="M 450.28 421.44 C 404.22 470.97 338.76 501.91 266.13 501.91 C 126.71 501.91 13.68 387.9 13.68 247.26 C 13.68 106.61 126.71 -7.4 266.13 -7.4 C 339.03 -7.4 404.71 23.77 450.79 73.62"
horiz-adv-x="457"/>
<glyph unicode="Т" glyph-name="Т" d="M 17.77 490.88 L 308.35 490.88 M 160.3 581.47 L 161.4 2.53"
horiz-adv-x="344"/>
<glyph unicode="У" glyph-name="У" d="M 51.7 491.98 L 51.7 164.94 C 51.7 164.94 52.52 141.89 55.02 130.69 C 59.79 109.32 66.14 87.77 77.11 68.82 C 87.06 51.64 100.2 35.83 115.78 23.52 C 129.09 13 144.88 5.36 161.08 0.32 C 177.4 -4.75 194.83 -6.72 211.91 -6.31 C 230.61 -5.86 249.46 -2.44 267.15 3.63 C 282.88 9.04 298.18 16.66 311.34 26.84 C 324.33 36.88 335.13 49.8 344.49 63.3 C 352.75 75.21 359.83 88.2 364.37 101.97 C 371.51 123.59 375.42 169.36 375.42 169.36 L 375.42 490.88 L 375.42 -167.62"
horiz-adv-x="436"/>
<glyph unicode="Ф" glyph-name="Ф" d="M 290.03 423.48 L 290.03 -167.62 M 545.24 248.36 C 545.24 108.32 431.47 -5.2 291.13 -5.2 C 223.73 -5.2 159.1 21.51 111.44 69.06 C 63.78 116.62 37.01 181.11 37.01 248.36 C 37.01 315.61 63.78 380.11 111.44 427.66 C 159.1 475.21 223.73 501.92 291.13 501.92 C 431.47 501.92 545.24 388.4 545.24 248.36 Z"
horiz-adv-x="583"/>
<glyph unicode="Х" glyph-name="Х" d="M 16.61 492.71 C 16.61 492.71 62.88 488.05 85.11 481.66 C 105.09 475.91 124.56 467.76 142.56 457.35 C 157.36 448.8 171.01 438.14 183.44 426.42 C 195.41 415.12 205.98 402.29 215.48 388.85 C 224.82 375.65 233.3 361.68 239.79 346.87 C 246.76 330.97 252.04 314.2 255.26 297.15 C 259.09 276.83 260.86 255.92 259.69 235.28 C 258.44 213.21 254.2 191.16 247.52 170.09 C 241.64 151.55 233.73 133.42 223.22 117.06 C 211.65 99.04 196.94 82.99 181.23 68.44 C 167.13 55.38 151.7 43.41 134.83 34.19 C 120.3 26.26 104.3 21.22 88.43 16.51 C 75.06 12.55 61.31 9.92 47.55 7.68 C 37.67 6.06 17.71 4.36 17.71 4.36 M 439.56 493.09 C 439.56 493.09 393.29 488.43 371.06 482.04 C 351.08 476.29 331.61 468.13 313.61 457.73 C 298.81 449.18 285.16 438.52 272.73 426.79 C 260.76 415.5 250.19 402.67 240.69 389.23 C 231.35 376.03 222.87 362.06 216.38 347.24 C 209.41 331.35 204.13 314.58 200.91 297.53 C 197.08 277.21 195.31 256.3 196.48 235.65 C 197.73 213.59 201.97 191.54 208.65 170.47 C 214.53 151.93 222.44 133.79 232.95 117.43 C 244.52 99.42 259.23 83.37 274.94 68.82 C 289.04 55.76 304.47 43.79 321.34 34.57 C 335.87 26.64 351.87 21.6 367.74 16.89 C 381.11 12.93 394.86 10.3 408.62 8.05 C 418.5 6.44 438.46 4.74 438.46 4.74"
horiz-adv-x="474"/>
<glyph unicode="Ц" glyph-name="Ц" d="M 270.61 67.72 L 400.98 -63.76 M 25.33 493.09 L 25.33 184.83 C 25.33 184.83 24.66 159.67 26.43 147.27 C 29.12 128.43 33.53 109.61 40.8 92.02 C 47.48 75.86 56.08 60.14 67.31 46.72 C 77.88 34.1 90.51 22.7 104.88 14.68 C 124.81 3.56 147.39 -3.67 170.06 -6.31 C 188.41 -8.44 207.4 -6.44 225.31 -1.89 C 242.89 2.58 260.08 9.94 275.03 20.21 C 290.91 31.12 304.28 45.72 315.9 61.09 C 324.55 72.53 331.81 85.24 336.9 98.65 C 342.39 113.1 344.79 128.63 346.84 143.95 C 348.8 158.57 349.05 188.15 349.05 188.15 L 349.05 490.88"
horiz-adv-x="418"/>
<glyph unicode="Ч" glyph-name="Ч" d="M 54.84 493.09 L 55.94 402.49 C 55.94 402.49 57.59 371.17 61.47 356.08 C 65.62 339.92 72 324.18 80.25 309.68 C 85.97 299.63 92.95 290.12 101.24 282.06 C 113.91 269.73 128.52 259.05 144.33 251.12 C 158.49 244.02 173.95 239.04 189.63 236.76 C 209.31 233.9 229.78 234 249.29 237.86 C 267.14 241.4 284.57 248.31 300.12 257.75 C 313.5 265.88 325.15 276.92 335.47 288.69 C 344.23 298.67 351.7 309.92 357.57 321.83 C 365.14 337.19 370.59 353.7 374.14 370.45 C 377.59 386.72 378.56 420.17 378.56 420.17 L 378.56 494.19 L 378.56 1.43"
horiz-adv-x="447"/>
<glyph unicode="Ш" glyph-name="Ш" d="M 57.83 491.98 L 57.83 193.67 C 57.83 193.67 57.6 149.76 62.25 128.48 C 67.13 106.16 74.29 83.67 86.56 64.4 C 96.77 48.37 110.72 34.37 126.33 23.52 C 145.83 9.98 168.2 -0.71 191.52 -5.2 C 212.87 -9.32 235.48 -7.7 256.71 -2.99 C 275.07 1.08 292.96 8.7 308.63 19.1 C 322.3 28.18 334.29 40.12 343.99 53.35 C 355.67 69.29 364.22 87.65 370.51 106.39 C 377.55 127.34 380.63 149.56 382.66 171.57 C 383.81 184.04 382.66 209.14 382.66 209.14 L 382.66 489.77 C 382.66 489.77 382.85 202.61 382.66 170.47 C 382.54 149.63 385.64 128.59 391.5 108.6 C 396.74 90.73 403.86 72.91 414.7 57.77 C 425.02 43.37 438.85 31.46 453.37 21.31 C 466.87 11.88 481.72 3.74 497.56 -0.78 C 516.77 -6.27 537.32 -7.93 557.23 -6.31 C 574.68 -4.88 592.16 -0.41 608.05 6.95 C 627.24 15.84 645.57 27.93 659.98 43.41 C 674.61 59.13 685.73 78.49 693.12 98.65 C 700.18 117.92 700.73 139.03 703.07 159.42 C 704.33 170.42 705.28 192.57 705.28 192.57 L 705.28 493.09"
horiz-adv-x="771"/>
<glyph unicode="Щ" glyph-name="Щ" d="M 27.67 492.86 L 27.67 194.55 C 27.67 194.55 27.44 150.64 32.1 129.36 C 36.98 107.04 44.14 84.55 56.41 65.28 C 66.62 49.24 80.57 35.24 96.18 24.4 C 115.68 10.85 138.05 0.17 161.37 -4.33 C 182.71 -8.45 205.32 -6.82 226.55 -2.12 C 244.91 1.95 262.8 9.58 278.48 19.98 C 292.15 29.05 304.14 41 313.83 54.23 C 325.52 70.17 334.06 88.53 340.36 107.26 C 347.4 128.22 350.48 150.44 352.51 172.45 C 353.66 184.92 352.51 210.01 352.51 210.01 L 352.51 490.65 C 352.51 490.65 352.69 203.49 352.51 171.34 C 352.39 150.51 355.49 129.47 361.35 109.47 C 366.58 91.6 373.7 73.79 384.54 58.65 C 394.86 44.25 408.69 32.34 423.21 22.19 C 436.71 12.76 451.56 4.61 467.4 0.09 C 486.61 -5.39 507.16 -7.06 527.07 -5.43 C 544.52 -4.01 562.01 0.47 577.89 7.83 C 597.08 16.71 615.41 28.8 629.82 44.29 C 644.45 60.01 655.57 79.37 662.96 99.53 C 670.03 118.8 670.57 139.9 672.91 160.3 C 674.17 171.3 675.12 193.44 675.12 193.44 L 675.12 493.96 M 598.89 63.3 L 728.16 -67.08"
horiz-adv-x="744"/>
<glyph unicode="Ъ" glyph-name="Ъ" d="M 52.74 504.13 L 52.74 161.08 C 52.74 75.35 121.5 5.85 206.31 5.85 C 291.12 5.85 359.88 75.35 359.88 161.08 C 359.88 246.81 291.12 316.3 206.31 316.3 C 167.12 316.3 131.37 301.47 104.23 277.05"
horiz-adv-x="389"/>
<glyph unicode="Ы" glyph-name="Ы" d="M 68.99 494.35 L 68.99 151.29 C 68.99 65.56 137.75 -3.93 222.56 -3.93 C 307.37 -3.93 376.13 65.56 376.13 151.29 C 376.13 237.02 307.37 306.52 222.56 306.52 C 183.37 306.52 147.62 291.69 120.48 267.27 M 429.21 493.09 L 429.21 4.74"
horiz-adv-x="499"/>
<glyph unicode="Ь" glyph-name="Ь" d="M 51.51 504.14 L 51.51 161.08 C 51.51 75.36 120.27 5.86 205.08 5.86 C 289.89 5.86 358.65 75.36 358.65 161.08 C 358.65 246.81 289.89 316.31 205.08 316.31 C 165.89 316.31 130.14 301.48 103 277.06"
horiz-adv-x="389"/>
<glyph unicode="Э" glyph-name="Э" d="M 200.97 200.3 L 480.49 41.2 M 37.35 423.53 C 83.71 471.82 149.05 501.89 221.44 501.89 C 362.07 501.89 476.07 388.38 476.07 248.36 C 476.07 108.34 362.07 -5.17 221.44 -5.17 C 148.21 -5.17 82.19 25.61 35.74 74.88"
horiz-adv-x="535"/>
<glyph unicode="Ю" glyph-name="Ю" d="M 630.48 248.36 C 630.48 107.72 516.72 -6.3 376.38 -6.3 C 308.99 -6.3 244.35 20.53 196.7 68.29 C 149.04 116.05 122.27 180.82 122.27 248.36 C 122.27 315.9 149.04 380.67 196.7 428.43 C 244.35 476.19 308.99 503.02 376.38 503.02 C 516.72 503.02 630.48 389 630.48 248.36 Z M 45.97 489.77 L 44.86 6.95 L 44.86 106.39 C 44.86 106.39 50.98 145.53 58.12 163.84 C 64.89 181.2 73.77 198.17 85.74 212.45 C 96.5 225.28 109.98 236 124.41 244.49 C 138.38 252.72 153.93 258.46 169.71 262.17 C 193.83 267.84 243.74 268.8 243.74 268.8"
horiz-adv-x="690"/>
<glyph unicode="Я" glyph-name="Я" d="M 274.35 277.64 L 109.73 2.53 M 321.82 232.38 C 294.62 207.63 258.61 192.57 219.13 192.57 C 134.31 192.57 65.55 262.06 65.55 347.8 C 65.55 433.53 134.31 503.03 219.13 503.03 C 303.94 503.02 373.8 433.53 373.8 347.8 L 373.8 5.84"
horiz-adv-x="441"/>
<glyph unicode="а" glyph-name="а" d="M 466.58 247.81 L 467.69 4.74 M 545.01 247.81 C 545.01 107.47 431.25 -6.29 290.91 -6.3 C 223.52 -6.3 158.88 20.47 111.23 68.13 C 63.57 115.78 36.8 180.41 36.8 247.81 C 36.8 315.2 63.57 379.84 111.23 427.49 C 158.88 475.14 223.52 501.92 290.91 501.91 C 431.25 501.91 545.01 388.14 545.01 247.81 Z"
horiz-adv-x="605"/>
<glyph unicode="б" glyph-name="б" d="M 243.86 421.75 C 362.41 427.4 463.08 336.13 468.71 217.89 C 474.34 99.65 382.81 -0.78 264.27 -6.43 C 145.73 -12.08 45.06 79.19 39.42 197.43 C 39.25 200.98 39.17 204.52 39.17 208.03 M 342.52 661.02 C 342.52 661.02 288.76 653.6 262.97 645.56 C 244.55 639.81 226.87 631.61 209.94 622.35 C 193.63 613.44 177.22 604 163.54 591.42 C 148.3 577.4 135.77 560.41 124.87 542.8 C 115.24 527.25 107.51 510.42 101.66 493.09 C 96.12 476.66 92.92 459.44 90.61 442.26 C 87.86 421.79 87.3 380.39 87.3 380.39 L 87.3 8.05"
horiz-adv-x="498"/>
<glyph unicode="в" glyph-name="в" d="M 242.86 421.17 C 361.18 424.2 459.55 330.99 462.57 212.97 C 465.6 94.95 372.13 -3.18 253.81 -6.21 C 135.49 -9.24 37.12 83.97 34.09 201.99 M 242.19 362.71 C 327.31 362.71 396.32 432.21 396.32 517.94 C 396.32 603.68 327.31 673.18 242.19 673.18 C 157.07 673.18 88.06 603.68 88.06 517.94 L 88.06 191.46"
horiz-adv-x="502"/>
<glyph unicode="г" glyph-name="г" d="M 19.26 5.84 L 21.47 273.22 C 21.67 297.35 28.74 321.24 36.94 343.93 C 44.56 365 54.65 385.52 67.88 403.59 C 80.18 420.4 95.71 434.88 112.07 447.79 C 127 459.56 143.25 470.03 160.68 477.62 C 179.61 485.86 200.15 489.96 220.35 494.19 C 238.19 497.93 274.48 501.92 274.48 501.92"
horiz-adv-x="297"/>
<glyph unicode="д" glyph-name="д" d="M 467.51 250.02 L 466.41 5.84 C 466.41 5.84 463.68 -40.74 456.47 -62.66 C 450.86 -79.72 442.28 -96.15 431.05 -110.16 C 417.98 -126.47 401.68 -140.68 383.54 -151.04 C 366.65 -160.69 347.52 -166.83 328.3 -169.83 C 307.92 -173.01 286.64 -172.84 266.43 -168.72 C 246.19 -164.6 226.52 -156.42 208.98 -145.52 C 193.47 -135.88 179.59 -123.25 168.09 -109.06 C 156.88 -95.22 147.76 -79.37 141.58 -62.66 C 135.47 -46.13 131.64 -10.73 131.64 -10.73 M 544.87 247.81 C 544.87 180.41 518.16 115.78 470.6 68.12 C 423.05 20.47 358.56 -6.3 291.31 -6.3 C 151.28 -6.3 37.76 107.47 37.76 247.81 C 37.76 388.15 151.28 501.91 291.31 501.92 C 358.56 501.92 423.05 475.15 470.6 427.49 C 518.16 379.84 544.87 315.2 544.87 247.81 Z"
horiz-adv-x="584"/>
<glyph unicode="е" glyph-name="е" d="M 446.62 58.41 C 402.58 18.97 344.66 -5.37 280.91 -6.32 C 140.58 -8.39 25.13 103.69 23.06 244.03 C 20.99 384.36 133.07 499.8 273.41 501.87 C 413.74 503.94 529.18 391.86 531.25 251.53 L 109.22 251.53"
horiz-adv-x="561"/>
<glyph unicode="ё" glyph-name="ё" d="M 366 640.03 L 366 590.31 M 188.11 643.35 L 188.11 588.1 M 111.88 250.02 L 530.62 250.02 C 530.62 250.02 530.37 290.18 526.2 309.68 C 522.35 327.68 515.71 345.18 507.42 361.61 C 497.85 380.57 486.4 398.95 472.07 414.64 C 452.29 436.3 428.86 455.03 403.57 469.88 C 382.34 482.35 359.05 491.96 335.06 497.5 C 309.88 503.33 283.43 505.7 257.72 503.03 C 225.72 499.71 193.75 490.79 164.92 476.51 C 137.33 462.85 111.93 443.75 90.89 421.27 C 69.6 398.52 51.76 371.7 40.07 342.83 C 30.07 318.12 25.92 291 24.6 264.38 C 23.26 237.41 25.47 209.85 32.33 183.73 C 38.78 159.17 49.8 135.64 63.27 114.12 C 76.31 93.3 92.65 74.35 110.78 57.77 C 127.37 42.61 146.03 29.37 166.02 19.1 C 184.77 9.47 205.02 2.29 225.68 -1.89 C 249.55 -6.71 274.34 -8.46 298.6 -6.31 C 323.51 -4.09 347.99 2.9 371.52 11.37 C 385.78 16.5 399.47 23.36 412.4 31.26 C 424.97 38.93 447.76 57.77 447.76 57.77"
horiz-adv-x="561"/>
<glyph unicode="ж" glyph-name="ж" d="M 291.2 495.3 L 291.2 4.74 M 40.4 493.09 C 40.4 493.09 42.47 454.36 47.03 435.63 C 51.69 416.49 58.94 397.87 68.02 380.39 C 74.99 366.97 84.09 354.71 93.43 342.83 C 103.58 329.91 114.16 317.12 126.58 306.37 C 138.01 296.47 150.91 288.26 164.14 280.95 C 181.75 271.23 200.27 262.91 219.39 256.65 C 232.3 252.42 245.66 249.29 259.16 247.81 C 280.76 245.44 302.85 244.63 324.35 247.81 C 344.52 250.79 364.09 257.63 382.9 265.49 C 400.69 272.91 418.05 281.88 433.73 293.11 C 449.62 304.49 463.96 318.16 476.82 332.88 C 488.65 346.42 498.99 361.38 507.75 377.08 C 516.35 392.49 523.73 408.76 528.74 425.69 C 534.99 446.82 539.79 490.88 539.79 490.88 M 40.4 -0.78 C 40.4 -0.78 45.77 51.61 53.65 76.56 C 60.65 98.7 70.65 120.17 83.48 139.53 C 93.57 154.75 106.28 168.3 119.95 180.41 C 139.76 197.95 161.51 213.79 185.13 225.71 C 203.53 235 223.39 242 243.69 245.6 C 259.29 248.36 275.36 247.02 291.2 246.7 C 306.33 246.4 321.64 246.67 336.5 243.81 C 355.09 240.23 373.24 233.96 390.48 226.13 C 410.43 217.07 429.79 206.14 446.99 192.57 C 461.1 181.44 473.44 168.02 484.55 153.9 C 496.93 138.16 507.96 121.14 516.59 103.07 C 523.97 87.62 529.29 71.14 533.16 54.46 C 537.1 37.46 539.79 2.53 539.79 2.53"
horiz-adv-x="570"/>
<glyph unicode="з" glyph-name="з" d="M 188.66 324.03 C 279.26 324.03 352.71 250.08 352.71 158.87 C 352.71 67.65 279.26 -6.29 188.66 -6.29 C 112.57 -6.29 48.57 45.86 30.02 116.59 M 76.56 426.79 C 94.62 470.86 138.26 501.94 189.22 501.94 C 256.35 501.94 310.77 448.02 310.77 381.5 C 310.77 314.98 256.35 261.05 189.22 261.05"
horiz-adv-x="409"/>
<glyph unicode="и" glyph-name="и" d="M 50.81 494.19 L 51.91 188.15 C 51.91 188.15 51.91 164.53 53.02 152.79 C 54.56 136.82 55.69 120.51 60.75 105.28 C 66.78 87.15 75.72 69.68 87.27 54.46 C 97.04 41.59 109.46 30.68 122.62 21.31 C 136.18 11.67 150.84 2.75 166.82 -1.89 C 184.21 -6.93 202.88 -7.44 220.95 -6.31 C 237.1 -5.3 253.18 -1.68 268.46 3.63 C 281.68 8.24 294.79 14.07 306.03 22.42 C 320.67 33.29 333.51 47 343.59 62.19 C 354.71 78.96 362.83 97.97 367.9 117.43 C 373.77 139.99 374.53 187.04 374.53 187.04 L 374.53 490.88 L 374.53 3.63"
horiz-adv-x="444"/>
<glyph unicode="й" glyph-name="й" d="M 184.17 572.64 L 281.4 669.86 M 49.99 495.56 L 51.09 189.52 C 51.09 189.52 51.09 165.9 52.2 154.16 C 53.74 138.19 54.87 121.88 59.93 106.66 C 65.96 88.52 74.9 71.05 86.45 55.83 C 96.22 42.97 108.64 32.05 121.8 22.69 C 135.36 13.04 150.02 4.12 166 -0.51 C 183.39 -5.56 202.06 -6.06 220.13 -4.93 C 236.28 -3.92 252.36 -0.31 267.64 5.01 C 280.86 9.61 293.97 15.44 305.21 23.79 C 319.85 34.66 332.69 48.37 342.77 63.57 C 353.89 80.33 362.01 99.34 367.08 118.81 C 372.95 141.36 373.71 188.42 373.71 188.42 L 373.71 492.25 L 373.71 5.01"
horiz-adv-x="440"/>
<glyph unicode="к" glyph-name="к" d="M 344.06 493.09 C 344.06 493.09 335.99 469.2 330.8 457.73 C 323.4 441.37 314.93 425.44 305.39 410.22 C 297.41 397.49 288.54 385.27 278.87 373.76 C 268.65 361.6 257.52 350.15 245.72 339.51 C 235.98 330.73 225.63 322.58 214.79 315.2 C 200.33 305.36 185.38 296.02 169.49 288.69 C 153.2 281.18 135.91 275.95 118.67 271.01 C 102.69 266.43 86.51 262.26 70.05 259.96 C 56.54 258.07 29.17 257.75 29.17 257.75 C 29.17 257.75 59.49 258.58 74.47 256.65 C 88.74 254.8 102.52 250.25 116.46 246.7 C 132.74 242.56 149.46 239.64 165.07 233.44 C 182.53 226.51 198.83 216.83 214.79 206.93 C 228.25 198.58 240.98 189.06 253.46 179.31 C 266.43 169.17 279.81 159.31 291.02 147.27 C 301.61 135.89 310.06 122.66 318.65 109.7 C 328.6 94.7 338.17 79.37 346.27 63.3 C 351.84 52.24 356.6 40.75 360.63 29.05 C 363.36 21.11 367.26 4.74 367.26 4.74 M 28.07 495.3 L 28.07 4.74"
horiz-adv-x="374"/>
<glyph unicode="л" glyph-name="л" d="M 10.07 5.84 L 201.21 495.3 L 393.45 1.43"
horiz-adv-x="403"/>
<glyph unicode="м" glyph-name="м" d="M 245.01 5.3 L 436.15 494.75 L 628.39 0.88 M 10.99 6.77 L 202.13 496.22 L 394.37 2.35"
horiz-adv-x="637"/>
<glyph unicode="н" glyph-name="н" d="M 361.88 491.98 L 361.88 1.43 M 44.78 489.77 L 44.78 5.84 L 43.68 108.6 C 43.68 108.6 50.35 146.08 56.94 163.84 C 61.98 177.43 68.4 190.72 76.83 202.51 C 84.86 213.74 94.89 223.58 105.55 232.34 C 115.02 240.12 125.45 246.89 136.49 252.23 C 149.8 258.67 163.91 264.01 178.47 266.59 C 196.24 269.73 232.61 267.7 232.61 267.7 L 393.92 268.8"
horiz-adv-x="439"/>
<glyph unicode="о" glyph-name="о" d="M 546.1 247.26 C 546.1 180.01 519.33 115.52 471.68 67.97 C 424.02 20.42 359.39 -6.29 292 -6.29 C 224.61 -6.29 159.98 20.42 112.32 67.97 C 64.67 115.52 37.9 180.01 37.9 247.26 C 37.9 314.5 64.67 378.99 112.32 426.54 C 159.98 474.09 224.61 500.8 292 500.8 C 359.39 500.8 424.02 474.09 471.68 426.54 C 519.33 378.99 546.1 314.5 546.1 247.26 Z"
horiz-adv-x="604"/>
<glyph unicode="п" glyph-name="п" d="M 49.67 491.98 L 49.67 6.95 L 49.67 332.88 C 49.67 332.88 58.58 383.44 68.45 406.91 C 75.3 423.21 84.27 439.03 96.07 452.21 C 106.93 464.33 120.42 474.29 134.74 482.04 C 150.52 490.57 167.88 496.73 185.57 499.71 C 202.63 502.6 220.39 502.37 237.49 499.71 C 254.3 497.11 270.94 491.94 286.11 484.25 C 301.15 476.62 315.17 466.45 326.98 454.42 C 338.66 442.53 348.82 428.7 355.71 413.54 C 364.03 395.24 367.07 374.85 370.08 354.98 C 372.84 336.74 373.39 299.74 373.39 299.74 L 373.39 4.74"
horiz-adv-x="443"/>
<glyph unicode="р" glyph-name="р" d="M 113.43 247.81 L 113.43 -165.41 M 543.17 247.81 C 543.17 107.48 429.66 -6.29 289.63 -6.29 C 222.38 -6.29 157.89 20.48 110.34 68.13 C 62.79 115.78 36.08 180.42 36.08 247.81 C 36.08 315.2 62.79 379.83 110.34 427.48 C 157.89 475.14 222.38 501.91 289.63 501.9 C 429.66 501.9 543.17 388.14 543.17 247.81 Z"
horiz-adv-x="580"/>
<glyph unicode="с" glyph-name="с" d="M 450.28 421.44 C 404.22 470.97 338.76 501.91 266.13 501.91 C 126.71 501.91 13.68 387.9 13.68 247.26 C 13.68 106.61 126.71 -7.4 266.13 -7.4 C 339.03 -7.4 404.71 23.77 450.79 73.62"
horiz-adv-x="457"/>
<glyph unicode="т" glyph-name="т" d="M 17.77 490.88 L 308.35 490.88 M 160.3 581.47 L 161.4 2.53"
horiz-adv-x="344"/>
<glyph unicode="у" glyph-name="у" d="M 51.7 491.98 L 51.7 164.94 C 51.7 164.94 52.52 141.89 55.02 130.69 C 59.79 109.32 66.14 87.77 77.11 68.82 C 87.06 51.64 100.2 35.83 115.78 23.52 C 129.09 13 144.88 5.36 161.08 0.32 C 177.4 -4.75 194.83 -6.72 211.91 -6.31 C 230.61 -5.86 249.46 -2.44 267.15 3.63 C 282.88 9.04 298.18 16.66 311.34 26.84 C 324.33 36.88 335.13 49.8 344.49 63.3 C 352.75 75.21 359.83 88.2 364.37 101.97 C 371.51 123.59 375.42 169.36 375.42 169.36 L 375.42 490.88 L 375.42 -167.62"
horiz-adv-x="436"/>
<glyph unicode="ф" glyph-name="ф" d="M 290.03 423.48 L 290.03 -167.62 M 545.24 248.36 C 545.24 108.32 431.47 -5.2 291.13 -5.2 C 223.73 -5.2 159.1 21.51 111.44 69.06 C 63.78 116.62 37.01 181.11 37.01 248.36 C 37.01 315.61 63.78 380.11 111.44 427.66 C 159.1 475.21 223.73 501.92 291.13 501.92 C 431.47 501.92 545.24 388.4 545.24 248.36 Z"
horiz-adv-x="583"/>
<glyph unicode="х" glyph-name="х" d="M 16.61 492.71 C 16.61 492.71 62.88 488.05 85.11 481.66 C 105.09 475.91 124.56 467.76 142.56 457.35 C 157.36 448.8 171.01 438.14 183.44 426.42 C 195.41 415.12 205.98 402.29 215.48 388.85 C 224.82 375.65 233.3 361.68 239.79 346.87 C 246.76 330.97 252.04 314.2 255.26 297.15 C 259.09 276.83 260.86 255.92 259.69 235.28 C 258.44 213.21 254.2 191.16 247.52 170.09 C 241.64 151.55 233.73 133.42 223.22 117.06 C 211.65 99.04 196.94 82.99 181.23 68.44 C 167.13 55.38 151.7 43.41 134.83 34.19 C 120.3 26.26 104.3 21.22 88.43 16.51 C 75.06 12.55 61.31 9.92 47.55 7.68 C 37.67 6.06 17.71 4.36 17.71 4.36 M 439.56 493.09 C 439.56 493.09 393.29 488.43 371.06 482.04 C 351.08 476.29 331.61 468.13 313.61 457.73 C 298.81 449.18 285.16 438.52 272.73 426.79 C 260.76 415.5 250.19 402.67 240.69 389.23 C 231.35 376.03 222.87 362.06 216.38 347.24 C 209.41 331.35 204.13 314.58 200.91 297.53 C 197.08 277.21 195.31 256.3 196.48 235.65 C 197.73 213.59 201.97 191.54 208.65 170.47 C 214.53 151.93 222.44 133.79 232.95 117.43 C 244.52 99.42 259.23 83.37 274.94 68.82 C 289.04 55.76 304.47 43.79 321.34 34.57 C 335.87 26.64 351.87 21.6 367.74 16.89 C 381.11 12.93 394.86 10.3 408.62 8.05 C 418.5 6.44 438.46 4.74 438.46 4.74"
horiz-adv-x="474"/>
<glyph unicode="ц" glyph-name="ц" d="M 270.61 67.72 L 400.98 -63.76 M 25.33 493.09 L 25.33 184.83 C 25.33 184.83 24.66 159.67 26.43 147.27 C 29.12 128.43 33.53 109.61 40.8 92.02 C 47.48 75.86 56.08 60.14 67.31 46.72 C 77.88 34.1 90.51 22.7 104.88 14.68 C 124.81 3.56 147.39 -3.67 170.06 -6.31 C 188.41 -8.44 207.4 -6.44 225.31 -1.89 C 242.89 2.58 260.08 9.94 275.03 20.21 C 290.91 31.12 304.28 45.72 315.9 61.09 C 324.55 72.53 331.81 85.24 336.9 98.65 C 342.39 113.1 344.79 128.63 346.84 143.95 C 348.8 158.57 349.05 188.15 349.05 188.15 L 349.05 490.88"
horiz-adv-x="418"/>
<glyph unicode="ч" glyph-name="ч" d="M 54.84 493.09 L 55.94 402.49 C 55.94 402.49 57.59 371.17 61.47 356.08 C 65.62 339.92 72 324.18 80.25 309.68 C 85.97 299.63 92.95 290.12 101.24 282.06 C 113.91 269.73 128.52 259.05 144.33 251.12 C 158.49 244.02 173.95 239.04 189.63 236.76 C 209.31 233.9 229.78 234 249.29 237.86 C 267.14 241.4 284.57 248.31 300.12 257.75 C 313.5 265.88 325.15 276.92 335.47 288.69 C 344.23 298.67 351.7 309.92 357.57 321.83 C 365.14 337.19 370.59 353.7 374.14 370.45 C 377.59 386.72 378.56 420.17 378.56 420.17 L 378.56 494.19 L 378.56 1.43"
horiz-adv-x="447"/>
<glyph unicode="ш" glyph-name="ш" d="M 57.83 491.98 L 57.83 193.67 C 57.83 193.67 57.6 149.76 62.25 128.48 C 67.13 106.16 74.29 83.67 86.56 64.4 C 96.77 48.37 110.72 34.37 126.33 23.52 C 145.83 9.98 168.2 -0.71 191.52 -5.2 C 212.87 -9.32 235.48 -7.7 256.71 -2.99 C 275.07 1.08 292.96 8.7 308.63 19.1 C 322.3 28.18 334.29 40.12 343.99 53.35 C 355.67 69.29 364.22 87.65 370.51 106.39 C 377.55 127.34 380.63 149.56 382.66 171.57 C 383.81 184.04 382.66 209.14 382.66 209.14 L 382.66 489.77 C 382.66 489.77 382.85 202.61 382.66 170.47 C 382.54 149.63 385.64 128.59 391.5 108.6 C 396.74 90.73 403.86 72.91 414.7 57.77 C 425.02 43.37 438.85 31.46 453.37 21.31 C 466.87 11.88 481.72 3.74 497.56 -0.78 C 516.77 -6.27 537.32 -7.93 557.23 -6.31 C 574.68 -4.88 592.16 -0.41 608.05 6.95 C 627.24 15.84 645.57 27.93 659.98 43.41 C 674.61 59.13 685.73 78.49 693.12 98.65 C 700.18 117.92 700.73 139.03 703.07 159.42 C 704.33 170.42 705.28 192.57 705.28 192.57 L 705.28 493.09"
horiz-adv-x="771"/>
<glyph unicode="щ" glyph-name="щ" d="M 27.67 492.86 L 27.67 194.55 C 27.67 194.55 27.44 150.64 32.1 129.36 C 36.98 107.04 44.14 84.55 56.41 65.28 C 66.62 49.24 80.57 35.24 96.18 24.4 C 115.68 10.85 138.05 0.17 161.37 -4.33 C 182.71 -8.45 205.32 -6.82 226.55 -2.12 C 244.91 1.95 262.8 9.58 278.48 19.98 C 292.15 29.05 304.14 41 313.83 54.23 C 325.52 70.17 334.06 88.53 340.36 107.26 C 347.4 128.22 350.48 150.44 352.51 172.45 C 353.66 184.92 352.51 210.01 352.51 210.01 L 352.51 490.65 C 352.51 490.65 352.69 203.49 352.51 171.34 C 352.39 150.51 355.49 129.47 361.35 109.47 C 366.58 91.6 373.7 73.79 384.54 58.65 C 394.86 44.25 408.69 32.34 423.21 22.19 C 436.71 12.76 451.56 4.61 467.4 0.09 C 486.61 -5.39 507.16 -7.06 527.07 -5.43 C 544.52 -4.01 562.01 0.47 577.89 7.83 C 597.08 16.71 615.41 28.8 629.82 44.29 C 644.45 60.01 655.57 79.37 662.96 99.53 C 670.03 118.8 670.57 139.9 672.91 160.3 C 674.17 171.3 675.12 193.44 675.12 193.44 L 675.12 493.96 M 598.89 63.3 L 728.16 -67.08"
horiz-adv-x="744"/>
<glyph unicode="ъ" glyph-name="ъ" d="M 52.74 504.13 L 52.74 161.08 C 52.74 75.35 121.5 5.85 206.31 5.85 C 291.12 5.85 359.88 75.35 359.88 161.08 C 359.88 246.81 291.12 316.3 206.31 316.3 C 167.12 316.3 131.37 301.47 104.23 277.05"
horiz-adv-x="389"/>
<glyph unicode="ы" glyph-name="ы" d="M 68.99 494.35 L 68.99 151.29 C 68.99 65.56 137.75 -3.93 222.56 -3.93 C 307.37 -3.93 376.13 65.56 376.13 151.29 C 376.13 237.02 307.37 306.52 222.56 306.52 C 183.37 306.52 147.62 291.69 120.48 267.27 M 429.21 493.09 L 429.21 4.74"
horiz-adv-x="499"/>
<glyph unicode="ь" glyph-name="ь" d="M 51.51 504.14 L 51.51 161.08 C 51.51 75.36 120.27 5.86 205.08 5.86 C 289.89 5.86 358.65 75.36 358.65 161.08 C 358.65 246.81 289.89 316.31 205.08 316.31 C 165.89 316.31 130.14 301.48 103 277.06"
horiz-adv-x="389"/>
<glyph unicode="э" glyph-name="э" d="M 200.97 200.3 L 480.49 41.2 M 37.35 423.53 C 83.71 471.82 149.05 501.89 221.44 501.89 C 362.07 501.89 476.07 388.38 476.07 248.36 C 476.07 108.34 362.07 -5.17 221.44 -5.17 C 148.21 -5.17 82.19 25.61 35.74 74.88"
horiz-adv-x="535"/>
<glyph unicode="ю" glyph-name="ю" d="M 630.48 248.36 C 630.48 107.72 516.72 -6.3 376.38 -6.3 C 308.99 -6.3 244.35 20.53 196.7 68.29 C 149.04 116.05 122.27 180.82 122.27 248.36 C 122.27 315.9 149.04 380.67 196.7 428.43 C 244.35 476.19 308.99 503.02 376.38 503.02 C 516.72 503.02 630.48 389 630.48 248.36 Z M 45.97 489.77 L 44.86 6.95 L 44.86 106.39 C 44.86 106.39 50.98 145.53 58.12 163.84 C 64.89 181.2 73.77 198.17 85.74 212.45 C 96.5 225.28 109.98 236 124.41 244.49 C 138.38 252.72 153.93 258.46 169.71 262.17 C 193.83 267.84 243.74 268.8 243.74 268.8"
horiz-adv-x="690"/>
<glyph unicode="я" glyph-name="я" d="M 274.35 277.64 L 109.73 2.53 M 321.82 232.38 C 294.62 207.63 258.61 192.57 219.13 192.57 C 134.31 192.57 65.55 262.06 65.55 347.8 C 65.55 433.53 134.31 503.03 219.13 503.03 C 303.94 503.02 373.8 433.53 373.8 347.8 L 373.8 5.84"
horiz-adv-x="441"/>
<glyph unicode="…" glyph-name="…" d="M 327.55 23.52 C 327.55 20.01 326.39 16.63 324.31 14.15 C 322.24 11.66 319.43 10.26 316.5 10.26 C 313.57 10.26 310.76 11.66 308.69 14.15 C 306.61 16.63 305.45 20.01 305.45 23.52 C 305.45 27.04 306.61 30.41 308.69 32.9 C 310.76 35.38 313.57 36.78 316.5 36.78 C 319.43 36.78 322.24 35.38 324.31 32.9 C 326.39 30.41 327.55 27.04 327.55 23.52 Z M 232.55 24.63 C 232.55 21.4 231.39 18.31 229.31 16.03 C 227.24 13.75 224.43 12.47 221.5 12.47 C 218.57 12.47 215.76 13.75 213.69 16.03 C 211.61 18.31 210.45 21.4 210.45 24.63 C 210.45 27.85 211.61 30.94 213.69 33.22 C 215.76 35.5 218.57 36.78 221.5 36.78 C 224.43 36.78 227.24 35.5 229.31 33.22 C 231.39 30.94 232.55 27.85 232.55 24.63 Z M 128.67 25.73 C 128.67 20.85 125.21 16.9 120.94 16.89 C 118.89 16.89 116.92 17.82 115.47 19.48 C 114.02 21.14 113.2 23.39 113.2 25.73 C 113.2 28.08 114.02 30.33 115.47 31.98 C 116.92 33.64 118.89 34.57 120.94 34.57 C 125.21 34.57 128.67 30.61 128.67 25.73 Z"
horiz-adv-x="560"/>
</font>
</defs>
</svg>
