<?xml version="1.0" encoding="UTF-8"?><!DOCTYPE svg  PUBLIC '-//W3C//DTD SVG 1.1//EN'  'http://www.w3.org/Graphics/SVG/1.1/DTD/svg11.dtd'><svg xmlns="http://www.w3.org/2000/svg" xmlns:xlink="http://www.w3.org/1999/xlink" version="1.1"><defs><font horiz-adv-x="342.0" id="Gogol"><font-face font-family="Gogol" units-per-em="1000.0" ascent="800.0" descent="-200.0" cap-height="500.0" x-height="300.0"/><missing-glyph horiz-adv-x="342.0"/><glyph unicode=" " glyph-name="space" horiz-adv-x="342.0"/><glyph unicode="!" glyph-name="!" d="M 103.05 37.92 C 86.65 28.98 82.18 -2.33 92.61 2.14 C 103.05 6.61 103.05 37.92 103.05 37.92 Z M 477.22 722.16 C 416.1 625.27 362.44 541.79 326.66 495.57 C 290.88 449.36 243.18 376.32 210.38 309.23" horiz-adv-x="436.0"/><glyph unicode="&quot;" glyph-name="&quot;" d="M 245.51 789.25 C 229.11 710.24 226.13 637.19 226.13 637.19 M 99.42 775.83 C 90.47 725.15 78.55 640.17 78.55 640.17" horiz-adv-x="328.0"/><glyph unicode="#" glyph-name="#" d="M 55.53 461.29 C 253.8 461.29 595.18 461.29 595.18 461.29 M 34.66 216.81 C 165.85 216.81 571.33 207.86 571.33 207.86 M 532.57 674.46 C 492.32 511.97 359.64 23.01 359.64 23.01 M 262.75 664.03 C 210.57 458.31 91.31 23.01 91.31 23.01" horiz-adv-x="634.0"/><glyph unicode="$" glyph-name="$" d="M 224.8 757.94 C 209.9 576.07 217.4 170.59 215.9 124.38 C 214.4 78.17 217.4 -58.98 217.4 -58.98 M 345.6 488.12 C 317.7 618.43 175.7 612.26 135.4 550.73 C 100.5 497.47 84.7 428.49 139.9 362.9 C 195 297.31 278.5 261.53 294.9 227.24 C 311.3 192.96 315.8 136.31 288.9 105 C 262.1 73.7 189 76.68 156.2 103.51 C 123.5 130.34 77.2 197.43 77.2 197.43" horiz-adv-x="424.0"/><glyph unicode="%" glyph-name="%" d="M 534.2 646.14 C 398.6 489.61 63.2 46.86 63.2 46.86 M 484.2 268.93 C 456.6 283.09 409.2 253.98 397.2 225.66 C 385.3 197.34 373.9 152.65 381.3 130.29 C 388.8 107.93 415.6 82.59 433.5 82.59 C 451.4 82.59 496.1 97.89 514 136.65 C 531.9 175.41 528 211.77 516 235.62 C 504.1 259.47 502.1 259.73 484.2 268.93 Z M 179.5 622.29 C 151.9 636.45 96.4 607.34 84.5 579.02 C 72.6 550.69 69.1 506.01 76.6 483.65 C 84 461.29 110.9 435.94 128.8 435.94 C 146.6 435.94 191.4 451.25 209.3 490.01 C 227.2 528.77 223.2 565.13 211.3 588.98 C 199.4 612.83 197.4 613.09 179.5 622.29 Z" horiz-adv-x="586.0"/><glyph unicode="&amp;" glyph-name="&amp;" d="M 503.8 356.94 C 500.7 335.72 500.5 314.21 498 292.92 C 495.4 271 490.2 248.93 478.6 229.81 C 459.3 198.04 429.8 174.47 400.4 152.53 C 366 126.95 334.3 97.22 296 77.57 C 274.2 66.4 249.1 59.49 224.6 63.9 C 199.2 68.44 177.8 85.36 162.8 105.6 C 147.7 125.89 137.4 150.8 138.6 176.41 C 139.5 196.95 150 215.9 164.1 230.41 C 186.4 253.31 214.6 268.98 241 286.56 C 264.9 302.48 288.4 320.42 304.1 345 C 323.5 375.24 342.3 406.98 349.8 442.57 C 354.7 466.05 352 490.42 346.3 513.47 C 339.2 542.38 326.1 570.76 304 591.35 C 282.8 611.12 252.9 618.63 224.5 617.6 C 194.9 616.53 164.8 606.27 143.6 585.02 C 120.3 561.66 106.6 529.92 101.8 497.54 C 98 472.37 100.9 446.19 110.8 422.65 C 125 389.05 150.8 362.09 178.1 338.63 C 208.7 312.26 241.1 288 272.9 263.14 C 295.7 245.44 321.9 233.27 345.6 217.07 C 387.1 188.76 430.2 161.98 466 126.32 C 490 102.36 513.5 76.64 527.6 45.37" horiz-adv-x="604.5"/><glyph unicode="'" glyph-name="'" d="M 109.6 732.6 C 106.3 669.84 93 604.39 58.9 550.73" horiz-adv-x="195.5"/><glyph unicode="(" glyph-name="(" d="M 271.4 765.4 C 88.2 573.4 94.2 247.84 226.7 30.47" horiz-adv-x="323.5"/><glyph unicode=")" glyph-name=")" d="M 82.9 768.38 C 265.3 550.24 288.3 229.9 93.4 27.48" horiz-adv-x="323.5"/><glyph unicode="*" glyph-name="*" d="M 76.3 598.43 L 423.7 607.38 M 246.3 580.55 L 384.9 437.44 M 246.3 759.43 C 246.3 690.86 246.3 580.55 246.3 580.55 L 112.1 441.91" horiz-adv-x="488.5"/><glyph unicode="+" glyph-name="+" d="M 183 295.82 L 189 121.4 M 93.6 213.83 L 273.9 219.79" horiz-adv-x="345.0"/><glyph unicode="," glyph-name="," d="M 165.9 55.81 C 154 8.1 139.1 -39.6 92.9 -78.36" horiz-adv-x="246.0"/><glyph unicode="-" glyph-name="-" d="M 165.3 216.81 L 342.7 218.3" horiz-adv-x="459.0"/><glyph unicode="." glyph-name="." d="M 160.2 39.41 C 112.4 -8.7 177.9 101.63 160.2 39.41 Z" horiz-adv-x="253.0"/><glyph unicode="/" glyph-name="/" d="M 277.3 406.13 C 232.6 340.54 137.2 200.41 105.9 157.18 C 74.6 113.95 16.4 2.14 16.4 2.14" horiz-adv-x="300.0"/><glyph unicode="0" glyph-name="0" d="M 266.2 507.5 C 230.4 467.25 148.4 301.78 121.6 257.06 C 94.8 212.33 44.1 113.95 35.1 85.62 C 26.2 57.3 39.6 17.05 67.9 20.03 C 96.3 23.01 161.8 55.81 187.2 78.17 C 212.5 100.53 288.6 210.84 310.9 254.08 C 333.3 297.31 374.3 413.35 385.5 447.87 C 404.3 506.14 383.8 542.56 337.8 537.31 C 293.2 532.24 263.2 495.57 263.2 495.57" horiz-adv-x="414.0"/><glyph unicode="1" glyph-name="1" d="M 313.3 526.88 C 243.2 397.19 22.6 2.14 22.6 2.14" horiz-adv-x="322.0"/><glyph unicode="2" glyph-name="2" d="M 256 356.94 C 166.5 313.7 108.1 272.58 65.1 295.82 C 47.7 305.24 42.8 340.54 47.2 352.46 C 51.7 364.39 84.5 406.13 108.4 422.53 C 132.2 438.93 190.4 485.14 226.1 494.08 C 261.9 503.03 305.2 495.57 308.1 468.74 C 311.1 441.91 297.7 415.07 284.3 391.22 C 270.9 367.37 205.3 240.66 185.9 207.86 C 166.5 175.07 120.3 96.06 108.4 78.17 C 96.4 60.28 -0.4 0.65 -0.4 0.65 C -0.4 0.65 89.1 69.58 142.7 78.17 C 173.1 83.05 214.2 82.64 233.6 61.77 C 253 40.9 253 33.45 253 33.45" horiz-adv-x="345.0"/><glyph unicode="3" glyph-name="3" d="M 6.3 337.56 C 49.6 389.73 113.7 447.87 148 462.78 C 182.3 477.68 212.1 483.65 218 461.29 C 224 438.93 213.6 398.68 192.7 364.39 C 171.8 330.1 153.9 300.29 128.6 273.45 C 103.2 246.62 82.4 230.22 82.4 230.22 C 82.4 230.22 171.8 306.25 192.7 312.21 C 213.6 318.18 258.3 316.69 267.2 303.27 C 276.2 289.85 276.2 261.53 267.2 231.71 C 258.3 201.9 206.1 116.93 170.3 85.62 C 134.6 54.32 92.8 20.03 76.4 15.56 C 60 11.09 54.1 66.24 54.1 66.24" horiz-adv-x="309.0"/><glyph unicode="4" glyph-name="4" d="M 356 415.07 C 293.4 340.54 193.5 170.59 154.8 87.11 C 116 3.63 107.1 -2.33 107.1 -2.33 L 147.3 46.86 M 196.5 558.18 C 145.8 471.72 59.4 316.69 45.9 279.42 C 32.5 242.15 37 200.41 56.4 189.97 C 75.8 179.54 169.7 189.97 206.9 204.88 C 244.2 219.79 330.7 240.66 360.5 242.15" horiz-adv-x="367.0"/><glyph unicode="5" glyph-name="5" d="M 540.2 468.74 C 492.5 437.44 464.8 420.47 422.5 421.04 C 384 421.55 302.1 462.4 316.6 467.25 C 316.6 467.25 288.3 450.85 270.4 416.56 C 252.5 382.28 234.6 346.5 213.8 315.2 C 192.9 283.89 118.3 227.24 118.3 227.24 C 118.3 227.24 210.8 294.33 228.7 301.78 C 246.6 309.23 274.9 309.23 279.3 282.4 C 283.8 255.57 283.8 200.41 260 155.69 C 236.1 110.97 170.5 49.85 134.7 31.96 C 99 14.07 60.3 16.05 37.8 39.41 C 28.5 49.09 36.4 79.66 36.4 79.66" horiz-adv-x="471.0"/><glyph unicode="6" glyph-name="6" d="M 447.1 549.24 C 348.8 479.18 238.4 380.79 187.8 331.59 C 137.1 282.4 110.2 248.11 92.4 218.3 C 74.5 188.48 50.6 85.62 50.6 57.3 C 50.6 28.98 53.6 -15.75 111.7 12.58 C 169.9 40.9 247.4 102.02 266.8 131.84 C 286.1 161.65 289.1 216.81 260.8 228.73 C 232.5 240.66 160.9 249.6 138.6 233.21 C 116.2 216.81 58.1 112.46 44.7 90.1 C 31.3 67.73 16.3 23.01 16.3 23.01" horiz-adv-x="397.0"/><glyph unicode="7" glyph-name="7" d="M 79.8 412.09 C 121.5 471.72 163.3 528.37 211 506.01 C 258.7 483.65 323.3 454.31 323.3 454.31 C 323.3 454.31 491.1 607.81 413.6 539.24 C 336.1 470.67 290 416.56 190.1 258.55 C 90.2 100.53 15.7 -3.82 15.7 -3.82" horiz-adv-x="349.0"/><glyph unicode="8" glyph-name="8" d="M 292.3 580.55 C 316.1 547.75 313.2 485.14 287.8 432.96 C 262.5 380.79 205.8 288.36 170.1 243.64 C 134.3 198.92 55.3 97.55 40.4 69.22 C 25.5 40.9 10.6 0.65 50.8 -2.33 C 91.1 -5.31 162.6 39.41 190.9 57.3 C 219.2 75.19 262.5 121.4 274.4 142.27 C 286.3 163.14 277.4 191.46 277.4 191.46 C 277.4 191.46 247.6 185.5 213.3 188.48 C 179 191.46 140.3 203.39 140.3 203.39 L 232.7 334.57 C 232.7 334.57 229.7 349.48 207.3 356.94 C 185 364.39 119.4 346.5 95.5 350.97 C 71.7 355.45 43.4 385.26 67.2 421.04 C 91.1 456.81 126.8 486.63 159.6 506.01 C 192.4 525.39 222.2 544.77 222.2 544.77" horiz-adv-x="372.0"/><glyph unicode="9" glyph-name="9" d="M 235 494.08 C 221.6 531.35 197.7 541.79 160.5 528.37 C 123.2 514.95 81.5 479.18 66.6 450.85 C 51.6 422.53 36.7 371.84 42.7 355.44 C 48.7 339.05 69.5 312.21 94.9 313.7 C 120.2 315.2 184.3 340.54 205.2 355.44 C 226.1 370.35 270.8 404.64 287.2 427 C 303.6 449.36 318.5 477.68 318.5 477.68 C 318.5 477.68 261.8 334.57 236.5 292.83 C 211.1 251.09 147.1 154.2 123.2 118.42 C 99.3 82.64 32.3 -5.31 32.3 -5.31" horiz-adv-x="301.0"/><glyph unicode=":" glyph-name=":" d="M 164.3 93.08 C 89.3 86.46 214.3 33.09 164.3 93.08 Z M 344.7 406.13 C 338.7 367.37 308.9 307.74 308.9 307.74" horiz-adv-x="459.0"/><glyph unicode=";" glyph-name=";" d="M 187.5 274.95 C 126 242.37 252.1 242.63 187.5 274.95 Z M 151.7 58.79 C 148.4 -7.58 85.1 -79.29 83.1 -75.38" horiz-adv-x="288.0"/><glyph unicode="&lt;" glyph-name="&lt;" d="M 423.9 458.31 C 295.7 397.19 82.5 295.82 82.5 295.82 C 82.5 295.82 334.4 172.09 428.3 112.46" horiz-adv-x="495.0"/><glyph unicode="=" glyph-name="=" d="M 113.1 125.87 C 113.1 125.87 199.6 140.78 272.6 140.78 C 345.7 140.78 430.7 121.4 430.7 121.4 M 104.2 224.26 C 104.2 224.26 198.1 236.19 265.2 236.19 C 332.3 236.19 427.7 215.32 427.7 215.32" horiz-adv-x="519.0"/><glyph unicode="&gt;" glyph-name="&gt;" d="M 106.5 471.72 C 213.9 400.17 419.6 295.82 419.6 295.82 C 419.6 295.82 184 192.96 99.1 102.02" horiz-adv-x="495.0"/><glyph unicode="?" glyph-name="?" d="M 184.9 79.66 C 181.9 79.81 156.8 78.49 164 67.73 C 178.5 45.99 215 74.29 198.3 82.64 C 191.2 86.18 175.2 91.21 164 85.62 C 159.4 83.34 157.8 61.12 159.1 59.85 C 162.2 56.66 191 50.09 197.3 56.35 C 208.7 67.75 204.9 86.41 189.4 91.59 C 184 93.37 176.4 85.36 171.5 84.13 M 41.8 431.47 C 73.9 677.47 480.4 588.99 332.5 422.53 C 265.8 347.46 150 268.43 177.4 170.59" horiz-adv-x="440.0"/><glyph unicode="@" glyph-name="@" d="M 471.9 239.17 C 451 160.07 379 62.77 306.5 84.13 C 294.7 87.61 296.3 107.68 297.5 119.91 C 309.6 236.86 605.6 349.12 451.1 437.44 C 383.6 476 269 400.24 227.5 352.46 C 203.1 324.39 318.4 475.75 454.1 434.45 C 563.9 401.03 382.3 118.7 555.4 69.22 C 681.4 33.24 745.3 223.7 729.8 330.1 C 680 671.84 312.5 680.28 136.5 498.56 C 14.9 372.89 24.9 103.28 142.5 -26.18 C 273.9 -170.8 552.9 -203.8 725.4 -88.79" horiz-adv-x="782.0"/><glyph unicode="[" glyph-name="[" d="M 696.8 611.4 L 410.1 592.42 C 410.1 592.42 332.1 501.77 317.4 461.71 C 302.6 421.66 211.9 259.33 133.9 160.24 C 55.9 61.15 -49.5 -82.2 -49.5 -82.2 C -49.5 -82.2 28.5 -94.85 68.6 -96.96 C 108.6 -99.07 209.8 -96.96 209.8 -96.96" horiz-adv-x="612.0"/><glyph unicode="\" glyph-name="\" d="M 10 419.55 C 10 419.55 77 284.95 128 190.08 C 178 95.21 238 4.23 238 4.23" horiz-adv-x="237.66"/><glyph unicode="]" glyph-name="]" d="M 326 615.61 C 326 615.61 440 619.83 482 615.61 C 524 611.4 581 600.86 581 600.86 C 581 600.86 385 345.76 353 301.49 C 322 257.22 182 16.88 166 -14.74 C 149 -46.36 136 -67.45 136 -67.45 C 136 -67.45 39 -86.42 -1 -90.64 C -41 -94.85 -157 -90.64 -157 -90.64" horiz-adv-x="558.0"/><glyph unicode="_" glyph-name="_" d="M 14 -103.29 C 88 -99.07 193 -92.74 233 -94.85 C 273 -96.96 334 -101.18 334 -101.18" horiz-adv-x="336.0"/><glyph unicode="|" glyph-name="|" d="M 150 478.58 C 150 478.58 131 282.52 123 181.32 C 114 80.13 125 -4.2 125 -4.2" horiz-adv-x="216.0"/><glyph unicode="Ё" glyph-name="Ё" d="M 540 768.38 C 566 738.38 559 733.71 540 768.38 Z M 406 775.83 C 359 758.91 377 734.99 406 775.83 Z M 357 424.02 C 341 421.04 332 414.21 326 403.15 C 323 397.89 321 388.27 326 385.26 C 334 380.65 342 394.09 350 398.68 C 355 401.59 359 405.29 365 407.62 C 393 419.9 426 417.98 453 433.51 C 472 445.23 490 462.01 502 482.16 C 515 506.65 529 537.26 521 564.15 C 512 594.35 488 616.13 459 627.74 C 422 642.38 372 636.36 333 628.25 C 303 621.98 274 609.62 248 592.47 C 230 580.32 212 565.81 202 546.26 C 193 528.72 191 507.4 195 488.12 C 197 471.23 208 456.43 217 441.91 C 228 424.78 241 409.02 254 394.2 C 260 388.26 272 377.81 272 377.81 C 272 377.81 221 353.7 196 339.05 C 175 326.55 155 312.8 136 297.31 C 111 276.44 86 255.07 66 228.73 C 50 205.81 36 179.89 28 152.71 C 21 130.21 12 105.24 19 82.64 C 24 64.01 40 49.26 56 37.92 C 74 25.14 96 18.11 117 14.07 C 142 9.38 168 9.23 193 14.07 C 279.81 35.07 338.92 71.05 434.87 119.91" horiz-adv-x="437.0"/><glyph unicode="А" glyph-name="А" d="M 119 343.52 C 76 277.93 25 157.18 15 118.42 C 4 79.66 18 46.86 48 58.79 C 78 70.72 224 136.31 364 222.77 C 504 309.23 696 428.49 783 477.68 C 869 526.88 891 544.77 923 559.68 C 954 574.58 970 556.69 942 513.46 C 914 470.23 815 318.18 790 280.91 C 765 243.64 660 91.59 628 60.28 C 595 28.98 556 0.65 534 -6.8 C 511 -14.26 534 -0.84 565 17.05 C 596 34.94 629 60.28 651 85.62 C 674 110.97 680 125.87 696 145.25 C 713 164.63 736 178.05 678 189.97 C 620 201.9 581 201.9 575 200.41 C 569 198.92 608 185.5 651 170.59 C 695 155.69 707 160.16 707 160.16" horiz-adv-x="867.0"/><glyph unicode="Б" glyph-name="Б" d="M 1.31 119.91 C 75.31 170.6 141 209.35 199 227.24 C 257 245.13 289 237.68 339 237.68 C 390 237.68 439 234.7 470 222.77 C 502 210.84 524 185.5 482 143.76 C 441 102.02 369 52.83 311 24.5 C 253 -3.82 196 -12.77 160 -6.8 C 125 -0.84 93 27.48 111 75.19 C 129 122.89 202 184.01 235 212.33 C 268 240.66 305 264.51 375 313.7 C 445 362.9 573 453.83 573 453.83 L 265 234.7 C 265 234.7 253 286.87 259 315.2 C 265 343.52 283 398.68 315 427 C 348 455.32 385 488.12 447 507.5 C 508 526.88 622 540.3 667 540.3 C 712 540.3 791 543.28 852 550.73 C 913 558.18 970 574.58 995 588 C 1021 601.42 1073 631.23 1073 631.23" horiz-adv-x="632.0"/><glyph unicode="В" glyph-name="В" d="M 118 364.39 C 193 409.11 270 449.36 343 477.68 C 416 506.01 573 580.55 573 580.55 C 573 580.55 497 528.37 450 471.72 C 404 415.07 339 356.94 298 322.65 C 258 288.36 -9 55.81 -9 55.81 C -9 55.81 261 292.83 300 327.12 C 339 361.41 453 422.53 490 432.96 C 527 443.4 585 468.74 644 479.18 C 704 489.61 825 514.95 766 446.38 C 708 377.81 535 239.17 535 239.17 C 535 239.17 614 261.53 640 255.57 C 665 249.6 655 216.81 632 185.5 C 610 154.2 529 91.59 500 73.7 C 470 55.81 425 42.39 412 42.39 C 398 42.39 383 51.34 410 66.24 C 437 81.15 468 63.26 494 45.37 C 519 27.48 558 8.1 602 17.05 C 647 25.99 717 54.32 741 64.75 C 765 75.19 848.15 119.91 848.15 119.91" horiz-adv-x="847.0"/><glyph unicode="Г" glyph-name="Г" d="M 25 96.06 C 46 119.91 58 137.8 41 133.33 C 25 128.85 13 127.36 14 96.06 C 16 64.75 28 43.88 43 33.45 C 58 23.01 96 -2.33 153 12.58 C 210 27.48 304 66.24 350 109.47 C 396 152.71 539 304.76 569 334.57 C 599 364.39 684 446.48 740 483.65 C 744 485.79 751 477.34 748 474.7 C 702 431.87 693 429.98 644 391.22 C 594 352.46 486 268.98 462 264.51 C 438 260.04 398 288.63 386 316.69 C 371 348.7 383 397.19 399 421.04 C 415 444.89 474 504.63 529 531.35 C 593 562.66 734 600.8 787 616.29 C 867 640.07 1166 725.5 1197 744.53 C 1229 764.72 1259 775.05 1256 802.66 C 1254 822 1226 831.1 1207 833.97 C 1174 838.92 1135 826.52 1110 807.14" horiz-adv-x="752.0"/><glyph unicode="Д" glyph-name="Д" d="M 339 316.69 C 414 340.06 513 370.18 593 398.57 C 656 420.87 707 443.64 725 450.85 C 765 467.25 987 602.91 1017 638.68 C 1047 674.46 1087 723.66 1023 672.97 C 959 622.29 685 397.19 607 333.08 C 530 268.98 324 131.84 239 81.15 C 154 30.47 102 21.52 84 25.99 C 66 30.47 35 48.35 23 72.21 C 11 96.06 30 121.4 54 127.36 C 78 133.33 105 139.29 138 109.47 C 170 79.66 211 24.5 263 14.07 C 315 3.63 369 -20.22 434 18.54 C 500 57.3 607 151.21 640 197.43 C 673 243.64 722 318.18 727 397.19 C 731 476.19 743 537.82 674 587.02 C 606 636.21 516 684.9 419 678.93 C 322 672.97 245 645.12 203 606.36 C 161 567.6 149 508.99 154 479.18 C 158 449.36 193 395.69 240 379.3 C 288 362.9 336 368.86 388 389.73 C 440 410.6 456 415.94 482 440.38 C 495 453.1 513 483.65 473 495.57 C 433 507.5 404 511.97 360 498.56" horiz-adv-x="781.0"/><glyph unicode="Е" glyph-name="Е" d="M 389 459.8 C 374 473.21 366 459.8 362 444.89 C 358 429.98 360 424.02 380 432.96 C 399 441.91 435 446.38 454 453.83 C 474 461.29 523 480.67 541 504.52 C 559 528.37 575 586.51 572 616.32 C 569 646.14 533 677.95 505 685.41 C 477 692.86 419 701.29 359 684.9 C 299 668.5 251 637.19 232 614.83 C 212 592.47 201 564.15 217 523.9 C 234 483.65 250 461.29 268 443.4 C 286 425.51 310 407.62 310 407.62 C 310 407.62 262 392.71 229 374.82 C 197 356.94 141 324.14 98 274.95 C 55 225.75 21 154.2 18 119.91 C 15 85.62 26 52.83 60 30.47 C 94 8.1 179 3.63 210 8.1 C 241 12.58 280 30.98 326 56.32 C 372 81.66 436.09 119.91 436.09 119.91" horiz-adv-x="437.0"/><glyph unicode="Ж" glyph-name="Ж" d="M 1227 537.31 C 1174 489.61 1102 412.09 1063 340.54 C 1025 268.98 981 178.05 970 137.8 C 958 97.55 940 43.88 940 43.88 M 990 601.42 C 926 526.88 792 353.95 753 294.33 C 715 234.7 676 169.1 634 122.89 C 592 76.68 518 2.14 518 2.14 M 412 227.24 L 1174 197.43 M 199 306.25 C 269 350.97 677 583.53 713 604.4 C 749 625.27 801 647.63 773 596.94 C 744 546.26 615 398.68 546 340.54 C 478 282.4 388 206.37 312 161.65 C 236 116.93 147 66.24 87 75.19 C 27 84.13 8 134.82 18 160.16 C 29 185.5 53 209.35 66 204.88 C 80 200.41 94 181.03 94 181.03" horiz-adv-x="1185.0"/><glyph unicode="З" glyph-name="З" d="M 276 506.01 C 398 601.42 481 643.14 510 655.08 C 546 670.01 610 657.01 614 620.79 C 618 586.99 590 534.33 559 500.05 C 528 465.76 508 441.91 437 395.69 C 365 349.48 258 304.76 258 304.76 C 258 304.76 317 350.97 374 373.33 C 431 395.69 452 416.56 468 377.81 C 484 339.05 496 304.76 461 248.11 C 425 191.46 361 122.89 303 85.62 C 244 48.35 158 3.63 118 3.63 C 77 3.63 9 31.96 3 43.88 C -3 55.81 19 125.87 27 128.85 C 34 131.84 3 58.79 12 45.37 C 21 31.96 74 3.63 122 8.1 C 170 12.58 408.66 70.73 502.62 119.91" horiz-adv-x="504.0"/><glyph unicode="И" glyph-name="И" d="M 256 409.11 C 271 455.32 357 520.92 357 520.92 C 357 520.92 211 361.41 163 307.74 C 116 254.08 13 112.46 2 96.06 C -8 79.66 -1 51.34 11 34.94 C 23 18.54 66 5.12 105 33.45 C 144 61.77 254 148.23 315 201.9 C 376 255.57 622 495.57 642 514.95 C 661 534.33 667 555.2 651 543.28 C 634 531.35 452 333.08 411 270.47 C 369 207.86 324 116.93 323 78.17 C 321 39.41 363 7.73 382 11.09 C 446.98 13.58 524.27 57.17 604.73 119.91" horiz-adv-x="606.0"/><glyph unicode="Й" glyph-name="Й" d="M 347 643.16 C 431 695.33 526 731.11 611 749 C 696 766.89 735 765.4 756 746.02 C 777 726.64 791 701.77 774 667.48 C 758 633.19 740 622.29 740 622.29 M 262 388.24 C 294 452.34 355 485.14 355 485.14 C 355 485.14 209 321.16 155 258.55 C 101 195.94 58 133.33 37 103.51 C 17 73.7 18 24.5 54 20.03 C 90 15.56 139 36.43 212 99.04 C 285 161.65 511 380.79 556 418.06 C 601 455.32 653 531.35 599 474.7 C 546 418.06 441 312.21 406 257.06 C 370 201.9 333 128.85 327 85.62 C 321 42.39 334 15.56 364 14.07 C 455.38 24.55 523.9 64.22 593.07 119.91" horiz-adv-x="588.0"/><glyph unicode="К" glyph-name="К" d="M 530 155.69 C 584 189.97 611 192.96 635 188.48 C 658 184.01 670 154.2 655 128.85 C 640 103.51 618 58.79 609 40.9 C 600 23.01 618 3.63 648 2.14 C 678 0.65 806.34 85.62 806.34 85.62 M -1 257.06 C 29 291.34 232 397.66 338 446.85 C 444 496.05 615 567.13 651 583.53 C 687 599.92 730 619.3 705 564.15 C 679 508.99 597 400.17 527 322.65 C 457 245.13 156 40.9 156 40.9 C 156 40.9 417 207.86 520 261.53 C 623 315.2 812 419.55 839 431.47 C 866 443.4 872 410.6 846 376.32" horiz-adv-x="835.0"/><glyph unicode="Л" glyph-name="Л" d="M 94 219.79 C 43.58 170.6 17.06 145.25 2.06 100.53 C -12.94 55.81 11 27.48 36 24.5 C 61 21.52 167 51.34 248 96.06 C 328 140.78 477 231.71 541 276.44 C 606 321.16 801 453.83 829 476.19 C 857 498.56 977 589.49 977 589.49 C 977 589.49 820 449.36 784 395.69 C 749 342.03 691 268.98 655 221.28 C 619 173.58 580 118.42 564 91.59 C 547 64.75 550 28.98 571 12.58 C 684.97 -11.59 840.81 78.71 885.68 119.91" horiz-adv-x="889.0"/><glyph unicode="М" glyph-name="М" d="M 9.69 119.91 C 7 60.28 6 84.13 7 60.28 C 9 36.43 32 11.09 55 6.61 C 77 2.14 179 45.37 235 81.15 C 292 116.93 651 385.26 720 435.94 C 788 486.63 909 570.11 909 570.11 C 909 570.11 855 511.97 815 428.49 C 775 345.01 672 198.92 639 151.22 C 606 103.51 524 6.61 524 6.61 C 524 6.61 605 124.38 726 192.96 C 846 261.53 903 298.8 951 331.59 C 998 364.39 1100 476.19 1100 476.19 C 1100 476.19 990 355.45 945 276.44 C 900 197.43 823 70.72 812 55.81 C 802 40.9 796 3.63 855 25.99 C 858.79 19.67 1018.27 77.66 1085.28 119.91" horiz-adv-x="1091.0"/><glyph unicode="Н" glyph-name="Н" d="M 99 206.37 C 130 197.43 251 225.75 325 252.58 C 400 279.42 460 291.34 491 325.63 C 522 359.92 643 508.99 665 528.37 C 688 547.75 686 549.24 686 549.24 C 686 549.24 601 459.8 558 409.11 C 515 358.43 446 270.47 412 191.46 C 378 112.46 337 -38.11 449 24.5 C 561 87.11 606.2 119.91 606.2 119.91 M 26 237.68 C 20 264.51 75 319.67 99 343.52 C 123 367.37 211 429.98 284 480.67 C 357 531.35 485 605.89 485 605.89 C 485 605.89 400 510.48 325 422.53 C 250 334.57 142 181.03 96 127.36 C 50 73.7 23 46.86 23 46.86" horiz-adv-x="609.0"/><glyph unicode="О" glyph-name="О" d="M -33 283.89 C 89 367.37 259 441.91 328 482.16 C 396 522.41 495 576.07 545 568.62 C 569 565.12 595 566.66 616 554.46 C 640 540.69 658 511.59 653 479.18 C 642 418.06 605 340.54 559 280.91 C 513 221.28 429 127.36 358 84.13 C 286 40.9 203 5.12 156 12.58 C 110 20.03 70 33.92 51 86.1 C 32 138.27 106 250.64 140 286.87 C 176 324.96 460 622.62 438 616.32" horiz-adv-x="609.0"/><glyph unicode="П" glyph-name="П" d="M -138 185.5 C -153 207.86 -165 239.17 -92 267.49 C -19 295.82 233 382.28 360 429.98 C 487 477.68 721 555.2 776 576.07 C 831 596.94 855 588 792 513.46 C 730 438.93 630 330.1 505 236.19 C 379 142.27 129 -14.26 129 -14.26 C 129 -14.26 635 331.59 771 416.56 C 853 467.04 906 427 867 370.35 C 809 285.38 682 170.59 642 125.87 C 601 81.15 575 25.99 607 14.07 C 676.21 -6.94 789.16 62.5 881.71 119.91" horiz-adv-x="886.0"/><glyph unicode="Р" glyph-name="Р" d="M 347 276.44 C 307 325.63 307 364.39 322 391.22 C 337 418.06 396 478.19 433 499.06 C 470 519.93 567 573.09 616 589.49 C 665 605.89 716 620.79 762 628.25 C 808 635.7 856 614.83 869 589.49 C 883 564.15 908 514.95 877 462.78 C 845 410.6 802 373.33 775 358.43 C 748 343.52 702 343.52 684 343.52 M 163 194.45 C 310 254.08 476 327.12 522 347.99 C 568 368.86 666 438.93 666 438.93 C 666 438.93 586 374.82 541 318.18 C 496 261.53 400 149.72 334 103.51 C 268 57.3 197 11.09 151 20.03 C 104 28.98 54 70.72 34 102.02 C 15 133.33 12 206.37 30 227.24" horiz-adv-x="745.0"/><glyph unicode="С" glyph-name="С" d="M 462 389.73 C 444 389.73 427 383.77 403 352.46 C 380 321.16 353 288.36 353 288.36 C 353 288.36 478 368.86 511 427 C 544 485.14 564 550.73 554 580.55 C 544 610.36 527 661.04 457 635.7 C 387 610.36 303 535.82 283 514.95 C 262 494.08 190 418.06 147 356.94 C 104 295.82 63 224.26 41 164.63 C 19 105 13 33.45 65 0.65 C 117 -32.14 199 -9.78 239 5.12 C 280 20.03 419.6 90.1 455.6 119.91" horiz-adv-x="457.0"/><glyph unicode="Т" glyph-name="Т" d="M -7 258.55 C 164 379.3 334 474.7 412 510.48 C 489 546.26 461 495.57 437 462.78 C 413 429.98 327 324.14 291 279.42 C 255 234.7 39 12.58 39 12.58 C 39 12.58 151 146.74 294 233.21 C 437 319.67 594 418.06 653 447.87 C 713 477.68 755 473.21 699 383.77 C 644 294.33 601 222.77 574 191.46 C 547 160.16 500 110.97 500 110.97 C 500 110.97 622 204.88 720 264.51 C 819 324.14 860 345.01 889 358.43 C 917 371.84 989 392.71 923 291.34 C 857 189.97 822 134.82 808 106.49 C 795 78.17 795 33.45 823 33.45 C 918.8 49.76 964.62 62.61 1046.73 119.91" horiz-adv-x="1049.0"/><glyph unicode="У" glyph-name="У" d="M -2 369.33 C 98 439.4 220 531.35 336 585.02 C 453 638.68 503 646.14 509 602.91 C 515 559.67 474 517.93 441 492.59 C 408 467.25 331 397.19 323 379.3 C 316 361.41 310 330.1 345 325.63 C 381 321.16 450 321.16 511 350.97 C 572 380.79 803 564.15 827 585.02 C 851 605.89 828 622.29 806 595.45 C 784 568.62 700 500.05 657 441.91 C 614 383.77 506 254.08 438 189.97 C 369 125.87 249 28.98 180 2.14 C 111 -24.69 70 -11.27 58 6.61 C 46 24.5 50 69.22 56 75.19 C 62 81.15 80 94.57 73 78.17" horiz-adv-x="623.0"/><glyph unicode="Ф" glyph-name="Ф" d="M 367 388.24 C 403 422.53 440 434.45 461 437.44 C 482 440.42 534 432.96 545 392.71 C 555 352.46 558 312.21 521 234.7 C 483 157.18 463 115.44 391 21.52 C 319 -72.39 160 -236.37 160 -236.37 C 160 -236.37 391 18.54 503 166.12 C 615 313.7 884 579.05 884 579.05 M 384 403.15 C 345 392.71 297 370.35 223 300.29 C 148 230.22 54 139.29 30 96.06 C 6 52.83 2 11.09 50 -17.24 C 97 -45.56 205 -14.26 305 52.83 C 404 119.91 615 270.47 670 295.82 C 725 321.16 826 345.01 861 336.07 C 895 327.12 895 267.49 874 230.22 C 853 192.96 785 109.47 732 76.68 C 680 43.88 625 15.56 600 24.5 C 574 33.45 565 46.86 565 46.86" horiz-adv-x="900.0"/><glyph unicode="Х" glyph-name="Х" d="M 677 327.12 C 700 355.44 717 403.15 724 431.47 C 732 459.8 732 503.03 662 464.27 C 592 425.51 553 383.77 490 307.74 C 428 231.71 377 167.61 359 131.84 C 341 96.06 311 45.37 346 24.5 C 432.22 -14.66 527.93 72.62 633.2 119.91 M 313 279.42 C 305 319.67 326 349.48 350 370.35 C 374 391.22 496 471.72 539 494.08 C 583 516.44 618 535.82 624 513.46 C 630 491.1 602 437.44 550 376.32 C 498 315.2 401 189.97 290 121.4 C 180 52.83 86 -5.31 44 15.56 C 3 36.43 6 78.17 15 94.57 C 24 110.97 37 121.4 37 121.4" horiz-adv-x="637.0"/><glyph unicode="Ц" glyph-name="Ц" d="M -25 328.61 C 65 347.99 162 395.69 206 421.04 C 251 446.38 348 535.82 367 559.68 C 387 583.53 340 520.92 303 473.21 C 266 425.51 188 327.12 142 263.02 C 96 198.92 57 143.76 45 115.44 C 33 87.11 26 43.88 62 51.34 C 97 58.79 263 169.1 306 201.9 C 349 234.7 518 427 539 449.36 C 560 471.72 554 501.54 501 440.42 C 449 379.3 361 264.51 351 230.22 C 340 195.94 349 160.16 379 140.78 C 409 121.4 521 66.24 540 43.88 C 560 21.52 563 -20.22 557 -54.51 C 551 -88.79 509 -163.33 482 -188.67 C 455 -214.01 384 -258.74 348 -254.26 C 312 -249.79 309 -231.9 330 -197.62 C 351 -163.33 401 -100.72 431 -64.94 C 461 -29.16 553.75 51.34 647.75 119.91" horiz-adv-x="652.0"/><glyph unicode="Ч" glyph-name="Ч" d="M 54 339.05 C 18 346.5 14 354.96 25 383.77 C 36 410.55 135 509.97 195 541.79 C 247 569.28 288 631.23 259 613.34 C 231 595.45 212 562.65 246 541.79 C 271 526.28 317 502.52 317 502.52 C 317 502.52 305 484.29 298 474.7 C 273 437.44 227 370.35 191 312.21 C 155 254.08 101 170.59 83 131.84 C 66 93.08 58 48.35 72 30.47 C 151.89 4.13 230.24 71.16 305.71 119.91" horiz-adv-x="308.0"/><glyph unicode="Ш" glyph-name="Ш" d="M 5 331.59 C 59 367.37 189 435.94 224 453.83 C 260 471.72 423 589.49 423 589.49 C 423 589.49 330 513.46 299 473.21 C 268 432.96 202 337.56 178 304.76 C 154 271.96 66 172.09 41 148.23 C 16 124.38 -51 57.3 25 70.72 C 101 84.13 212 119.91 272 148.23 C 332 176.56 476 257.06 517 280.91 C 557 304.76 652 374.82 697 418.06 C 742 461.29 776 507.5 776 507.5 C 776 507.5 627 345.01 608 316.69 C 588 288.36 536 203.39 521 170.59 C 506 137.8 508 103.51 533 100.53 C 558 97.55 587 103.51 619 115.44 C 652 127.36 792 185.5 843 207.86 C 894 230.22 958 260.04 991 282.4 C 1023 304.76 1101 403.15 1101 403.15 C 1101 403.15 994 271.96 970 227.24 C 946 182.52 918 116.93 913 85.62 C 909 54.32 921 24.5 949 18.54 C 977 12.58 1044 23.01 1095 51.34 C 1146 79.66 1215.3 119.91 1215.3 119.91" horiz-adv-x="1217.0"/><glyph unicode="Щ" glyph-name="Щ" d="M 58 337.56 C 100 376.32 195 434.45 239 456.81 C 282 479.18 362 526.88 382 544.77 C 401 562.66 412 592.47 377 564.15 C 343 535.82 285 471.72 267 435.94 C 249 400.17 207 334.57 175 285.38 C 142 236.19 99 181.03 57 134.82 C 15 88.6 -4 52.83 70 73.7 C 145 94.57 252 145.25 295 167.61 C 339 189.97 483 279.42 538 318.18 C 593 356.94 725 514.95 725 514.95 C 725 514.95 571 330.1 547 279.42 C 523 228.73 482 152.71 480 139.29 C 479 125.87 486 94.57 520 100.53 C 555 106.49 659 152.71 711 178.05 C 763 203.39 872 258.55 890 270.47 C 908 282.4 1002 401.66 1002 401.66 C 1002 401.66 896 258.55 883 222.77 C 869 186.99 841 109.47 839 84.13 C 838 58.79 845 11.09 878 12.58 C 911 14.07 954 25.99 975 -9.78 C 996 -45.56 1018 -78.36 999 -117.12 C 980 -155.88 947 -191.65 880 -228.92 C 813 -266.19 793 -264.7 769 -257.24 C 746 -249.79 726 -222.96 744 -190.16 C 762 -157.37 804 -88.79 833 -63.45 C 863 -38.11 926 21.52 947 30.47 C 1015.48 66.98 1033.42 73.62 1095.81 119.91" horiz-adv-x="1098.0"/><glyph unicode="Ъ" glyph-name="Ъ" d="M -4 307.74 C 59 364.39 111 421.04 132 450.85 C 153 480.67 231 614.83 231 614.83 C 231 614.83 223 567.13 231 550.73 C 238 534.33 242 508.99 259 494.08 C 275 479.18 298 461.29 321 458.31 C 345 455.32 381 473.21 402 486.63 C 423 500.05 469 538.8 469 538.8 C 469 538.8 366 462.78 338 427 C 310 391.22 266 339.05 235 286.87 C 204 234.7 174 158.67 175 122.89 C 177 87.11 201 42.39 231 30.47 C 260 18.54 320 12.58 356 34.94 C 392 57.3 412 93.08 408 125.87 C 403 158.67 375 173.58 353 176.56 C 330 179.54 318 163.14 318 163.14" horiz-adv-x="469.0"/><glyph unicode="Ы" glyph-name="Ы" d="M -3 292.83 C 72 343.52 132 401.66 155 434.45 C 179 467.25 237 582.04 237 582.04 C 237 582.04 212 491.1 196 449.36 C 179 407.62 129 306.25 105 264.51 C 81 222.77 52 155.69 41 118.42 C 29 81.15 30 8.1 81 34.94 C 132 61.77 170 96.06 196 143.76 C 221 191.46 245 252.58 230 277.93 C 215 303.27 190 313.7 167 318.18 C 145 322.65 191 318.18 209 304.76 C 227 291.34 237 260.04 246 246.62 C 255 233.21 290 224.26 319 228.73 C 349 233.21 394 261.53 424 286.87 C 454 312.21 504 382.28 515 403.15 C 525 424.02 518 432.96 506 416.56 C 494 400.17 448 324.14 437 300.29 C 427 276.44 401 215.32 392 181.03 C 383 146.74 377 84.13 386 58.79 C 395 33.45 409 11.09 445 9.6 C 536.32 26.19 586.6 59.54 654.75 119.91" horiz-adv-x="657.0"/><glyph unicode="Ь" glyph-name="Ь" d="M 311 567.13 C 259 500.05 158 343.52 125 313.7 C 92 283.89 49 215.32 37 181.03 C 25 146.74 25 93.04 47 58.79 C 61 37.93 88 25.52 113 23.01 C 145 19.76 178 35.12 205 51.34 C 238 70.26 266 97.66 287 128.85 C 306 157.17 326 190.16 325 224.26 C 323 247.12 311 270.92 293 285.38 C 275 300.68 247 301.99 223 304.76 C 199 307.55 174 306.38 150 301.78 C 133 298.39 100 283.89 100 283.89" horiz-adv-x="370.0"/><glyph unicode="Э" glyph-name="Э" d="M 226 318.18 C 173 349.48 136 371.84 164 424.02 C 193 476.19 278 549.98 331 576.07 C 396 607.84 463 602.04 475 576.07 C 485 552.74 518 534.33 485 471.72 C 452 409.11 382 309.23 331 246.62 C 281 184.01 163 49.85 118 30.47 C 74 11.09 21 12.58 26 54.32 C 30 96.06 65 186.99 97 225.75 C 130 264.51 182 325.63 182 325.63 C 182 325.63 215 301.78 235 288.36 C 254 274.95 297 239.17 315 239.17 C 333 239.17 355 243.64 367 258.55" horiz-adv-x="443.0"/><glyph unicode="Ю" glyph-name="Ю" d="M 174 359.92 C 144 391.22 122 397.19 168 416.56 C 215 435.94 574 585.02 574 585.02 C 574 585.02 478 529.86 443 486.63 C 407 443.4 332 361.41 282 319.67 C 231 277.93 -12 94.57 -12 94.57 C -12 94.57 255 298.8 283 319.67 C 311 340.54 344 359.92 386 359.92 C 428 359.92 669 368.86 702 371.84 C 735 374.82 794 392.71 838 410.6 C 881 428.49 878 465.76 842 447.87 C 806 429.98 671 310.72 650 292.83 C 629 274.95 481 131.84 468 113.95 C 455 96.06 437 55.81 455 30.47 C 472 5.12 535 0.65 560 2.14 C 586 3.63 677 23.01 726 43.88 C 775 64.75 835 106.49 870 140.78 C 906 175.07 948 234.7 958 271.96 C 969 309.23 982 361.41 969 374.82 C 955 388.24 942 379.3 946 374.82 C 951 370.35 961 364.39 961 364.39" horiz-adv-x="959.0"/><glyph unicode="Я" glyph-name="Я" d="M 115 148.23 C 77 109.47 36 63.26 19 20.03 C 1 -23.2 -8 -69.41 -8 -79.85 C -8 -90.28 -2 -112.64 25 -105.19 C 51 -97.74 163 -32.14 196 -11.27 C 229 9.6 353 115.44 382 142.27 C 412 169.1 491 243.64 522 271.96 C 554 300.29 624 377.81 648 415.07 C 672 452.34 701 540.3 704 556.69 C 707 573.09 661 616.32 636 608.87 C 610 601.42 566 546.26 551 508.99 C 536 471.72 515 418.06 518 379.3 C 521 340.54 540 282.4 542 245.13 C 543 207.86 536 166.12 528 152.71 C 521 139.29 472 51.34 472 51.34" horiz-adv-x="650.0"/><glyph unicode="а" glyph-name="а" d="M 285 158.67 C 285 158.67 289 198.2 283 216.81 C 278 235.21 268 253.25 253 266 C 239 278.72 220 288.83 201 289.85 C 187 290.61 173 283.62 161 276.44 C 139 263.39 123 242.27 104 224.26 C 85 205.02 65 185.68 48 164.63 C 32 145.25 15 125.89 3 103.51 C -5 88.61 -13 72.62 -13 55.81 C -14 42.91 -12 27.81 -3 18.54 C 4 11.42 15 9.81 25 9.6 C 46 9.13 67 18.73 87 25.99 C 114 36.02 140 48.68 166 63.26 C 190 77.2 213 93.03 234 110.97 C 273 143.79 341 219.79 341 219.79 C 341 219.79 264 144.56 239 97.55 C 232 84.77 228 70.21 227 55.81 C 225 43.9 225 31.05 230 20.03 C 234 10.3 241 0.91 250 -3.82 C 262 -9.62 276 -8.39 289 -6.8 C 314 -3.73 338 7.1 361 17.05 C 426.67 51.67 504.13 93.21 542.22 119.91" horiz-adv-x="543.0"/><glyph unicode="б" glyph-name="б" d="M 229 200.41 C 225 210.16 215 227.01 203 236.44 C 194 244.32 183 245.81 175 245.13 C 157 243.64 99 209.35 68 176.56 C 37 143.76 7 91.59 2 73.7 C -2 55.81 10 11.09 34 6.61 C 58 2.14 107 11.09 154 52.83 C 202 94.57 263 158.67 286 189.97 C 308 221.28 369 349.48 391 386.75 C 414 424.02 464 498.56 487 531.35 C 509 564.15 541 588 581 599.92 C 621 611.85 724 631.23 772 638.68 C 819 646.14 1079 653.59 1079 653.59" horiz-adv-x="375.0"/><glyph unicode="в" glyph-name="в" d="M -0.11 119.91 C 77.89 172.09 185 271.98 242 310.72 C 299 349.47 285 340.23 319 359.92 C 353 379.6 405 402.86 446 427 C 487 451.14 534 480.28 564 504.52 C 593 528.75 608 548.06 625 567.13 C 641 586.2 658 603.77 664 617.81 C 669 631.86 669 633.89 667 644.65 C 665 655.4 660 672.73 649 678.93 C 637 685.14 637 686.16 608 674.46 C 580 662.76 533 617.8 495 585.02 C 458 552.24 422 517.87 385 477.68 C 348 437.5 311 385.99 275 343.52 C 238 301.05 188 255.37 164 222.77 C 140 190.17 137 177.55 124 154.2 C 111 130.84 94 107.24 84 82.64 C 74 58.05 62 27.66 64 8.1 C 67 -11.45 72 -20.41 85 -27.67 C 99 -34.93 114 -32.37 136 -24.69 C 157 -17.01 187 7.48 206 25.99 C 225 44.5 238 63.19 252 84.13 C 266 105.07 287 131.33 288 151.21 C 289 171.1 285 182.8 272 191.46 C 258 200.13 239 191.9 218 188.48 C 197 185.07 163 175.3 148 169.1 C 133 162.91 127 157.18 127 157.18" horiz-adv-x="428.0"/><glyph unicode="г" glyph-name="г" d="M 2.44 119.91 C 83.44 179.54 164 248.11 174 252.58 C 184 257.06 204 267.02 219 264.51 C 228 263.05 237 257.5 241 249.6 C 247 237.77 244 222.38 241 209.35 C 236 188.64 222 171.02 211 152.71 C 196 127.5 176 105.3 162 79.66 C 154 64.9 138 50.07 141 33.45 C 144 19.62 158 8.04 171 3.63 C 193 -3.77 218 7.45 241 14.07 C 328.83 47.96 385.34 74.86 454.2 119.91" horiz-adv-x="456.0"/><glyph unicode="д" glyph-name="д" d="M 351 163.14 C 313 213.83 281 224.26 255 210.84 C 230 197.43 186 163.31 157 133.33 C 139 114.7 119 95.14 111 70.72 C 104 52.44 97 28.78 108 12.58 C 116 0.63 134 -2.72 148 -2.33 C 177 -1.54 203 16.68 227 31.96 C 251 47.32 272 67.94 293 88.6 C 331 127.75 365 170.57 397 215.32 C 414 239.92 430 265.56 443 292.83 C 461 331.45 476 371.93 485 413.58 C 490 436.02 494 459.44 491 482.16 C 487 509.57 479 538.88 461 559.68 C 433 591.07 393 605.23 353 615.3 C 297 629.2 235 622.68 178 617.81 C 110 612.04 42 600.25 -25 585.02 C -103 567.14 -181 544.81 -256 516.44 C -351 480.5 -533 388.24 -533 388.24" horiz-adv-x="486.0"/><glyph unicode="е" glyph-name="е" d="M 7.49 119.91 C 72.49 131.84 100 122.89 122 140.78 C 144 158.67 165 181.95 168 209.35 C 170 224.21 164 242.46 152 251.09 C 140 259.42 122 258.19 109 252.58 C 73 229.12 40 175.03 22 140.78 C 9 114.38 -9 86.82 -8 57.3 C -7 43.08 -1 27.52 10 18.54 C 20 10.18 36 8.58 49 9.6 C 142.48 30.59 201.41 69.74 267.71 119.91" horiz-adv-x="269.0"/><glyph unicode="ж" glyph-name="ж" d="M -2.11 119.91 C 82.89 182.52 144 221.28 180 230.22 C 215 239.17 266 248.11 267 221.28 C 269 194.45 241 122.89 223 107.98 C 205 93.08 168 63.26 151 48.35 C 135 33.45 112 12.58 112 12.58 C 112 12.58 178 69.22 214 96.06 C 250 122.89 485 230.22 485 230.22 C 485 230.22 430 179.54 417 161.65 C 403 143.76 381 103.51 369 84.13 C 357 64.75 355 24.5 390 39.41 C 424 54.32 660 215.32 660 215.32 C 660 215.32 583 157.18 575 134.82 C 566 112.46 555 81.15 557 60.28 C 558 39.41 579 8.1 597 5.12 C 615 2.14 677 25.99 703 40.9 C 728 55.81 806.69 94.57 830.69 119.91" horiz-adv-x="833.0"/><glyph unicode="з" glyph-name="з" d="M 13 271.96 C 61 303.27 106 319.67 139 324.14 C 171 328.61 198 328.61 179 294.33 C 159 260.04 49 131.84 49 131.84 C 49 131.84 77 155.69 101 149.72 C 125 143.76 158 133.33 158 97.55 C 158 61.77 136 -47.05 116 -100.72 C 97 -154.38 58 -260.23 37 -306.44 C 16 -352.65 -54 -419.73 -97 -431.66 C -140 -443.59 -292 -494.27 -280 -401.85 C -268 -309.42 -198 -237.87 -149 -200.6 C -100 -163.33 42 -57.49 77 -35.13 C 113 -12.77 307.19 119.91 307.19 119.91" horiz-adv-x="312.0"/><glyph unicode="и" glyph-name="и" d="M 0.53 119.91 C 79.53 166.12 199 225.75 199 225.75 C 199 225.75 156 182.52 132 143.76 C 108 105 83 54.32 90 40.9 C 98 27.48 125 18.54 160 31.96 C 196 45.37 284 85.62 317 109.47 C 350 133.33 435 222.77 435 222.77 C 435 222.77 363 139.29 351 102.02 C 339 64.75 365 37.92 372 30.47 C 379 23.01 421 15.56 438 21.52 C 518.36 45.33 580.25 86.15 623.71 119.91" horiz-adv-x="626.0"/><glyph unicode="й" glyph-name="й" d="M 91 519.43 C 203 585.02 234 596.94 310 616.32 C 386 635.7 440 640.17 476 629.74 C 511 619.3 534 589.49 508 546.26 C 483 503.03 388 397.19 388 397.19 M 2.76 119.91 C 69.76 163.14 137 218.3 137 218.3 C 137 218.3 67 155.69 46 109.47 C 25 63.26 15 24.5 24 17.05 C 33 9.6 72 17.05 152 72.21 C 233 127.36 325 192.96 325 192.96 C 325 192.96 289 166.12 288 122.89 C 286 79.66 292 67.73 313 58.79 C 334 49.85 393.53 63.27 414.53 72.21 C 435.53 81.16 505.73 119.91 505.73 119.91" horiz-adv-x="511.0"/><glyph unicode="к" glyph-name="к" d="M -0.07 119.91 C 63.93 172.09 177 242.15 198 246.62 C 219 251.09 245 262.45 260 248.11 C 271 237.87 265 218.02 262 203.39 C 258 182.01 247 161.81 235 143.76 C 214 112.33 182 89.75 156 61.77 C 139 42.82 105 3.63 105 3.63 L 178 85.62 L 478 266 L 257 131.84 C 257 131.84 266 104.23 272 91.59 C 278 80.26 286 69.38 295 60.28 C 307 47.66 321 33.57 338 28.98 C 361 22.78 386 30.64 409 36.43 C 468.34 56.17 517.84 81.27 572.28 119.91" horiz-adv-x="576.0"/><glyph unicode="л" glyph-name="л" d="M 0.64 119.91 C -17.4 103.51 -15 82.64 -18 66.24 C -21 49.85 -7 22.56 11 14.07 C 35 2.57 64 20.87 90 28.98 C 119 38.39 148 52.59 175 67.73 C 201 82.55 225 101.88 251 118.42 C 280 137.21 312 151.3 339 173.58 C 369 198.95 418 261.53 418 261.53 C 418 261.53 347 191.73 325 148.23 C 317 132.21 309 113.76 312 96.06 C 315 78.4 328 63.34 342 51.34 C 357 37.78 375 26.69 395 23.01 C 424 17.74 454 24.28 482 33.45 C 525.29 52.33 587.46 80.07 643 119.91" horiz-adv-x="643.0"/><glyph unicode="м" glyph-name="м" d="M 0 119.91 C -10 104.37 -13 73.73 -11 55.81 C -8 39.27 4 22.07 19 15.56 C 40 6.76 65 17.8 86 24.5 C 116 33.94 143 52.22 171 67.73 C 212 90.5 251 115.84 290 140.78 C 318 158.26 348 172.31 372 194.45 C 385 205.97 404 234.7 404 234.7 C 404 234.7 385 171.16 372 140.78 C 357 104.15 317 34.94 317 34.94 C 317 34.94 352 81.3 374 99.04 C 411 128.92 458 144.75 501 167.61 C 536 186.99 570 210.34 608 225.75 C 636 237.31 696 251.09 696 251.09 C 696 251.09 655 201.52 639 173.58 C 625 148.27 605 122.01 606 93.08 C 607 76.2 616 57.76 630 48.35 C 647 37.24 670 40.4 690 42.39 C 759.13 55.3 818.41 79.17 883 119.91" horiz-adv-x="883.0"/><glyph unicode="н" glyph-name="н" d="M 0 119.91 C 67.67 161.58 115.79 205.68 181 251.09 C 181 251.09 153 206.6 139 184.01 C 126 161.86 115 138.35 100 116.93 C 75 79.33 17 9.6 17 9.6 C 17 9.6 72 81.6 99 118.42 C 113 137.53 139 176.56 139 176.56 C 139 176.56 208 178.42 242 178.05 C 269 177.75 324 175.07 324 175.07 L 390 263.02 C 390 263.02 341 206.27 324 173.58 C 311 149.81 301 124.2 297 97.55 C 295 79.74 292 59.15 302 43.88 C 310 30.04 327 21.51 343 18.54 C 368 13.93 395 22.41 418 31.96 C 466.87 58.29 508.22 86.83 548 119.91" horiz-adv-x="548.0"/><glyph unicode="о" glyph-name="о" d="M 73 152.71 C 45 151.22 39 144.37 27 133.33 C 16 123.47 7 109.21 4 94.57 C 2 80.29 3 63.87 10 51.34 C 20 34.21 39 22.06 58 15.56 C 78 8.56 101 10.52 122 14.07 C 149 18.55 175 29.08 198 42.39 C 225 57.7 251 76.91 271 100.53 C 284 115.74 298 132.97 301 152.71 C 304 169.61 302 189.7 292 203.39 C 280 219.71 257 227.18 237 230.22 C 215 233.59 191 227.11 170 219.79 C 149 212.81 129 203.09 113 188.48 C 101 177.56 86 148.23 86 148.23" horiz-adv-x="358.0"/><glyph unicode="п" glyph-name="п" d="M 0 119.91 C 52.66 172.09 115.59 232.25 180 254.58 C 195 259.84 216 269.5 229 258.55 C 242 246.68 233 222.22 229 204.88 C 221 174.72 203 147.9 184 122.89 C 162 92.68 133 67.78 105 42.39 C 84 22.84 38 -12.77 38 -12.77 C 38 -12.77 133 72.87 181 115.44 C 211 141.88 237 172.62 271 194.45 C 292 208.59 315 221.64 341 227.24 C 359 231.23 383 240.24 396 227.24 C 405 218.11 399 201.07 396 188.48 C 391 169.64 380 153.35 370 136.31 C 358 112.94 340 92.47 330 67.73 C 325 54 312 36.22 321 24.5 C 330 12.61 351 19.05 366 21.52 C 436.6 47.02 514.86 84.27 560 119.91" horiz-adv-x="560.0"/><glyph unicode="р" glyph-name="р" d="M 0 119.91 C 69.75 176.24 145.62 222.17 221 270.47 C 221 270.47 108 145.27 52 82.64 C -20 1.67 -92 -80.02 -165 -160.35 C -243 -245.54 -401 -413.77 -401 -413.77 L 66 94.57 C 66 94.57 176 144.19 231 167.61 C 284 189.87 391 231.71 391 231.71 C 391 231.71 362 184.67 344 163.14 C 329 144.47 310 129.87 295 110.97 C 283 94.72 266 78.98 262 58.79 C 260 45.86 260 28.41 270 20.03 C 283 8.95 305 16.15 322 20.03 C 402.21 47.84 439.21 68.14 509 119.91" horiz-adv-x="509.0"/><glyph unicode="с" glyph-name="с" d="M 222 161.65 C 222 161.65 243 191.74 247 209.35 C 251 230.3 253 255.08 242 273.45 C 234 287.06 218 292.18 202 292.8 C 180 293.68 161 279.14 143 267.49 C 118 251.56 100 234.3 77 207.86 C 45 171.83 9 114.27 8 70.72 C 9 50.69 15 26.42 32 15.56 C 58 -1.15 94 11.94 125 17.05 C 223.41 38.98 300.89 65.21 387 119.91" horiz-adv-x="387.0"/><glyph unicode="т" glyph-name="т" d="M 0 119.91 C 47.47 173.94 107.63 220.31 176 219.79 C 190 219.51 208 219.26 218 209.35 C 229 198.61 231 164.63 231 164.63 L 125 40.9 C 125 40.9 192 130.3 236 163.14 C 266 185.88 304 197.48 339 212.33 C 375 227.89 411 248.69 450 254.08 C 468 256.44 488 258.92 503 249.6 C 517 240.69 527 223.03 528 206.37 C 529 188.8 518 172.22 509 157.18 C 486 119.91 422 58.79 422 58.79 C 422 58.79 472 129.75 506 157.18 C 532 179.03 564 192.47 595 207.86 C 620 220.56 645 237.42 673 242.15 C 685 244.24 699 246.03 710 239.17 C 719 233.29 725 221.51 725 210.84 C 724 186.99 699 170.51 687 149.72 C 673 124.36 656 99.98 647 72.21 C 642 54.04 632 33.14 640 15.56 C 646 1.16 667.84 -8.85 682.96 -6.81 C 808.15 10.09 861.3 47.59 966 119.91" horiz-adv-x="966.0"/><glyph unicode="у" glyph-name="у" d="M 81.55 224.27 C 35.55 176.56 2.3 168.22 1.11 125.87 C 0.53 104.98 19.07 84.03 38 75.19 C 64.34 62.9 96.73 74.4 125 81.15 C 182.03 94.77 274 142.27 287 149.72 C 301 157.18 413 260.04 427 270.47 C 442 280.91 392 261.53 374 246.62 C 356 231.71 287 149.72 269 105 C 252 60.28 219 -39.6 204 -76.87 C 189 -114.13 95 -287.06 62 -349.67 C 29 -412.28 -21 -465.95 -67 -485.33 C -114 -504.71 -178 -485.33 -64 -366.07 C 49 -246.81 201 -102.21 238 -70.9 C 275 -39.6 454 82.64 524 119.91" horiz-adv-x="524.0"/><glyph unicode="ф" glyph-name="ф" d="M 263 189.97 C 263 233.21 258 276.44 229 285.38 C 199 294.33 148 286.87 91 233.21 C 35 179.54 20 106.49 21 90.1 C 23 73.7 51 69.22 124 110.97 C 197 152.71 240 146.74 287 203.39 C 333 260.04 542 506.01 542 506.01 C 542 506.01 273 194.45 254 163.14 C 234 131.84 191 39.41 129 -14.26 C 66 -67.92 -25 -140.97 -25 -140.97 C -25 -140.97 124 -20.22 147 5.12 C 169 30.47 226 107.98 294 121.4 C 363 134.82 375 122.89 375 122.89 L 333 21.52 C 333 21.52 348 21.52 387 40.9 C 425 60.28 501 127.36 519 143.76 C 537 160.16 567 207.86 545 219.79 C 522 231.71 454 215.32 412 191.46 C 370 167.61 303 122.89 303 122.89" horiz-adv-x="582.0"/><glyph unicode="х" glyph-name="х" d="M 115 175.07 C 146 203.39 191 237.68 223 242.15 C 256 246.62 298 246.62 302 218.3 C 307 189.97 301 170.59 280 140.78 C 259 110.97 256 85.62 264 66.24 C 271 46.86 305 18.54 328 11.09 C 350 3.63 425 12.58 447 17.05 C 532.82 42.14 585.85 68.41 657 119.91 M 0 119.91 C 21.81 46.9 90.81 40.15 150 70.72 C 185 88.6 265 133.33 283 157.18 C 301 181.03 353 210.84 374 222.77 C 395 234.7 443 246.62 443 246.62 C 443 246.62 504 252.58 480 182.52" horiz-adv-x="657.0"/><glyph unicode="ц" glyph-name="ц" d="M 148 254.08 C 148 254.08 96 216.77 74 194.45 C 53 173.65 31 152.17 17 125.87 C 6 104.38 -6 79.77 -2 55.81 C 0 39.45 9 20.97 24 14.07 C 47 3.61 75 16.46 99 24.5 C 133 35.85 162 57.18 191 76.68 C 216 92.89 239 111.55 262 130.34 C 282 147.43 301 165.94 321 184.01 C 336 197.79 366 225.75 366 225.75 C 366 225.75 326 205.03 309 189.97 C 289 171.82 260 125.87 260 125.87 C 260 125.87 283 92.15 294 75.19 C 311 50.44 330 27.42 343 0.65 C 354 -20.55 366 -42.87 366 -66.43 C 365 -103.07 344 -136.69 327 -169.29 C 312 -199.58 293 -228.47 270 -254.26 C 247 -281.72 224 -314.9 190 -327.31 C 165 -336.34 132 -340.8 111 -324.33 C 90 -307.3 84 -271.91 90 -245.32 C 99 -206.75 139 -183.54 166 -154.38 C 192 -125.87 218 -96.46 248 -72.39 C 277 -49.05 312 -32.76 343 -12.77 C 428 40.59 573 119.91 573 119.91" horiz-adv-x="573.0"/><glyph unicode="ч" glyph-name="ч" d="M 0 119.91 C 59 172.09 143 291.34 143 291.34 C 143 291.34 98 243.64 98 219.79 C 98 195.94 112 184.01 130 173.58 C 148 163.14 192 166.12 228 179.54 C 264 192.96 286 219.79 286 219.79 C 286 219.79 209 164.63 168 113.95 C 128 63.26 98 9.6 139 6.61 C 179 3.63 240 27.48 273 45.37 C 306 63.26 373 106.5 388 119.91" horiz-adv-x="388.0"/><glyph unicode="ш" glyph-name="ш" d="M 47 149.72 C 66 170.59 135 227.24 135 227.24 C 135 227.24 -13 97.55 -22 78.17 C -30 58.79 -33 27.48 16 37.92 C 65 48.35 217 119.91 257 154.2 C 297 188.48 345 222.77 345 222.77 L 204 110.97 C 204 110.97 212 63.26 229 52.83 C 245 42.39 317 52.83 390 103.51 C 463 154.2 551 224.26 551 224.26 L 426 115.44 C 426 115.44 427 73.7 435 63.26 C 442 52.83 452 28.98 511 39.41 C 573.76 44.99 630.15 87.83 670 119.91" horiz-adv-x="670.0"/><glyph unicode="щ" glyph-name="щ" d="M 34 160.16 L 107 239.17 C 107 239.17 37 163.14 24 140.78 C 11 118.42 -4 78.17 0 64.75 C 5 51.34 28 34.94 70 54.32 C 112 73.7 170 107.98 206 133.33 C 242 158.67 325 248.11 325 248.11 C 325 248.11 225 140.78 219 122.89 C 213 105 221 72.21 243 60.28 C 266 48.35 312 64.75 334 79.66 C 356 94.57 391 125.87 418 163.14 C 444 200.41 462 240.66 462 240.66 C 462 240.66 434 207.86 413 175.07 C 392 142.27 376 94.57 377 87.11 C 379 79.66 404 49.85 432 28.98 C 461 8.1 520 -45.56 531 -61.96 C 541 -78.36 546 -103.7 537 -126.06 C 528 -148.42 501 -184.2 474 -208.05 C 447 -231.9 404 -260.23 365 -275.13 C 327 -290.04 266 -307.93 239 -307.93 C 212 -307.93 189 -273.64 206 -248.3 C 222 -222.96 270 -157.37 310 -118.61 C 350 -79.85 441.9 -6.8 488.9 28.98 C 536.9 64.75 644 119.91 644 119.91" horiz-adv-x="644.0"/><glyph unicode="ъ" glyph-name="ъ" d="M 0 119.91 C 41 157.18 49 169.1 82 212.33 C 114 255.57 165 325.63 165 325.63 C 165 325.63 152 280.91 162 264.51 C 172 248.11 192 218.3 220 216.81 C 248 215.32 292 233.21 314 249.6 C 336 266 336 274.95 336 274.95 C 336 274.95 277 234.7 244 201.9 C 211 169.1 186 133.33 180 106.49 C 174 79.66 183 36.43 216 20.03 C 248 3.63 302 8.1 327 31.96 C 353 55.81 350 85.62 335 99.04 C 320 112.46 304 125.87 277 105" horiz-adv-x="402.0"/><glyph unicode="ы" glyph-name="ы" d="M 0 119.91 C 48 147.04 146 211.69 179 254.08 C 206 287.55 179 249.6 179 249.6 C 179 249.6 51 90.1 38 73.7 C 24 57.3 24 28.68 33 23.01 C 50 12.58 78 -0.84 117 25.99 C 155 52.83 196 90.1 197 109.47 C 199 128.85 126 153.43 114 152.71 C 109 152.42 178 130.46 204 116.97 C 239 99.02 312 113.95 340 125.87 C 369 137.8 424 195.94 424 195.94 C 424 195.94 342 127.36 328 81.15 C 315 34.94 331 8.1 351 0.65 C 370 -6.8 455 20.03 495 40.9 C 536 61.77 646 119.91 646 119.91" horiz-adv-x="646.0"/><glyph unicode="ь" glyph-name="ь" d="M 167 292.83 C 167 292.83 113 215.2 82 179.54 C 69 165.2 55 153.02 41 139.29 C 26 123.25 4 111 -3 90.1 C -9 75.06 -7 56.7 0 42.39 C 5 32.27 15 24.66 25 20.03 C 40 13.44 57 12.19 73 14.07 C 90 16.05 106 23.06 120 31.96 C 135 40.8 148 52.55 158 66.24 C 167 79.06 177 93.69 177 109.47 C 178 122.21 173 137.13 164 145.25 C 152 154.58 135 151.96 120 152.71 C 99 153.83 55 148.23 55 148.23" horiz-adv-x="249.0"/><glyph unicode="э" glyph-name="э" d="M 0 119.91 C 0 119.91 76 192.03 109 212.95 C 139 231.13 170 247.52 203 257.22 C 227 264.18 254 274.71 277 266.7 C 289 262.53 302 251.94 304 239.3 C 309 216.44 290 194.47 279 173.94 C 263 144.98 242 119.74 221 93.83 C 200 66.6 179 38.11 154 14.77 C 134 -2.89 115 -25.93 89 -30.55 C 72 -33.7 51 -29.24 38 -16.85 C 27 -6.64 24 10.69 25 25.31 C 27 44.42 39 61.58 50 76.97 C 62 93.13 78 106.51 95 118.08 C 106 126.02 118 138.05 132 137.05 C 144 136.17 153 125.36 161 115.97 C 170 104.35 171 87.73 179 74.86 C 185 64.93 190 53.26 200 47.45 C 213 39.93 230 39.61 244 41.13 C 312.82 40.68 365.26 86.17 418 119.91" horiz-adv-x="418.0"/><glyph unicode="ю" glyph-name="ю" d="M 0 119.91 C 46.84 161.28 86.66 193.84 121 216.11 C 143 227.35 165 239.4 188 244.57 C 201 247.25 216 252.61 226 245.62 C 234 240.83 237 229.96 236 221.38 C 231 190.43 199 170.32 178 147.59 C 151 119.01 117 97.2 89 69.59 C 75 55.27 48 24.26 48 24.26 C 48 24.26 138 60.55 182 81.18 C 236 106.59 289 133.9 341 163.4 C 358 172.6 373 183.1 389 192.92 C 408 204.89 425 220.68 447 228.76 C 468 236.74 492 246.58 513 240.35 C 527 236.28 542 224.89 546 210.84 C 552 191.75 541 170.01 531 152.86 C 517 129.34 494 112.39 471 96.99 C 448 81.43 424 63.09 396 61.15 C 374 59.61 345 63 333 81.18 C 325 91.89 332 107.63 335 120.18 C 340 138.53 348 156.89 361 170.78 C 368 177.69 386 185.54 386 185.54" horiz-adv-x="584.0"/><glyph unicode="я" glyph-name="я" d="M 0 119.91 C -8 109.56 -4.45 86.97 -3.45 74.42 C -2.45 59.17 11 43.99 22 33.75 C 34 22.64 53 19.52 69 18.99 C 92 18.27 114 25.95 135 34.8 C 161 46.04 184 64.18 206 81.18 C 229 98 250 117.26 271 136 C 286 150.06 303 163.08 317 179.21 C 346 213.29 391 290.95 391 290.95 C 391 290.95 353 276.23 336 264.6 C 318 251.91 300 237.21 289 218.22 C 285 211.62 280 203.37 282 196.08 C 290 172.52 328 171.78 341 150.75 C 348 140.42 348 127.11 349 114.91 C 349 86.15 335 58.26 336 29.53 C 337 16.85 346 -7.36 346 -7.36" horiz-adv-x="439.0"/><glyph unicode="ё" glyph-name="ё" d="M 310 385.82 L 333 347.87 M 178 379.49 C 178 379.49 154 362.4 144 352.09 C 137 344.43 124 326.79 124 326.79 M 0 119.91 C 15.43 120.96 82 134.77 91 138.1 C 103 142.16 114 154.34 115 166.57 C 115 172.89 110 180.55 104 182.38 C 90 186.55 74 177.47 62 169.51 C 43 156.68 25 137.09 13 117.02 C 4 101.06 -3 81.81 -1 63.26 C 0 48.81 4 32.26 16 23.21 C 29 12.05 50 13.15 68 13.72 C 93 14.51 117 23.45 141 31.64 C 169 41.39 185.56 44.95 211.56 59.59 C 254.56 83.99 310 119.91 310 119.91" horiz-adv-x="310.0"/></font>
</defs>
</svg>
