<?xml version="1.0" encoding="UTF-8"?>
<!DOCTYPE svg  PUBLIC '-//W3C//DTD SVG 1.1//EN'  'http://www.w3.org/Graphics/SVG/1.1/DTD/svg11.dtd'>
<svg xmlns="http://www.w3.org/2000/svg" xmlns:xlink="http://www.w3.org/1999/xlink" version="1.1">
<defs>
<font horiz-adv-x="300.0" id="GOST">
<font-face font-family="GOST" units-per-em="1000.0" ascent="800.0" descent="-200.0" cap-height="500.0" x-height="300.0"/>
<missing-glyph horiz-adv-x="300.0"/>
<glyph unicode=" " glyph-name="space"
horiz-adv-x="293.0"/>
<glyph unicode="&amp;" glyph-name="&amp;" d="M 475.46 228.73 C 475.46 228.73 345.76 88.6 318.93 64.75 C 292.1 40.9 247.37 25.01 227.99 25.01 C 208.62 25.01 172.84 31.96 148.99 45.37 C 126.63 57.95 96.81 100.53 86.38 119.91 C 75.94 139.29 71.47 176.56 77.43 201.9 C 83.39 227.24 217.56 434.45 217.56 434.45 C 217.56 434.45 290.94 549.42 293.59 562.66 C 297.71 583.32 284.95 619.01 269.74 635.7 C 269.74 635.7 242.37 659.61 202.65 659.55 C 171.03 659.51 148.99 637.19 140.04 617.81 C 131.1 598.43 123.64 565.64 147.49 526.88 C 171.35 488.12 470.98 20.03 470.98 20.03"
horiz-adv-x="537.0"/>
<glyph unicode="'" glyph-name="'" d="M 73.8 669.99 L 43.98 500.05"
horiz-adv-x="146.5"/>
<glyph unicode="(" glyph-name="(" d="M 132.78 722.16 C 76.13 535.82 77.01 387.87 77.62 303.27 C 78.54 174.17 116.38 12.58 132.78 -41.09"
horiz-adv-x="195.5"/>
<glyph unicode=")" glyph-name=")" d="M 70.02 717.22 C 119.22 547.28 119.86 406.12 121.18 318.18 C 122.62 222.44 103.21 83.42 67.04 -38.58"
horiz-adv-x="195.5"/>
<glyph unicode="," glyph-name="," d="M 75.05 31.12 L 43.28 -91.12"
horiz-adv-x="146.5"/>
<glyph unicode="-" glyph-name="-" d="M 42.12 244.29 L 349.21 244.29"
horiz-adv-x="390.5"/>
<glyph unicode="." glyph-name="." d="M 64.84 49.52 C 64.84 49.52 46.96 46.53 48.45 36.1 C 49.94 25.66 58.88 18.21 69.32 25.66 C 79.75 33.12 64.85 49.52 64.85 49.52 Z"
horiz-adv-x="122.0"/>
<glyph unicode="/" glyph-name="/" d="M 468.65 759.57 L 69.14 -84.18"
horiz-adv-x="537.0"/>
<glyph unicode="0" glyph-name="0" d="M 257.81 660.21 C 299.55 660.21 363.31 606.99 364.67 551.34 C 367.02 455.26 368.19 171.17 365.65 128.01 C 362.67 77.33 306.42 27.12 267.66 25.63 C 228.9 24.14 204.22 23.63 174.4 25.12 C 144.59 26.61 77.43 72.86 74.45 123.54 C 71.47 174.23 68.96 505.27 72.45 548.36 C 76.92 603.52 128.7 654.24 174.91 658.71 C 209.17 662.03 257.81 660.21 257.81 660.21 Z"
horiz-adv-x="440.0"/>
<glyph unicode="1" glyph-name="1" d="M 64.85 505.17 L 219.89 660.21 L 218.4 12.21"
horiz-adv-x="293.0"/>
<glyph unicode="2" glyph-name="2" d="M 74.13 551.38 C 108.42 612.5 128.78 640.83 170.52 652.75 C 212.26 664.68 264.47 656.71 289.81 640.32 C 315.15 623.92 345.44 598.07 360.35 563.78 C 374.34 531.6 374.24 483.24 342.93 435.54 C 311.63 387.84 77.62 26.64 77.62 26.64 L 368.31 25.15"
horiz-adv-x="444.0"/>
<glyph unicode="3" glyph-name="3" d="M 59.08 660.21 C 59.08 660.21 172.38 660.21 199.21 657.22 C 226.04 654.24 264.8 624.43 276.73 594.61 C 288.65 564.8 306.54 481.32 279.71 438.09 C 252.87 394.86 242.44 381.44 218.59 371 C 194.74 360.57 163.43 366.53 163.43 366.53 C 163.43 366.53 223.79 369.84 248.4 354.61 C 279.71 335.23 311.52 302.83 314.5 267.05 C 317.49 231.27 322.94 129.51 308.03 99.69 C 293.12 69.88 259.82 31.63 215.1 27.15 C 177.9 23.43 63.55 26.64 63.55 26.64"
horiz-adv-x="390.0"/>
<glyph unicode="4" glyph-name="4" d="M 268.4 324.72 L 267.89 14.65 M 173.97 666.1 L 74.09 169.69 L 370.75 169.69"
horiz-adv-x="439.0"/>
<glyph unicode="5" glyph-name="5" d="M 323.68 660.86 L 74.72 659.37 L 74.72 366.67 C 74.72 366.67 193.98 364.2 214.85 364.2 C 246.16 364.2 307.79 321.91 313.75 271.23 C 319.71 220.54 317.65 150.08 315.2 122.7 C 311.66 83.1 263.48 32.47 225.25 28.79 C 186.41 25.05 62.8 26.79 62.8 26.79"
horiz-adv-x="390.0"/>
<glyph unicode="6" glyph-name="6" d="M 278.3 664.82 C 206.75 639.48 163.52 599.23 133.7 556 C 103.89 512.76 77.05 458.12 75.56 414.89 C 74.07 371.65 74.07 149.54 77.05 118.23 C 80.04 86.93 105.38 58.6 126.25 45.18 C 147.12 31.77 179.93 22.84 218.67 23.81 C 278.3 25.3 312.59 38.75 333.46 62.6 C 354.33 86.45 365.28 107.29 365.28 149.03 C 365.28 190.77 363.28 264.32 360.29 288.17 C 357.31 312.03 327.5 337.37 309.61 349.29 C 291.72 361.22 273.83 365.69 244.02 367.18 C 214.2 368.67 77.05 365.69 77.05 365.69"
horiz-adv-x="439.5"/>
<glyph unicode="7" glyph-name="7" d="M 71.93 578.87 L 73.42 659.37 L 366.11 658.35 L 217.04 16.86"
horiz-adv-x="439.0"/>
<glyph unicode="8" glyph-name="8" d="M 223.33 367.18 C 277 365.69 313.61 401.37 332.63 439.72 C 348.99 472.7 348.85 564.21 324.67 601.23 C 295.41 646.02 249.51 659.5 221.3 659.37 C 192.97 659.23 142.91 645.39 117.49 606.68 C 91.38 566.92 91.17 472.52 107.57 441.21 C 123.96 409.9 145.82 386.56 169.67 377.62 C 193.52 368.67 262.09 372.64 294.89 354.75 C 327.69 336.86 361.97 300.1 364.95 259.85 C 367.94 219.6 368.33 122.67 358.99 99.83 C 345.58 67.04 308.31 33.73 275.51 27.77 C 242.71 21.81 183.09 22.31 160.72 29.77 C 138.36 37.22 90.66 64.53 80.23 107.76 C 69.79 150.99 68.34 261.85 83.24 290.17 C 98.15 318.5 117.49 341.33 141.35 354.75 C 165.2 368.16 223.34 367.18 223.34 367.18 Z"
horiz-adv-x="439.5"/>
<glyph unicode="9" glyph-name="9" d="M 362.81 319.48 C 285.29 317.99 231.52 318.72 180.94 317.99 C 150.98 317.55 82.05 355.8 76.08 409.47 C 70.96 455.61 70.63 519.24 73.61 563.96 C 76.59 608.68 133.24 657.88 166.04 657.88 C 198.83 657.88 237.59 660.86 270.39 659.37 C 303.18 657.88 359.36 604.1 362.34 566.83 C 365.32 529.56 364.3 326.93 364.3 289.66 C 364.3 252.4 340.45 173.86 309.15 133.61 C 277.84 93.36 226.21 43.73 197.89 34.79 C 169.56 25.84 166.04 18.35 166.04 18.35"
horiz-adv-x="439.5"/>
<glyph unicode="&lt;" glyph-name="&lt;" d="M 328.06 370.16 L 82.06 244.43 L 323.59 121.21"
horiz-adv-x="390.5"/>
<glyph unicode="&gt;" glyph-name="&gt;" d="M 64.94 372.31 L 314.91 244.58 L 64.94 118.88"
horiz-adv-x="390.5"/>
<glyph unicode="S" glyph-name="S" d="M 375.38 621.07 C 323.2 664.3 287.9 659.32 252.12 660.81 C 216.34 662.3 152.24 665.28 120.94 635.47 C 89.63 605.65 73.74 567.4 73.74 536.1 C 73.74 504.79 92.61 467.53 116.47 445.16 C 140.32 422.8 311.75 252.86 337.09 221.55 C 362.44 190.25 369.89 150 359.45 121.67 C 349.02 93.35 331.96 53.72 295.32 37.68 C 247.61 16.81 198.99 24.81 163.15 24.81 C 112.47 24.81 61.31 60.56 61.31 60.56"
horiz-adv-x="439.7"/>
<glyph unicode="R" glyph-name="R" d="M 70.9 17.32 L 75.38 659.83 C 75.38 659.83 199.11 661.32 257.25 659.83 C 315.38 658.34 365.09 603.58 366.58 537.99 C 368.07 472.4 367.75 486.95 365.37 422.88 C 363.88 382.63 318.36 319.94 252.77 319.94 L 72.39 319.94 L 196.13 318.45 L 367.56 21.8"
horiz-adv-x="439.5"/>
<glyph unicode="I" glyph-name="I" d="M 73.23 671.1 L 71.74 10.71"
horiz-adv-x="146.5"/>
<glyph unicode="J" glyph-name="J" d="M 268.38 671.1 C 268.38 671.1 270.38 184.69 270.38 141.46 C 270.38 98.23 222.6 29.58 170.42 28.09 C 118.25 26.6 60.15 25.11 60.15 25.11"
horiz-adv-x="342"/>
<glyph unicode="K" glyph-name="K" d="M 72.44 668.63 L 73.42 16.67 L 72.44 267.04 L 372.08 666.63 L 184.76 416.19 L 369.1 19.65"
horiz-adv-x="439.5"/>
<glyph unicode="L" glyph-name="L" d="M 72.77 665.14 L 74.26 24.6 L 278.49 24.13"
horiz-adv-x="341.5"/>
<glyph unicode="M" glyph-name="M" d="M 72.12 16.67 L 72.12 660.2 L 268.42 342.09 L 463.2 657.72 L 462.69 17.15"
horiz-adv-x="537.5"/>
<glyph unicode="N" glyph-name="N" d="M 71.47 16.67 L 74.45 655.25 L 364.67 32.02 L 366.63 665.14"
horiz-adv-x="439.5"/>
<glyph unicode="O" glyph-name="O" d="M 182.62 659.69 C 182.62 659.69 231.82 662.8 261.59 660.67 C 303.33 657.69 363.51 606.93 365 554.75 C 366.49 502.58 365.98 192.58 365.98 144.88 C 365.98 83.76 310.75 29.58 271.99 28.09 C 233.23 26.6 202.04 25.11 167.75 28.09 C 133.46 31.07 76.27 86.38 74.78 131.1 C 73.29 175.82 71.27 512.04 73.8 552.21 C 77.03 603.48 124.12 657.19 182.62 659.69 Z"
horiz-adv-x="439.5"/>
<glyph unicode="P" glyph-name="P" d="M 80.6 319.29 C 80.6 319.29 220.73 317.8 258 319.29 C 295.27 320.78 365.33 366.99 365.33 423.64 C 365.33 480.29 366.82 517.56 363.84 560.79 C 360.86 604.02 306.14 656.7 259.92 658.2 C 213.71 659.69 72.64 658.2 72.64 658.2 L 74.13 18.16"
horiz-adv-x="439.5"/>
<glyph unicode="Q" glyph-name="Q" d="M 212.62 225.38 L 418.35 22.64 L 349.77 89.72 C 349.77 89.72 325.92 32.05 276.73 29.07 C 227.53 26.09 208.15 26.09 173.87 26.09 C 139.58 26.09 76.97 82.34 75.48 127.06 C 73.99 171.78 73.99 476.22 73.99 537.34 C 73.99 598.46 117.22 651.72 173.87 656.2 C 230.51 660.67 214.08 657.69 258.8 657.69 C 303.52 657.69 362.72 606.93 364.21 553.26 C 365.7 499.6 366.17 181.24 366.17 149.93 C 366.17 118.63 351.77 91.72 351.77 91.72"
horiz-adv-x="466.5"/>
<glyph unicode="G" glyph-name="G" d="M 376.6 660.02 C 376.6 660.02 217.05 661.99 179.87 659.51 C 135.14 656.53 72.5 603.3 72.5 546.65 L 72.5 138.26 C 72.5 81.61 130.78 27.95 181.47 26.46 C 232.15 24.97 365.19 25.44 365.19 25.44 L 363.7 364.85 L 258.84 366.34"
horiz-adv-x="439.5"/>
<glyph unicode="D" glyph-name="D" d="M 72.92 658.53 C 72.92 658.53 227.52 659.03 263.3 657.55 C 299.08 656.05 363.18 605.26 364.67 557.56 C 366.16 509.85 367.14 182.98 367.14 133.79 C 367.14 84.6 319.33 27.44 261.19 25.95 C 203.05 24.46 74.45 27.44 74.45 27.44 Z"
horiz-adv-x="439.5"/>
<glyph unicode="C" glyph-name="C" d="M 324.05 660.02 C 251.01 660.02 211.85 658.53 173.09 658.53 C 134.33 658.53 76.59 600.39 75.1 561.63 C 73.61 522.87 73.61 163.6 73.61 132.3 C 73.61 100.99 113.42 33.91 168.58 26.46 C 208.9 21.01 328.52 24.97 328.52 24.97"
horiz-adv-x="390.5"/>
<glyph unicode="B" glyph-name="B" d="M 73.75 658.53 C 73.75 658.53 196.5 660.02 223.34 660.02 C 250.17 660.02 284.46 648.09 296.38 636.16 C 308.31 624.24 338.12 591.44 339.61 557.16 C 341.1 522.87 347.07 460.26 329.18 434.92 C 311.29 409.57 284.93 369.8 258.09 366.81 C 231.26 363.83 80.23 366.81 80.23 366.81 L 250.13 366.81 C 278.46 366.81 327.69 342.49 339.61 320.13 C 351.54 297.77 361.97 285.84 363.46 260.5 C 364.95 235.16 364.95 142.73 364.95 120.37 C 364.95 98.01 335.14 69.69 323.21 57.76 C 311.29 45.84 277.98 27.95 254.13 27.95 L 73.75 27.95 Z"
horiz-adv-x="439.5"/>
<glyph unicode="U" glyph-name="U" d="M 72.44 671.76 C 70.95 586.78 73.42 191.3 74.91 133.17 C 76.4 75.03 139.01 30.74 158.39 27.76 C 177.77 24.78 256.78 27.76 276.16 27.76 C 295.54 27.76 364.11 71.03 365.6 133.64 C 367.1 196.25 367.1 674.74 367.1 674.74"
horiz-adv-x="439.5"/>
<glyph unicode="V" glyph-name="V" d="M 68.81 667.79 L 243.22 33.14 L 417.64 667.28"
horiz-adv-x="488.5"/>
<glyph unicode="W" glyph-name="W" d="M 69.65 667.28 L 196.36 26.27 L 341.94 468.47 L 488.03 25.29 L 612.78 670.26"
horiz-adv-x="683.5"/>
<glyph unicode="Y" glyph-name="Y" d="M 67.84 665.79 L 243.74 348.27 L 245.23 18.81 L 243.74 349.76 L 416.67 664.3"
horiz-adv-x="488.5"/>
<glyph unicode="Z" glyph-name="Z" d="M 67.18 658.34 L 366.82 658.34 L 76.13 26.27 L 368.31 24.78"
horiz-adv-x="439.5"/>
<glyph unicode="[" glyph-name="[" d="M 154.49 709.02 L 71.99 710.51 L 73.48 -24.42 L 153 -24.42"
horiz-adv-x="195.0"/>
<glyph unicode="\" glyph-name="\" d="M 69.41 758.87 L 467.44 -81.9"
horiz-adv-x="537.0"/>
<glyph unicode="]" glyph-name="]" d="M 34.48 708.18 L 123.92 708.18 L 122.43 -26.24 L 38.95 -26.24"
horiz-adv-x="195.0"/>
<glyph unicode="_" glyph-name="_" d="M 3.36 -74.45 L 386.48 -75.94"
horiz-adv-x="390.5"/>
<glyph unicode="`" glyph-name="`" d="M 156.25 653.03 L 323.21 500.97"
horiz-adv-x="500.0"/>
<glyph unicode="a" glyph-name="a" d="M 312.13 73.13 C 292.75 49.28 276.35 21.94 246.53 23.43 C 216.72 24.92 148.62 21.94 126.26 24.92 C 103.9 27.9 69.65 61.21 68.16 83.57 C 66.67 105.93 66.16 374.26 67.65 401.09 C 69.14 427.93 101.93 459.74 125.79 462.72 C 149.64 465.7 311.66 463.23 311.66 463.23 C 311.66 463.23 312.13 120.84 312.13 99.97 C 312.13 79.1 319.58 67.17 331.51 53.75 C 343.43 40.34 365.79 20.96 365.79 20.96"
horiz-adv-x="390.0"/>
<glyph unicode="b" glyph-name="b" d="M 72.96 667.93 L 75.94 24.92 C 75.94 24.92 211.09 23.43 246.86 24.92 C 282.64 26.41 313.48 58.26 314.97 85.1 C 316.46 111.93 317.44 354.84 315.95 395.09 C 314.46 435.34 283.51 463.19 235.81 464.69 C 188.11 466.18 72.96 464.69 72.96 464.69"
horiz-adv-x="390.5"/>
<glyph unicode="c" glyph-name="c" d="M 330.28 465.19 C 330.28 465.19 187.17 463.7 146.92 463.7 C 106.67 463.7 74.31 429.85 72.82 401.53 C 71.33 373.2 72.31 119.38 73.8 88.08 C 75.29 56.77 104.71 25.43 137.5 25.43 C 170.3 25.43 326.24 23.94 326.24 23.94"
horiz-adv-x="390.5"/>
<glyph unicode="d" glyph-name="d" d="M 316.14 668.44 L 316.65 26.41 L 132.3 28.41 C 99.51 28.77 73.15 64.3 73.15 98.59 L 73.15 391.13 C 73.15 432.87 106.02 462.21 141.79 463.7 C 177.57 465.19 315.15 466.69 315.15 466.69"
horiz-adv-x="390.5"/>
<glyph unicode="e" glyph-name="e" d="M 79.95 246.06 L 316.5 244.57 C 316.5 244.57 315.99 361.79 315.99 396.07 C 315.99 430.36 285.6 459.23 248.33 462.21 C 211.06 465.19 170.88 462.69 145.54 462.69 C 120.2 462.69 75.95 442.29 74.46 391.6 C 72.97 340.92 74.5 134.84 74.5 96.08 C 74.5 57.32 107.33 25.47 138.64 25.47 C 169.94 25.47 327.41 23.94 327.41 23.94"
horiz-adv-x="390.5"/>
<glyph unicode="g" glyph-name="g" d="M 316.22 27.57 C 183.55 24.59 185.04 26.08 143.3 26.08 C 101.56 26.08 74.93 60.91 74.72 90.73 L 72.72 380.25 C 72.42 424.97 103.09 464.35 140.35 464.35 C 177.62 464.35 316.73 462.86 316.73 462.86 L 316.73 -94.6 C 316.73 -133.35 289.35 -169.21 246.12 -169.21 L 68.76 -169.21"
horiz-adv-x="390.5"/>
<glyph unicode="l" glyph-name="l" d="M 71.47 665.6 C 71.47 665.6 72.96 143.85 72.96 100.62 C 72.96 57.39 104.27 29.06 129.61 27.57 C 154.95 26.08 180.29 24.08 180.29 24.08"
horiz-adv-x="244.0"/>
<glyph unicode="n" glyph-name="n" d="M 71.66 17.14 L 72.64 464.35 C 72.64 464.35 200.33 463.85 233.13 463.85 C 282.32 463.85 317.87 438.46 319.15 387.71 C 321.03 313.82 319.11 13.14 319.11 13.14"
horiz-adv-x="390.5"/>
<glyph unicode="o" glyph-name="o" d="M 236.84 462.86 C 283.05 462.86 313.99 435.96 315.49 394.22 C 316.98 352.48 316.98 122.03 316.98 90.73 C 316.98 59.42 282.65 24.08 257.31 24.08 C 231.97 24.08 167.94 23.57 144.09 23.57 C 120.24 23.57 76.97 51.5 75.48 85.78 C 73.99 120.07 73.99 364.44 73.99 392.76 C 73.99 421.09 103.37 459.37 131.69 460.86 C 160.01 462.35 236.84 462.86 236.84 462.86 Z"
horiz-adv-x="390.5"/>
<glyph unicode="p" glyph-name="p" d="M 73.89 -178.01 L 73.89 463.51 C 73.89 463.51 217 465.01 251.28 463.51 C 285.57 462.02 316.87 429.19 316.87 397.89 C 316.87 366.58 318.37 122.14 316.87 90.83 C 315.38 59.53 280.55 23.75 250.74 23.75 L 76.87 23.75"
horiz-adv-x="390.5"/>
<glyph unicode="q" glyph-name="q" d="M 311.75 25.24 L 138.83 25.24 C 107.52 25.24 72.72 56.66 72.72 92.44 C 72.72 119.27 74.22 360.66 72.72 393.45 C 71.23 426.25 104.07 461.04 136.86 462.53 C 169.66 464.03 317.24 462.53 317.24 462.53 L 317.71 -177.5"
horiz-adv-x="390.5"/>
<glyph unicode="r" glyph-name="r" d="M 273.83 403.89 C 257.43 433.7 242.92 462.02 196.71 463.51 C 150.5 465.01 74.07 463.51 74.07 463.51 L 72.58 16.3"
horiz-adv-x="342.0"/>
<glyph unicode="s" glyph-name="s" d="M 328.81 402.9 C 310.92 432.72 279.14 460.02 240.38 461.51 C 201.62 463.01 167.34 463.01 139.01 461.51 C 110.69 460.02 89.82 437.66 82.37 419.77 C 74.91 401.89 64.99 360.65 91.82 332.33 C 118.65 304.01 254.3 199.04 284.09 173.84 C 322.85 141.04 325.28 104.88 319.9 83.38 C 312.45 53.56 281.58 25.24 251.76 25.24 C 221.95 25.24 171.87 25.86 143.49 28.22 C 107.71 31.2 67.46 78.91 67.46 78.91"
horiz-adv-x="390.5"/>
<glyph unicode="u" glyph-name="u" d="M 72.63 469.48 C 72.63 469.48 72.12 147.59 72.12 102.87 C 72.12 49.2 115.03 24.73 146.33 24.73 C 177.64 24.73 317.11 23.71 317.11 23.71 L 318.09 468.5"
horiz-adv-x="390.5"/>
<glyph unicode="v" glyph-name="v" d="M 71.98 469.99 L 195.2 29.68 L 319.44 470.97"
horiz-adv-x="390.5"/>
<glyph unicode="w" glyph-name="w" d="M 71.33 469.48 L 171.21 30.73 L 293.45 368.58 L 414.19 32.15 L 513.56 470.97"
horiz-adv-x="586.0"/>
<glyph unicode="z" glyph-name="z" d="M 64.94 464.17 L 318.33 462.68 L 74.9 27.38 L 319.86 25.89"
horiz-adv-x="390.5"/>
<glyph unicode="{" glyph-name="{" d="M 192.49 710.14 C 158.21 710.14 143.3 699.7 132.86 683.3 C 122.43 666.91 128.39 625.17 128.39 608.77 C 128.39 592.37 128.39 407.52 126.9 388.14 C 125.41 368.76 88.1 348.87 76.18 342.91 C 64.25 336.94 104.2 330.83 111.01 322.51 C 124.43 306.11 128.02 304.21 128.9 263.86 C 130.07 210.29 128.39 48.25 129.88 21.42 C 131.37 -5.41 147.77 -18.83 161.19 -21.81 C 174.6 -24.79 186.53 -23.3 186.53 -23.3"
horiz-adv-x="210.0"/>
<glyph unicode="|" glyph-name="|" d="M 71.09 668.4 L 72.58 18.44"
horiz-adv-x="148.0"/>
<glyph unicode="}" glyph-name="}" d="M 34.66 710.14 C 55.53 711.63 95.78 704.17 97.27 665.41 C 98.77 626.66 97.27 432.86 97.27 404.54 C 97.27 376.21 119.64 344.91 136.03 343.42 C 152.43 341.93 131.56 340.44 118.14 327.02 C 104.73 313.6 100.26 309.13 98.77 273.35 C 97.27 237.58 99.62 60.13 97.27 28.87 C 92.8 -30.76 40.63 -26.28 40.63 -26.28"
horiz-adv-x="210.0"/>
<glyph unicode="~" glyph-name="~" d="M 62.34 239.07 C 105.57 270.37 153.82 277.82 185.12 264.41 C 216.43 250.99 233.99 226.51 272.56 221.69 C 320.27 215.72 344.12 230.16 353.07 236.12 C 362.01 242.08 376.88 250.99 376.88 250.99"
horiz-adv-x="440.0"/>
<glyph unicode="А" glyph-name="А" d="M 130.69 220.48 L 351 219.53 M 68.5 17.14 L 242.43 657.72 L 416.25 17.25"
horiz-adv-x="488.5"/>
<glyph unicode="Б" glyph-name="Б" d="M 349.93 660.15 L 73.75 659.09 L 73.75 24.74 C 73.75 24.74 209.95 24.63 262.66 25.69 C 315.36 26.74 366.8 94.61 366.8 132.55 C 366.8 170.5 367.85 208.99 365.74 255.37 C 363.63 301.75 314.09 362.89 251.9 365 C 189.71 367.11 75.86 365 75.86 365"
horiz-adv-x="439.5"/>
<glyph unicode="В" glyph-name="В" d="M 73.85 25.68 L 72.79 660.04 C 72.79 660.04 189.8 658.99 235.12 658.99 C 280.45 658.99 335.16 607.44 340.43 557.9 C 344.67 518.01 341.48 518.57 341.48 475.36 C 341.48 432.14 298.59 372.27 238.5 370.16 C 193.2 368.57 77.95 367.21 77.95 367.21 C 77.95 367.21 209.62 367.99 247.56 367.11 C 292.88 366.05 362.56 319.67 364.67 258.53 C 366.6 202.7 366.78 186.64 366.78 137.1 C 366.78 87.55 309.02 26.63 259.48 25.58 C 209.93 24.52 73.85 25.69 73.85 25.69 Z"
horiz-adv-x="439.5"/>
<glyph unicode="Г" glyph-name="Г" d="M 327.65 659.2 L 73.61 658.15 L 73.72 16.09"
horiz-adv-x="390.5"/>
<glyph unicode="Д" glyph-name="Д" d="M 72.65 -32.18 L 73.71 24.2 L 416.07 24.31 L 415.13 -33.34 M 121.14 29.79 L 170.79 660.04 L 365.59 658.99 L 365.91 28.96"
horiz-adv-x="488.5"/>
<glyph unicode="Е" glyph-name="Е" d="M 78.56 366.06 L 227 366.06 M 323.44 658.94 L 73.44 659.81 L 75 25.88 L 325 25.44"
horiz-adv-x="390.5"/>
<glyph unicode="Ж" glyph-name="Ж" d="M 467.62 668.75 L 303.56 366.06 L 465.62 20.31 M 267.62 665.62 L 269.19 18.75 M 68.75 667.19 L 232.81 367.19 L 70.31 20.31"
horiz-adv-x="537.0"/>
<glyph unicode="З" glyph-name="З" d="M 89.83 576.66 C 115.24 630.79 157.96 655.79 193.32 659.1 C 228.67 662.42 215.76 661.02 252.24 659.1 C 294.22 656.89 358.04 620.22 362.46 553.93 C 366.5 493.29 364.04 517.89 364.04 478.11 C 364.04 420.39 301.27 368.94 259.29 367.84 C 223.93 366.91 158.74 367.84 158.74 367.84 C 158.74 367.84 226.14 365.63 257.08 365.63 C 294.64 365.63 360.72 313.02 362.93 261.09 C 365.14 209.16 364.58 174.96 364.04 141.82 C 362.93 74.43 299.06 28.65 259.29 25.33 C 222.89 22.3 219.38 19.65 185.26 23.33 C 144.38 27.75 111.92 54.06 94.24 76.16 C 79.11 95.08 70.36 134.3 70.36 134.3"
horiz-adv-x="439.5"/>
<glyph unicode="И" glyph-name="И" d="M 73.14 670.57 L 73.35 29.75 L 366.14 661.73 L 367.24 22.02"
horiz-adv-x="439.5"/>
<glyph unicode="Й" glyph-name="Й" d="M 157 755.64 L 280.74 755.85 M 72.82 665.72 L 73.03 24.91 L 365.82 656.88 L 366.92 17.17"
horiz-adv-x="439.5"/>
<glyph unicode="К" glyph-name="К" d="M 185.98 411.25 L 369.81 17.03 M 79.02 277.56 L 369.6 663.16 M 73.5 667.58 L 73.7 16.82"
horiz-adv-x="439.5"/>
<glyph unicode="Л" glyph-name="Л" d="M 70.76 17.92 L 269.15 658.95 L 414.78 658.74 L 414.99 13.71"
horiz-adv-x="488.5"/>
<glyph unicode="М" glyph-name="М" d="M 73.96 16.61 L 73.75 659.58 L 267.52 341.64 L 463.08 657.63 L 464.18 17.03"
horiz-adv-x="537.0"/>
<glyph unicode="Н" glyph-name="Н" d="M 366.64 672 L 365.53 17.03 M 81.37 365.95 L 358.43 365.06 M 73.64 668.47 L 73.64 15.71"
horiz-adv-x="439.5"/>
<glyph unicode="О" glyph-name="О" d="M 183.62 657.53 C 183.62 657.53 232.81 660.64 262.59 658.51 C 304.33 655.53 364.5 604.77 365.99 552.59 C 367.49 500.42 366.98 190.42 366.98 142.72 C 366.98 81.6 311.75 27.42 272.99 25.93 C 234.23 24.44 203.03 22.95 168.75 25.93 C 134.46 28.91 77.27 84.22 75.77 128.94 C 74.28 173.66 72.26 509.88 74.79 550.05 C 78.03 601.33 125.12 655.03 183.62 657.53 Z"
horiz-adv-x="439.5"/>
<glyph unicode="П" glyph-name="П" d="M 73.89 15.03 L 74.31 658.74 L 365.78 659.63 L 367.31 14.82"
horiz-adv-x="439.5"/>
<glyph unicode="Р" glyph-name="Р" d="M 72.68 14.61 L 73.99 658.26 C 73.99 658.26 199.05 657.84 246.56 657.84 C 302.91 657.84 360.15 614.01 363.46 553.24 C 366.17 503.55 366.57 483.07 366.57 430.03 C 366.57 377 312.64 320.44 250.77 319.34 C 188.9 318.23 78.41 319.55 78.41 319.55"
horiz-adv-x="439.5"/>
<glyph unicode="С" glyph-name="С" d="M 324.47 659.84 L 200.63 659.84 C 132.13 659.84 74.78 614.01 73.67 526.73 C 72.57 439.44 73.88 204.64 73.88 141.67 C 73.88 78.69 132.23 26.76 178.63 24.55 C 225.04 22.34 323.37 22.34 323.37 22.34"
horiz-adv-x="371.0"/>
<glyph unicode="Т" glyph-name="Т" d="M 219.19 655.63 L 220.3 17.03 M 64.51 659.84 L 377.19 660.95"
horiz-adv-x="439.5"/>
<glyph unicode="У" glyph-name="У" d="M 365.82 666.47 C 365.82 666.47 366.71 185.03 366.71 139.72 C 366.71 88.9 317.83 27.86 259.27 25.65 C 213.95 23.94 109.49 24.76 109.49 24.76 M 72.13 668.68 C 72.13 668.68 73.92 464.54 73.24 429.19 C 72.13 371.74 135.17 318.65 181.57 318.65 L 355.61 318.65"
horiz-adv-x="439.0"/>
<glyph unicode="Ф" glyph-name="Ф" d="M 320.09 562.04 C 320.09 562.04 343.29 563.12 400.74 560.93 C 488.03 557.62 558.62 476.86 560.53 411.67 L 562.74 336.02 C 564.75 267.15 493.52 173.14 411.79 172.03 C 336.66 171 289.37 168.14 231.91 170.03 C 164.51 172.24 78.33 240.32 75.02 318.76 C 72.5 378.46 73.32 365.56 74.81 413.09 C 77.02 483.81 154.68 559.2 230.92 561.41 C 293.91 563.24 318.98 562.88 318.98 562.88 L 317.88 670.11 L 318.09 17.14"
horiz-adv-x="634.5"/>
<glyph unicode="Х" glyph-name="Х" d="M 420.1 668.32 L 68.76 16.03 M 71.17 665.69 L 420.1 17.35"
horiz-adv-x="488.5"/>
<glyph unicode="Ц" glyph-name="Ц" d="M 365.85 666.79 L 366.06 31.29 M 73.06 669 L 73.06 25.08 L 414.04 24.66 L 414.46 -77.88"
horiz-adv-x="488.5"/>
<glyph unicode="Ч" glyph-name="Ч" d="M 367.53 666.79 L 366.64 16.03 M 73.64 667.9 C 73.64 667.9 72.78 457.97 73.85 424.83 C 74.95 390.58 114.31 321.18 187.23 318.97 C 260.15 316.76 362.22 317.87 362.22 317.87"
horiz-adv-x="439.5"/>
<glyph unicode="Ш" glyph-name="Ш" d="M 267.98 666.79 L 269.09 29.29 M 73.32 667.9 L 74.63 23.98 L 463.54 23.98 L 462.44 667.9"
horiz-adv-x="537.5"/>
<glyph unicode="Щ" glyph-name="Щ" d="M 464.12 665.69 L 464.33 31.5 M 268.77 27.08 L 269.66 664.58 M 72.31 669 L 73.21 24.87 L 513.63 23.77 L 512.94 -78.99"
horiz-adv-x="586.0"/>
<glyph unicode="Ъ" glyph-name="Ъ" d="M 61.84 659.27 L 169.9 659.95 L 172.32 24.66 C 172.32 24.66 290.07 23.77 349.73 23.77 C 409.39 23.77 464 79.28 465.11 136.73 C 465.79 172.08 464.74 220.85 463.8 259.52 C 462.69 304.82 410.92 362.96 353.46 365.17 C 298.22 367.29 175.64 365.38 175.64 365.38"
horiz-adv-x="537.5"/>
<glyph unicode="Ь" glyph-name="Ь" d="M 72.25 667.9 L 73.35 24.87 L 254.55 24.87 C 313.1 24.87 366.35 87.85 366.35 133.15 C 366.35 172.92 365.03 261.31 365.03 261.31 C 357.19 314.85 315.31 364.27 239.08 366.48 C 176.12 368.31 81.08 365.38 81.08 365.38"
horiz-adv-x="439.5"/>
<glyph unicode="Ы" glyph-name="Ы" d="M 413.97 667.9 L 415.07 16.03 M 72.57 666.79 L 72.99 22.66 C 72.99 22.66 166.14 21.31 212.41 25.08 C 266.54 29.5 320.05 87.43 318.95 137.15 C 317.99 180.22 317.84 220.43 316.74 262.41 C 315.64 304.4 261.97 361.85 207.84 364.06 C 153.7 366.27 82.51 365.17 82.51 365.17"
horiz-adv-x="488.5"/>
<glyph unicode="Э" glyph-name="Э" d="M 160.31 365.17 L 360.29 364.48 M 66.4 659.06 C 66.4 659.06 195.66 660 240.97 659.06 C 294 657.95 364.71 623.17 365.82 543.62 C 366.75 476.22 366.71 197.28 366.71 147.57 C 366.71 82.38 316.46 25.98 247.96 24.87 C 189.41 23.93 63.09 23.77 63.09 23.77"
horiz-adv-x="439.5"/>
<glyph unicode="Ю" glyph-name="Ю" d="M 79.23 366.59 L 170.93 366.59 L 170.93 545.16 C 170.93 600.4 216.23 658.06 289.15 659.17 C 362.07 660.27 415.1 610.76 416.21 548.89 C 417.31 487.02 416.21 208.86 416.21 142.57 C 416.21 76.28 357.86 23.19 298.2 23.19 C 238.54 23.19 170.93 60.81 170.93 138.15 L 170.93 366.59 M 72.6 666.01 L 72.6 17.46"
horiz-adv-x="488.5"/>
<glyph unicode="Я" glyph-name="Я" d="M 365.96 17.46 L 365.96 659.38 C 365.96 659.38 226.55 658.27 185.66 658.27 C 131.52 658.27 75.59 607.39 73.38 548.84 C 71.8 506.87 73.38 463.82 73.38 429.57 C 73.38 395.32 105.43 317.98 201.55 317.98 L 360.65 317.98 L 229.17 316.87 L 70.07 15.25"
horiz-adv-x="439.5"/>
<glyph unicode="а" glyph-name="а" d="M 313.92 73.81 C 313.92 73.81 297.35 26.3 259.78 26.3 L 137.15 26.3 C 108.42 26.3 73.27 55.92 73.27 91.27 C 73.27 126.63 73.06 357.75 74.17 394.21 C 75.27 430.67 106.9 462.71 137.83 462.71 L 317.03 462.71 C 317.03 462.71 319.83 108.01 318.34 82.64 C 316.13 45.08 378 14.14 378 14.14"
horiz-adv-x="390.5"/>
<glyph unicode="б" glyph-name="б" d="M 267.2 462.71 C 226.32 464.92 171.34 463.82 143.72 463.82 C 110.58 463.82 73.45 435.88 72.95 393.32 C 72.95 393.32 72.7 107.01 72.95 99.22 C 74.18 61.96 97.95 27.4 137.72 25.19 C 171.94 23.29 232.95 24.09 258.36 26.3 C 283.77 28.51 315.81 56.18 316.92 95.96 C 317.9 131.32 318.6 336.86 317.81 377.79 C 316.71 435.25 310.06 426.44 242.89 494.07 L 73.37 659.38 L 323.55 660.48"
horiz-adv-x="390.5"/>
<glyph unicode="в" glyph-name="в" d="M 78.79 435.72 C 125.19 475.5 134.18 462.1 201.52 464.03 C 291.09 466.6 314.39 441.19 316.6 385.95 C 318.32 342.89 317.49 142.04 317.49 105.58 C 317.49 69.12 298.71 25.19 244.57 24.09 C 190.43 22.98 189.27 24.51 148.39 24.51 C 107.51 24.51 72.21 56.6 72.21 101.9 C 72.21 147.2 71.74 530.11 72.84 590.88 C 73.95 651.64 131.96 660.15 149.76 659.38 C 175.18 658.27 220.26 640.76 220.26 591.03 C 220.26 551.26 196.85 537.63 171.44 513.33 C 152.6 495.3 78.79 435.72 78.79 435.72 Z"
horiz-adv-x="390.5"/>
<glyph unicode="г" glyph-name="г" d="M 66.37 407.47 C 90.67 458.29 128.51 462.71 151.71 462.71 L 251.35 462.71 C 297.76 462.71 348.11 392.9 295.07 339.86 C 227.12 271.92 135.23 186.88 91.99 147.14 C 51.11 109.58 78.94 24.98 143.02 23.88 C 207.1 22.77 214.45 22.47 255.3 25.19 C 305.02 28.51 323.11 83.75 323.11 83.75"
horiz-adv-x="390.5"/>
<glyph unicode="д" glyph-name="д" d="M 312.64 462.71 L 146.28 462.71 C 96.56 462.71 73.99 424.67 73.99 386 C 73.99 347.33 72.89 148.52 73.99 101.01 C 75.1 53.5 108.72 24.09 142.97 24.09 C 177.22 24.09 220.94 24.09 251.87 25.19 C 282.81 26.3 317.27 57.44 317.27 97.22 C 317.27 136.99 319.27 535.79 317.06 582.19 C 314.85 628.6 285.86 658.48 240.56 659.59 C 195.26 660.69 66.26 660.48 66.26 660.48"
horiz-adv-x="390.5"/>
<glyph unicode="е" glyph-name="е" d="M 79.2 245.27 L 317.63 245.48 L 317.63 392.84 C 317.63 433.72 285.38 459.82 247.82 462.03 C 210.25 464.24 179.05 464.03 140.38 462.92 C 107.25 461.98 73.67 429.57 73.67 390.9 C 73.67 352.23 74.78 127.94 74.78 91.48 C 74.78 55.02 107.92 26.3 137.75 25.19 C 167.58 24.09 326.68 24.09 326.68 24.09"
horiz-adv-x="390.5"/>
<glyph unicode="ж" glyph-name="ж" d="M 421.17 472.66 L 266.7 245.06 L 420.27 15.25 M 242.39 474.87 L 242.39 15.25 M 68.93 471.34 L 218.98 243.48 L 68.93 15.46"
horiz-adv-x="488.5"/>
<glyph unicode="з" glyph-name="з" d="M 89.6 404.16 C 121.64 463.82 140.38 463.53 190.15 463.82 C 269.68 464.29 289.79 427.36 292 395.32 C 295.42 345.7 292 344.49 293.11 313.56 C 294.21 282.62 254.23 245.06 223.29 245.06 C 192.35 245.06 158.1 243.95 158.1 243.95 C 158.1 243.95 183.52 246.16 217.77 245.06 C 252.02 243.95 290.48 214.12 291.58 178.77 C 292.69 143.41 292.73 129.95 291.79 97.9 C 290.69 60.34 262.8 27.4 221.92 25.19 C 181.04 22.98 149.21 26.3 123.8 26.3 C 90.65 26.3 66.4 82.64 66.4 82.64"
horiz-adv-x="366.0"/>
<glyph unicode="и" glyph-name="и" d="M 73.5 470.77 C 73.5 470.77 73 126.9 74.6 100.43 C 76.81 63.97 95.86 29.93 136.74 26.62 C 177.62 23.3 316.77 26.62 316.77 26.62 L 317.88 471.87"
horiz-adv-x="390.5"/>
<glyph unicode="й" glyph-name="й" d="M 134.15 659.91 L 254.58 659.91 M 73.87 469.75 C 73.87 469.75 73.37 125.88 74.97 99.41 C 77.18 62.95 96.23 28.91 137.11 25.6 C 177.99 22.28 317.15 25.6 317.15 25.6 L 318.25 470.85"
horiz-adv-x="390.5"/>
<glyph unicode="к" glyph-name="к" d="M 158.14 277.42 L 322.55 16.67 M 74.17 474.08 L 73.06 12.25 L 73.06 194.56 L 323.87 469.66"
horiz-adv-x="390.5"/>
<glyph unicode="л" glyph-name="л" d="M 71.43 17.78 L 172.18 464.35 L 315.81 464.14 L 316.92 16.67"
horiz-adv-x="390.5"/>
<glyph unicode="м" glyph-name="м" d="M 73.32 13.36 L 73.32 466.35 L 219.16 244.69 L 365.21 463.03 L 365.21 15.57"
horiz-adv-x="439.5"/>
<glyph unicode="н" glyph-name="н" d="M 77.42 245.38 L 311.65 244.27 M 317.38 474.08 L 316.28 16.67 M 74.1 475.19 L 73 10.04"
horiz-adv-x="390.5"/>
<glyph unicode="о" glyph-name="о" d="M 237.1 464.96 C 283.32 464.96 314.26 438.05 315.75 396.31 C 317.24 354.57 317.24 124.13 317.24 92.82 C 317.24 61.52 282.92 26.18 257.58 26.18 C 232.24 26.18 168.21 25.67 144.36 25.67 C 120.51 25.67 77.24 53.59 75.75 87.88 C 74.25 122.17 74.25 366.54 74.25 394.86 C 74.25 423.18 103.63 461.47 131.96 462.96 C 160.28 464.45 237.1 464.96 237.1 464.96 Z"
horiz-adv-x="390.5"/>
<glyph unicode="п" glyph-name="п" d="M 72.57 17.78 L 74.78 463.03 L 247.82 463.03 C 271.02 463.03 317.84 440.25 316.74 390.53 C 315.63 340.82 316.74 14.46 316.74 14.46"
horiz-adv-x="390.5"/>
<glyph unicode="р" glyph-name="р" d="M 77.77 23.72 C 77.77 23.72 224.93 23.51 247.02 23.51 C 269.12 23.51 315.31 48.03 316.42 92.22 C 317.52 136.42 317.73 352.28 316.63 387.64 C 315.52 422.99 296.53 461.03 249.02 464.35 C 201.51 467.66 74.46 464.14 74.46 464.14 L 73.14 -179.99"
horiz-adv-x="390.5"/>
<glyph unicode="с" glyph-name="с" d="M 326.04 463.24 C 326.04 463.24 193.78 463.24 147.38 463.24 C 100.97 463.24 73.03 422.57 73.03 391.64 C 73.03 360.7 74.13 127.16 74.13 94.01 C 74.13 60.87 102.44 25.51 140.01 24.41 C 177.57 23.3 327.15 24.41 327.15 24.41"
horiz-adv-x="390.5"/>
<glyph unicode="т" glyph-name="т" d="M 268.37 458.93 L 268.16 15.2 M 71.5 13.68 L 72.81 465.56 C 72.81 465.56 364.28 465.35 391.9 464.25 C 419.52 463.14 462.61 439.26 462.61 397.27 C 462.61 355.29 464.82 13.89 464.82 13.89"
horiz-adv-x="537.0"/>
<glyph unicode="у" glyph-name="у" d="M 316.45 474.4 L 316.45 -99.02 C 316.45 -135.48 285.52 -169.73 250.16 -169.73 C 214.81 -169.73 91.06 -170.62 91.06 -170.62 M 72.96 476.61 C 72.96 476.61 71.38 115.33 72.49 92.12 C 73.59 68.92 100.8 24.94 138.36 24.94 C 175.93 24.94 312.45 26.04 312.45 26.04"
horiz-adv-x="390.5"/>
<glyph unicode="ф" glyph-name="ф" d="M 271.94 464.67 L 352.59 464.67 C 397.89 464.67 459.55 414.68 462.87 361.65 C 465.28 323.04 462.86 171.51 463.76 137.27 C 464.87 95.29 414.46 28.25 362.54 26.04 C 310.61 23.83 210.07 23.83 169.19 27.15 C 128.31 30.46 79.69 81.19 75.27 130.91 C 71.34 175.15 71.44 315.8 73.96 357.71 C 77.27 412.95 135.47 460.93 175.24 463.15 C 215.02 465.36 269.94 465.41 269.94 465.41 L 269.73 571.63 L 268.62 -177.46"
horiz-adv-x="537.0"/>
<glyph unicode="х" glyph-name="х" d="M 322.23 474.4 L 70.32 18.31 M 69.43 472.19 L 321.13 18.1"
horiz-adv-x="390.5"/>
<glyph unicode="ц" glyph-name="ц" d="M 317.49 469.98 L 317.7 26.94 M 73.32 469.98 C 73.32 469.98 73.32 135.2 72.42 105.38 C 71.32 68.92 95.2 23.41 143.82 24.52 C 182.49 25.4 366.1 24.52 366.1 24.52 L 367.42 -82.02"
horiz-adv-x="439.5"/>
<glyph unicode="ч" glyph-name="ч" d="M 317.17 472.19 L 318.27 18.1 M 73.89 471.09 C 73.89 471.09 73.21 334.09 73.21 308.68 C 73.21 277.74 107.51 243.7 139.55 243.7 C 171.6 243.7 314.07 244.8 314.07 244.8"
horiz-adv-x="390.5"/>
<glyph unicode="ш" glyph-name="ш" d="M 269.34 472.19 L 269.55 32.46 M 73.78 473.3 C 73.78 473.3 72.89 113.96 73.99 89.65 C 75.1 65.34 100.51 25.83 138.07 24.73 C 175.64 23.62 464 24.04 464 24.04 L 462.9 472.19"
horiz-adv-x="537.0"/>
<glyph unicode="щ" glyph-name="щ" d="M 464.58 469.98 L 463.9 29.15 M 268.33 30.25 L 269.02 468.88 M 72.36 469.98 C 72.36 469.98 73.67 115.74 73.67 88.12 C 73.67 60.5 104.61 24.73 135.54 24.73 C 166.48 24.73 513.19 23.41 513.19 23.41 L 512.3 -75.81"
horiz-adv-x="586.0"/>
<glyph unicode="ъ" glyph-name="ъ" d="M 63.41 464.46 L 170.37 464.46 L 171.68 25.83 C 171.68 25.83 326.36 24.73 350.67 24.73 C 374.98 24.73 413.65 56.77 414.75 86.6 C 415.86 116.43 414.54 160.83 413.44 184.04 C 412.33 207.24 387.13 242.38 352.88 243.49 C 318.63 244.59 176.1 244.38 176.1 244.38"
horiz-adv-x="488.5"/>
<glyph unicode="ы" glyph-name="ы" d="M 365.61 473.51 L 366.71 12.78 M 73.93 471.98 L 74.13 24.73 L 205.82 24.73 C 226.81 24.73 267.48 50.82 268.59 90.6 C 269.45 121.52 267.48 159.46 267.48 181.56 C 267.48 203.66 243.39 243.49 199.19 244.59 C 155 245.7 79.66 245.7 79.66 245.7"
horiz-adv-x="439.0"/>
<glyph unicode="ь" glyph-name="ь" d="M 72.6 466.99 L 73.5 25.05 L 252.69 25.05 C 279.21 25.05 313.46 54.67 315.67 83.4 C 317.88 112.12 318.98 156.47 316.77 180.78 C 314.56 205.08 291.36 240.7 256.01 242.91 C 220.65 245.12 78.12 244.02 78.12 244.02"
horiz-adv-x="390.5"/>
<glyph unicode="э" glyph-name="э" d="M 184.97 244.7 L 307.61 243.81 M 64.55 464.78 C 64.55 464.78 218.75 463.68 247.48 463.68 C 276.2 463.68 314.03 438.89 316.24 403.54 C 318.45 368.18 319.77 125.11 318.66 94.18 C 317.56 63.24 290.62 26.15 251.95 25.05 C 213.28 23.94 60.13 24.84 60.13 24.84"
horiz-adv-x="390.5"/>
<glyph unicode="ю" glyph-name="ю" d="M 79.69 244.91 L 171.4 248.23 C 171.4 248.23 172.5 369.97 172.5 398.7 C 172.5 427.43 204.81 459.26 222.49 460.36 C 240.16 461.47 279.04 463.68 301.14 462.57 C 323.24 461.47 364.75 437.79 364.75 395.8 L 364.75 94.92 C 364.75 61.77 335.33 27.26 302.19 26.15 C 269.04 25.05 281.94 26.15 243.27 26.15 C 204.6 26.15 173.4 49.83 172.29 96.23 C 171.19 142.64 170.29 243.12 170.29 243.12 M 73.96 475.83 L 72.85 14"
horiz-adv-x="439.5"/>
<glyph unicode="я" glyph-name="я" d="M 66.11 13.31 L 196.07 243.39 L 307.87 242.7 C 307.87 242.7 160.45 244.49 136.14 244.49 C 111.83 244.49 74.95 276.96 73.85 302.37 C 72.74 327.78 71.64 381.92 73.85 402.91 C 76.06 423.9 100.36 460.36 132.41 462.57 C 164.45 464.78 317.6 462.57 317.6 462.57 L 318.02 19.52"
horiz-adv-x="390.5"/>
<glyph unicode="@" glyph-name="@" d="M 478.27 209.61 C 464.85 187.25 446.97 170.85 430.57 167.87 C 414.17 164.89 341.12 167.87 330.69 169.36 C 320.25 170.85 284.48 190.23 284.48 212.59 C 284.48 234.95 282.99 421.29 284.48 457.07 C 285.97 492.84 302.36 512.22 326.22 515.21 C 350.07 518.19 473.8 515.21 473.8 515.21 C 473.8 515.21 478.27 240.91 479.76 214.08 C 481.25 187.25 511.07 164.89 530.45 164.89 C 549.83 164.89 600.51 164.89 621.38 176.81 C 642.25 188.74 669.59 212.59 684.5 243.89 C 699.41 275.2 710.82 306.5 709.33 349.74 C 707.84 392.97 692.94 448.12 678.03 477.94 C 663.12 507.75 630.83 555.46 595.06 586.76 C 559.28 618.07 511.58 637.45 477.29 649.37 C 443 661.3 384.36 666.24 330.69 655.81 C 277.02 645.37 225.32 617.56 198.49 598.18 C 171.65 578.8 139.91 546 117.55 505.75 C 95.19 465.5 75.77 422.78 72.79 366.13 C 69.81 309.49 81.74 248.36 101.12 209.61 C 120.5 170.85 153.8 124.64 180.63 100.78 C 207.47 76.93 257.64 46.14 293.42 35.7 C 329.2 25.26 390.32 22.28 426.1 25.26 C 461.87 28.25 511.07 35.66 539.39 47.59 C 567.71 59.51 582.19 67.99 582.19 67.99"
horiz-adv-x="781.5"/>
<glyph unicode="!" glyph-name="!" d="M 72.49 28.98 C 72.49 28.98 64.29 24.5 65.78 20.03 C 67.27 15.56 71 13.32 75.47 16.3 C 79.94 19.29 72.49 28.98 72.49 28.98 Z M 73.23 659.55 L 72.25 158.67"
horiz-adv-x="146.5"/>
<glyph unicode="$" glyph-name="$" d="M 374.88 625.27 C 374.88 625.27 342.08 644.65 325.69 649.12 C 309.29 653.59 307.8 661.04 251.15 662.54 C 194.5 664.03 157.23 662.54 133.38 646.14 C 109.53 629.74 85.68 595.45 81.21 571.6 C 76.73 547.75 70.77 503.03 85.68 482.16 C 100.59 461.29 280.96 283.89 310.78 249.6 C 340.59 215.32 356.99 198.92 361.46 167.61 C 365.94 136.31 361.46 99.04 346.56 78.17 C 331.65 57.3 289.91 27.48 264.57 25.99 C 239.22 24.5 172.14 20.03 154.25 23.01 C 136.36 25.99 94.62 39.41 82.7 46.86 C 70.77 54.32 67.79 55.81 67.79 55.81 M 221.33 762.41 L 219.84 -82.83"
horiz-adv-x="439.5"/>
<glyph unicode="%" glyph-name="%" d="M 191.38 659.55 C 256.97 658.06 316.73 620.79 313.62 532.84 C 310.64 448.55 256.97 417.86 197.34 416.56 C 137.65 415.27 79.79 440.6 73.61 540.3 C 67.33 641.77 184.34 661.9 191.38 659.55 Z M 616.24 665.52 L 213.74 14.07 M 631.44 268.13 C 697.04 266.64 759.68 229.22 753.68 141.42 C 747.78 54.93 692.12 24.62 637.41 25.14 C 577.71 25.72 519.85 49.18 513.68 148.87 C 507.39 250.35 624.4 270.48 631.44 268.13 Z"
horiz-adv-x="830.0"/>
<glyph unicode="*" glyph-name="*" d="M 168.31 455.98 L 275.64 670.64 M 167.8 668.17 L 274.15 456.45 M 111.15 560.33 L 329.31 560.33"
horiz-adv-x="439.5"/>
<glyph unicode="+" glyph-name="+" d="M 171.62 376.97 L 173.11 111.62 M 41.93 242.8 L 301.32 242.8"
horiz-adv-x="341.0"/>
<glyph unicode=":" glyph-name=":" d="M 73.47 206.18 C 73.47 206.18 55.58 203.2 61.54 194.26 C 67.51 185.31 79.43 179.35 80.92 188.3 C 82.41 197.24 73.47 206.18 73.47 206.18 Z M 71.47 449.17 C 71.47 449.17 59.54 440.23 65.51 435.76 C 71.47 431.28 78.92 431.28 81.9 437.25 C 84.89 443.21 71.47 449.17 71.47 449.17 Z"
horiz-adv-x="143.5"/>
<glyph unicode=";" glyph-name=";" d="M 112.56 28.79 L 82.74 -81.53 M 114.05 285.19 C 114.05 285.19 99.14 277.74 106.6 270.29 C 114.05 262.83 125.97 265.81 125.97 271.78 C 125.97 277.74 114.05 285.19 114.05 285.19 Z"
horiz-adv-x="219.5"/>
<glyph unicode="=" glyph-name="=" d="M 39.7 168.92 L 302.07 171.9 M 44.17 316.5 L 300.58 316.5"
horiz-adv-x="342"/>
<glyph unicode="?" glyph-name="?" d="M 195.47 33.91 C 195.47 33.91 185.04 27.95 185.04 21.99 C 185.04 16.02 196.96 8.57 201.44 16.02 C 205.91 23.48 195.47 33.91 195.47 33.91 Z M 64.29 601.88 C 107.52 648.09 120.94 654.05 155.22 657.03 C 189.51 660.02 237.21 663 261.07 654.05 C 284.92 645.11 319.2 616.79 326.66 597.41 C 334.11 578.03 346.04 540.76 341.57 510.94 C 337.09 481.13 332.62 458.77 313.24 436.41 C 293.86 414.05 258.08 403.61 235.72 390.2 C 213.36 376.78 195.47 352.93 195.47 330.57 C 195.47 308.2 195.47 159.13 195.47 159.13"
horiz-adv-x="415.0"/>
<glyph unicode="T" glyph-name="T" d="M 220.17 658.34 L 220.17 18.81 M 63.64 659.83 L 373.71 659.83"
horiz-adv-x="439.5"/>
<glyph unicode="H" glyph-name="H" d="M 75.38 368.49 L 364.58 366.99 M 366.07 671.1 L 367.56 16.67 M 72.39 671.1 L 72.39 7.73"
horiz-adv-x="439.5"/>
<glyph unicode="F" glyph-name="F" d="M 71.66 367.33 L 322.1 366.34 M 325.08 661.51 L 71.66 660.02 L 73.15 13.04"
horiz-adv-x="390.5"/>
<glyph unicode="E" glyph-name="E" d="M 73.8 366.85 L 228.83 365.36 M 324.75 659.51 L 72.31 658.53 L 75.29 24.97 L 325.73 24.97"
horiz-adv-x="390.5"/>
<glyph unicode="A" glyph-name="A" d="M 128.58 221.27 L 353.68 220.76 M 69.46 13.04 L 243.37 655.11 L 415.78 13.04"
horiz-adv-x="488.5"/>
<glyph unicode="X" glyph-name="X" d="M 420.81 670.26 L 69.98 18.81 M 67.98 670.26 L 418.81 18.81"
horiz-adv-x="488.5"/>
<glyph unicode="f" glyph-name="f" d="M 63.45 462.35 L 227.43 463.85 M 234.88 659.64 C 164.82 670.08 124.06 643.68 121.08 585.54 C 118.1 527.4 121.59 14.15 121.59 14.15"
horiz-adv-x="293.0"/>
<glyph unicode="h" glyph-name="h" d="M 77.05 465.85 L 239.54 465.85 C 270.85 465.85 317.06 441.96 317.06 395.74 L 317.06 15.65 M 72.58 667.09 L 74.07 15.65"
horiz-adv-x="390.5"/>
<glyph unicode="i" glyph-name="i" d="M 73.93 474.79 L 73.93 17.14 M 70.44 670.08 C 70.44 670.08 60.01 661.13 64.48 655.17 C 68.95 649.21 82.37 644.73 85.35 653.68 C 88.33 662.62 70.44 670.08 70.44 670.08 Z"
horiz-adv-x="146.5"/>
<glyph unicode="j" glyph-name="j" d="M 72.77 467.34 C 72.77 446.47 75.75 -88.71 74.26 -121.5 C 72.77 -154.3 48.92 -187.09 19.11 -193.06 C -10.71 -199.02 -36.05 -193.06 -36.05 -193.06 M 71.28 670.08 C 71.28 670.08 60.85 659.64 62.34 653.68 C 63.83 647.72 75.75 647.72 78.73 655.17 C 81.72 662.62 71.28 670.08 71.28 670.08 Z"
horiz-adv-x="146.5"/>
<glyph unicode="k" glyph-name="k" d="M 157.09 280.99 L 318.09 23.1 M 72.12 661.13 L 75.1 14.15 L 73.61 191.48 L 322.56 468.83"
horiz-adv-x="390.5"/>
<glyph unicode="m" glyph-name="m" d="M 267.59 459.88 L 269.08 17.61 M 71.8 20.12 L 73.29 463.37 C 73.29 463.37 333.62 464.35 384.31 464.35 C 434.99 464.35 461.39 435.49 462.88 387.78 C 464.37 340.08 462.88 18.63 462.88 18.63"
horiz-adv-x="537.0"/>
<glyph unicode="t" glyph-name="t" d="M 59.35 465.01 L 233.77 465.01 M 121.96 670.73 L 123.46 14.81"
horiz-adv-x="293.0"/>
<glyph unicode="x" glyph-name="x" d="M 322.61 472.46 L 72.17 20.77 M 70.17 467.99 L 319.12 19.28"
horiz-adv-x="390.5"/>
<glyph unicode="y" glyph-name="y" d="M 317.49 467.99 C 317.49 467.99 163.44 -99.33 156.49 -124.81 C 147.54 -157.61 115.73 -168.04 87.4 -171.03 C 69.37 -172.92 60.57 -166.55 60.57 -166.55 M 69.52 469.48 L 196.23 28.22"
horiz-adv-x="390.5"/>
<glyph unicode="№" glyph-name="№" d="M 564.85 654.42 C 590.2 646.96 608.59 613.58 608.59 592.71 C 608.59 592.71 610.08 463.6 608.59 432.3 C 607.1 400.99 582.25 365.24 537.51 365.69 C 492.77 366.14 465.48 394.63 465.48 433.39 C 465.48 466.22 465.48 585.33 465.48 604.71 C 465.48 624.09 500.79 658.89 527.62 658.89 C 554.46 658.89 564.85 654.42 564.85 654.42 Z M 71.93 19.36 L 73.42 657.4 L 362.62 32.78 L 365.6 661.87"
horiz-adv-x="683.5"/>
<glyph unicode="»" glyph-name="»" d="M 204.79 427.82 L 339.98 243.96 L 204.79 64.09 M 68.16 425.35 L 203.81 244.47 L 66.16 61.11"
horiz-adv-x="415.0"/>
<glyph unicode="±" glyph-name="±" d="M 61.69 48.53 L 328.53 50.02 M 61.69 293.01 L 328.53 293.01 M 194.36 424.19 L 194.36 157.35"
horiz-adv-x="390.5"/>
<glyph unicode="ё" glyph-name="ё" d="M 269.36 672.3 C 269.36 672.3 255.94 672.3 255.94 661.87 C 255.94 651.43 266.38 643.98 270.85 649.94 C 275.32 655.91 269.36 672.3 269.36 672.3 Z M 123.27 669.32 C 123.27 669.32 114.32 661.87 114.32 655.91 C 114.32 649.94 129.23 652.92 129.23 652.92 Z M 77.05 245.95 L 314.08 244.94 C 314.08 244.94 317.57 354.74 316.08 396.48 C 314.59 438.22 275.76 462.62 248.92 464.11 C 222.09 465.6 192.86 463.09 155.59 464.58 C 118.32 466.07 77.05 444.69 74.07 389.54 C 71.09 334.38 72.07 116.3 73.56 90.96 C 75.05 65.61 99.45 28.31 130.76 26.82 C 162.06 25.33 317.06 25.33 317.06 25.33"
horiz-adv-x="390.5"/>
<glyph unicode="Ё" glyph-name="Ё" d="M 266.75 817.09 C 266.75 817.09 251.85 803.68 256.32 800.69 C 260.79 797.71 268.24 791.75 272.72 800.69 C 277.19 809.64 266.75 817.09 266.75 817.09 Z M 125.14 814.11 C 125.14 814.11 113.21 811.13 113.21 805.17 C 113.21 799.2 129.61 791.75 129.61 797.71 C 129.61 803.68 125.14 814.11 125.14 814.11 Z M 76.45 364.89 L 227.01 364.89 M 326.38 660.06 L 72.96 659.08 L 75.94 24.53 L 320.42 24.03"
horiz-adv-x="390.5"/>
<glyph unicode="§" glyph-name="§" d="M 160.07 530.87 C 116.84 496.59 97.46 475.21 85.54 451.36 C 73.61 427.5 71.61 373.33 77.57 352.46 C 83.54 331.59 104.41 301.77 104.41 301.77 C 104.41 301.77 267.4 107.51 282.31 88.13 C 297.22 68.75 297.22 32.46 280.82 8.61 C 264.42 -15.24 234.61 -25.17 195.85 -25.17 C 157.09 -25.17 133.24 -21.68 121.31 -5.28 C 109.39 11.12 98.95 32.97 98.95 32.97 M 294.28 648.6 C 276.39 694.82 251.01 705.8 236.1 707.29 C 221.19 708.78 168.97 709.21 152.62 707.29 C 127.28 704.31 67.56 645.5 119.35 583.48 C 183.08 507.17 267.83 407.86 294.2 374.89 C 318.05 345.08 320.23 287.16 317.11 270 C 311.15 237.2 297.22 212.37 277.84 192.99 C 258.46 173.61 230.61 157.25 230.61 157.25"
horiz-adv-x="390.5"/>
<glyph unicode="«" glyph-name="«" d="M 350.28 425.03 L 215.61 244.65 L 347.3 64.28 M 213.13 426.52 L 76.97 243.16 L 212.15 64.24"
horiz-adv-x="415.0"/>
<glyph unicode="&quot;" glyph-name="&quot;" d="M 173.95 674.46 L 141.9 546.26 M 74.07 668.5 L 42.77 549.24"
horiz-adv-x="244.0"/>
<glyph unicode="#" glyph-name="#" d="M 60.01 204.88 L 438.65 206.37 M 115.16 479.18 L 496.79 476.19 M 438.65 667.01 L 300.01 15.56 M 255.29 664.03 L 118.14 20.03"
horiz-adv-x="561.5"/>
<glyph unicode="^" glyph-name="^" d="M 65.62 751.56 C 115.62 818.75 228.12 821 271.88 750.69"
horiz-adv-x="342.0"/>

</font>
</defs>
</svg>
